Reiner_Script-Regular.ufo
<glyph name="exclam" format="1">
  <advance width="112"/>
  <unicode hex="0021"/>
  <outline>
    <contour>
      <point x="138" y="515" type="line"/>
      <point x="95" y="418"/>
      <point x="56" y="287"/>
      <point x="48" y="169" type="curve"/>
      <point x="29" y="163" type="line"/>
      <point x="31" y="247"/>
      <point x="59" y="381"/>
      <point x="100" y="509" type="curve"/>
    </contour>
    <contour>
      <point x="97" y="60" type="line"/>
      <point x="89" y="39"/>
      <point x="82" y="13"/>
      <point x="80" y="-10" type="curve"/>
      <point x="49" y="-13"/>
      <point x="20" y="-6"/>
      <point x="20" y="18" type="curve" smooth="yes"/>
      <point x="20" y="32"/>
      <point x="32" y="46"/>
      <point x="41" y="57" type="curve"/>
    </contour>
  </outline>
</glyph>
<glyph name="quotedbl" format="1">
  <advance width="176"/>
  <unicode hex="0022"/>
  <outline>
    <contour>
      <point x="167" y="558" type="line"/>
      <point x="159" y="521"/>
      <point x="155" y="475"/>
      <point x="152" y="429" type="curve"/>
      <point x="128" y="421" type="line"/>
      <point x="128" y="462"/>
      <point x="127" y="512"/>
      <point x="125" y="548" type="curve"/>
    </contour>
    <contour>
      <point x="84" y="558" type="line"/>
      <point x="76" y="521"/>
      <point x="72" y="475"/>
      <point x="69" y="429" type="curve"/>
      <point x="45" y="421" type="line"/>
      <point x="45" y="462"/>
      <point x="44" y="512"/>
      <point x="42" y="548" type="curve"/>
    </contour>
  </outline>
</glyph>
<glyph name="numbersign" format="1">
  <advance width="373"/>
  <unicode hex="0023"/>
  <outline>
    <contour>
      <point x="355" y="256" type="curve"/>
      <point x="350" y="211" type="line"/>
      <point x="330" y="211"/>
      <point x="298" y="211"/>
      <point x="260" y="210" type="curve"/>
      <point x="257" y="186"/>
      <point x="253" y="162"/>
      <point x="250" y="138" type="curve"/>
      <point x="284" y="139"/>
      <point x="312" y="140"/>
      <point x="332" y="140" type="curve"/>
      <point x="330" y="105" type="line"/>
      <point x="314" y="102"/>
      <point x="283" y="99"/>
      <point x="245" y="95" type="curve"/>
      <point x="240" y="53"/>
      <point x="236" y="14"/>
      <point x="235" y="-20" type="curve"/>
      <point x="213" y="-15" type="line"/>
      <point x="215" y="18"/>
      <point x="218" y="55"/>
      <point x="222" y="93" type="curve"/>
      <point x="187" y="90"/>
      <point x="149" y="88"/>
      <point x="113" y="85" type="curve"/>
      <point x="107" y="53"/>
      <point x="102" y="23"/>
      <point x="99" y="-4" type="curve"/>
      <point x="76" y="-7" type="line"/>
      <point x="80" y="22"/>
      <point x="85" y="52"/>
      <point x="90" y="84" type="curve"/>
      <point x="67" y="82"/>
      <point x="46" y="81"/>
      <point x="28" y="80" type="curve"/>
      <point x="23" y="122" type="line"/>
      <point x="43" y="125"/>
      <point x="70" y="127"/>
      <point x="99" y="130" type="curve"/>
      <point x="104" y="154"/>
      <point x="109" y="179"/>
      <point x="114" y="203" type="curve"/>
      <point x="84" y="201"/>
      <point x="56" y="198"/>
      <point x="34" y="195" type="curve"/>
      <point x="39" y="232" type="line"/>
      <point x="63" y="237"/>
      <point x="92" y="241"/>
      <point x="123" y="244" type="curve"/>
      <point x="139" y="308"/>
      <point x="155" y="368"/>
      <point x="171" y="415" type="curve"/>
      <point x="193" y="410" type="line"/>
      <point x="178" y="367"/>
      <point x="162" y="308"/>
      <point x="146" y="246" type="curve"/>
      <point x="178" y="249"/>
      <point x="211" y="251"/>
      <point x="245" y="253" type="curve"/>
      <point x="253" y="301"/>
      <point x="263" y="348"/>
      <point x="272" y="390" type="curve"/>
      <point x="296" y="392" type="line"/>
      <point x="287" y="353"/>
      <point x="277" y="305"/>
      <point x="268" y="254" type="curve"/>
      <point x="299" y="255"/>
      <point x="329" y="256"/>
    </contour>
    <contour>
      <point x="238" y="209" type="curve"/>
      <point x="205" y="208"/>
      <point x="170" y="207"/>
      <point x="137" y="205" type="curve"/>
      <point x="131" y="180"/>
      <point x="126" y="156"/>
      <point x="121" y="131" type="curve"/>
      <point x="156" y="134"/>
      <point x="193" y="135"/>
      <point x="227" y="137" type="curve"/>
      <point x="230" y="161"/>
      <point x="234" y="185"/>
    </contour>
  </outline>
</glyph>
<glyph name="dollar" format="1">
  <advance width="276"/>
  <unicode hex="0024"/>
  <outline>
    <contour>
      <point x="268" y="516" type="curve" smooth="yes"/>
      <point x="268" y="494"/>
      <point x="264" y="473"/>
      <point x="260" y="455" type="curve"/>
      <point x="224" y="425" type="line"/>
      <point x="225" y="462"/>
      <point x="217" y="488"/>
      <point x="203" y="505" type="curve"/>
      <point x="169" y="204" type="line"/>
      <point x="212" y="139"/>
      <point x="256" y="73"/>
      <point x="256" y="20" type="curve" smooth="yes"/>
      <point x="256" y="-4"/>
      <point x="248" y="-34"/>
      <point x="229" y="-59" type="curve" smooth="yes"/>
      <point x="166" y="-141" type="line"/>
      <point x="154" y="-140"/>
      <point x="142" y="-138"/>
      <point x="131" y="-136" type="curve"/>
      <point x="125" y="-187" type="line"/>
      <point x="105" y="-186" type="line"/>
      <point x="111" y="-132" type="line"/>
      <point x="41" y="-116"/>
      <point x="-1" y="-85"/>
      <point x="-1" y="-22" type="curve" smooth="yes"/>
      <point x="-1" y="21"/>
      <point x="19" y="73"/>
      <point x="43" y="116" type="curve"/>
      <point x="66" y="121" type="line"/>
      <point x="46" y="77"/>
      <point x="33" y="40"/>
      <point x="33" y="10" type="curve" smooth="yes"/>
      <point x="33" y="-17"/>
      <point x="45" y="-36"/>
      <point x="83" y="-44" type="curve" smooth="yes"/>
      <point x="120" y="-52" type="line"/>
      <point x="145" y="171" type="line"/>
      <point x="102" y="237"/>
      <point x="54" y="307"/>
      <point x="54" y="372" type="curve" smooth="yes"/>
      <point x="54" y="418"/>
      <point x="83" y="482"/>
      <point x="112" y="539" type="curve"/>
      <point x="192" y="575" type="line"/>
      <point x="196" y="613" type="line"/>
      <point x="215" y="612" type="line"/>
      <point x="211" y="576" type="line"/>
      <point x="236" y="565" type="line" smooth="yes"/>
      <point x="255" y="557"/>
      <point x="268" y="543"/>
    </contour>
    <contour>
      <point x="185" y="520" type="line"/>
      <point x="170" y="529"/>
      <point x="150" y="533"/>
      <point x="127" y="533" type="curve"/>
      <point x="103" y="478"/>
      <point x="84" y="423"/>
      <point x="84" y="380" type="curve" smooth="yes"/>
      <point x="84" y="338"/>
      <point x="116" y="285"/>
      <point x="152" y="229" type="curve"/>
    </contour>
    <contour>
      <point x="220" y="15" type="curve" smooth="yes"/>
      <point x="220" y="53"/>
      <point x="194" y="98"/>
      <point x="162" y="145" type="curve"/>
      <point x="140" y="-56" type="line"/>
      <point x="198" y="-68" type="line"/>
      <point x="210" y="-44"/>
      <point x="220" y="-16"/>
    </contour>
  </outline>
</glyph>
<glyph name="ampersand" format="1">
  <advance width="269"/>
  <unicode hex="0026"/>
  <outline>
    <contour>
      <point x="278" y="250" type="line"/>
      <point x="253" y="259"/>
      <point x="239" y="262"/>
      <point x="209" y="262" type="curve" smooth="yes"/>
      <point x="195" y="262"/>
      <point x="180" y="260"/>
      <point x="169" y="257" type="curve"/>
      <point x="153" y="203"/>
      <point x="144" y="148"/>
      <point x="144" y="105" type="curve" smooth="yes"/>
      <point x="144" y="75"/>
      <point x="145" y="51"/>
      <point x="146" y="30" type="curve"/>
      <point x="102" y="-11" type="line"/>
      <point x="79" y="26" type="line"/>
      <point x="84" y="47"/>
      <point x="94" y="85"/>
      <point x="107" y="131" type="curve"/>
      <point x="87" y="166"/>
      <point x="49" y="209"/>
      <point x="2" y="210" type="curve"/>
      <point x="20" y="274" type="line"/>
      <point x="65" y="288"/>
      <point x="117" y="297"/>
      <point x="163" y="301" type="curve"/>
      <point x="177" y="335"/>
      <point x="190" y="365"/>
      <point x="202" y="385" type="curve"/>
      <point x="218" y="374" type="line"/>
      <point x="205" y="352"/>
      <point x="194" y="328"/>
      <point x="184" y="303" type="curve"/>
      <point x="214" y="305"/>
      <point x="241" y="304"/>
      <point x="259" y="301" type="curve"/>
    </contour>
    <contour>
      <point x="145" y="250" type="curve"/>
      <point x="55" y="222" type="line"/>
      <point x="72" y="213"/>
      <point x="92" y="197"/>
      <point x="116" y="162" type="curve"/>
      <point x="125" y="191"/>
      <point x="135" y="221"/>
    </contour>
  </outline>
</glyph>
<glyph name="quotesingle" format="1">
  <advance width="93"/>
  <unicode hex="0027"/>
  <outline>
    <contour>
      <point x="84" y="558" type="line"/>
      <point x="76" y="521"/>
      <point x="72" y="475"/>
      <point x="69" y="429" type="curve"/>
      <point x="45" y="421" type="line"/>
      <point x="45" y="462"/>
      <point x="44" y="512"/>
      <point x="42" y="548" type="curve"/>
    </contour>
  </outline>
</glyph>
<glyph name="parenright" format="1">
  <advance width="110"/>
  <unicode hex="0029"/>
  <outline>
    <contour>
      <point x="117" y="394" type="curve" smooth="yes"/>
      <point x="117" y="183"/>
      <point x="83" y="58"/>
      <point x="-15" y="-98" type="curve"/>
      <point x="-53" y="-78" type="line"/>
      <point x="53" y="60"/>
      <point x="97" y="225"/>
      <point x="97" y="426" type="curve" smooth="yes"/>
      <point x="97" y="438"/>
      <point x="97" y="449"/>
      <point x="97" y="461" type="curve"/>
      <point x="116" y="464" type="line"/>
      <point x="117" y="440"/>
      <point x="117" y="416"/>
    </contour>
  </outline>
</glyph>
<glyph name="asterisk" format="1">
  <advance width="142"/>
  <unicode hex="002A"/>
  <outline>
    <contour>
      <point x="139" y="507" type="line"/>
      <point x="119" y="492"/>
      <point x="100" y="480"/>
      <point x="81" y="470" type="curve"/>
      <point x="95" y="460"/>
      <point x="111" y="450"/>
      <point x="130" y="439" type="curve"/>
      <point x="129" y="429" type="line"/>
      <point x="108" y="440"/>
      <point x="91" y="449"/>
      <point x="77" y="458" type="curve"/>
      <point x="74" y="434"/>
      <point x="71" y="411"/>
      <point x="67" y="394" type="curve"/>
      <point x="57" y="389" type="line"/>
      <point x="59" y="406"/>
      <point x="61" y="432"/>
      <point x="63" y="461" type="curve"/>
      <point x="45" y="452"/>
      <point x="29" y="445"/>
      <point x="13" y="439" type="curve"/>
      <point x="4" y="452" type="line"/>
      <point x="22" y="458"/>
      <point x="38" y="464"/>
      <point x="55" y="471" type="curve"/>
      <point x="34" y="484"/>
      <point x="19" y="496"/>
      <point x="3" y="511" type="curve"/>
      <point x="8" y="528" type="line"/>
      <point x="27" y="511"/>
      <point x="45" y="496"/>
      <point x="64" y="482" type="curve"/>
      <point x="65" y="508"/>
      <point x="66" y="533"/>
      <point x="66" y="550" type="curve"/>
      <point x="83" y="554" type="line"/>
      <point x="83" y="532"/>
      <point x="82" y="507"/>
      <point x="79" y="483" type="curve"/>
      <point x="96" y="491"/>
      <point x="113" y="501"/>
      <point x="131" y="513" type="curve"/>
    </contour>
  </outline>
</glyph>
<glyph name="plus" format="1">
  <advance width="241"/>
  <unicode hex="002B"/>
  <outline>
    <contour>
      <point x="228" y="163" type="line"/>
      <point x="220" y="124" type="line"/>
      <point x="131" y="124" type="line"/>
      <point x="126" y="45" type="line"/>
      <point x="97" y="11" type="line"/>
      <point x="102" y="124" type="line"/>
      <point x="7" y="124" type="line"/>
      <point x="21" y="163" type="line"/>
      <point x="104" y="163" type="line"/>
      <point x="108" y="249" type="line"/>
      <point x="139" y="266" type="line"/>
      <point x="133" y="163" type="line"/>
    </contour>
  </outline>
</glyph>
<glyph name="comma" format="1">
  <advance width="93"/>
  <unicode hex="002C"/>
  <outline>
    <contour>
      <point x="84" y="54" type="line"/>
      <point x="55" y="10"/>
      <point x="17" y="-65"/>
      <point x="2" y="-106" type="curve"/>
      <point x="-19" y="-100" type="line"/>
      <point x="-8" y="-65"/>
      <point x="28" y="17"/>
      <point x="48" y="57" type="curve"/>
    </contour>
  </outline>
</glyph>
<glyph name="hyphen" format="1">
  <advance width="151"/>
  <unicode hex="002D"/>
  <unicode hex="2010"/>
  <unicode hex="2011"/>
  <outline>
    <contour>
      <point x="139" y="128" type="line"/>
      <point x="18" y="102" type="line"/>
      <point x="15" y="139" type="line"/>
      <point x="136" y="150" type="line"/>
    </contour>
  </outline>
</glyph>
<glyph name="period" format="1">
  <advance width="116"/>
  <unicode hex="002E"/>
  <outline>
    <contour>
      <point x="100" y="57" type="line"/>
      <point x="90" y="37"/>
      <point x="82" y="12"/>
      <point x="80" y="-10" type="curve"/>
      <point x="54" y="-8"/>
      <point x="22" y="0"/>
      <point x="22" y="24" type="curve" smooth="yes"/>
      <point x="22" y="37"/>
      <point x="28" y="48"/>
      <point x="37" y="57" type="curve"/>
    </contour>
  </outline>
</glyph>
<glyph name="zero" format="1">
  <advance width="298"/>
  <unicode hex="0030"/>
  <outline>
    <contour>
      <point x="279" y="194" type="curve" smooth="yes"/>
      <point x="279" y="111"/>
      <point x="223" y="18"/>
      <point x="128" y="-13" type="curve"/>
      <point x="67" y="16"/>
      <point x="19" y="62"/>
      <point x="19" y="133" type="curve" smooth="yes"/>
      <point x="19" y="193"/>
      <point x="45" y="240"/>
      <point x="88" y="289" type="curve"/>
      <point x="103" y="284" type="line"/>
      <point x="75" y="246"/>
      <point x="65" y="215"/>
      <point x="65" y="167" type="curve" smooth="yes"/>
      <point x="65" y="85"/>
      <point x="112" y="48"/>
      <point x="179" y="28" type="curve"/>
      <point x="209" y="60"/>
      <point x="233" y="98"/>
      <point x="233" y="142" type="curve" smooth="yes"/>
      <point x="233" y="217"/>
      <point x="189" y="266"/>
      <point x="111" y="292" type="curve"/>
      <point x="151" y="336" type="line"/>
      <point x="224" y="304"/>
      <point x="279" y="255"/>
    </contour>
  </outline>
</glyph>
<glyph name="one" format="1">
  <advance width="173"/>
  <unicode hex="0031"/>
  <outline>
    <contour>
      <point x="153" y="377" type="line"/>
      <point x="140" y="305"/>
      <point x="124" y="176"/>
      <point x="112" y="24" type="curve"/>
      <point x="73" y="-14" type="line"/>
      <point x="93" y="291" type="line"/>
      <point x="22" y="236" type="line"/>
      <point x="8" y="251" type="line"/>
      <point x="53" y="289" type="line" smooth="yes"/>
      <point x="86" y="317"/>
      <point x="99" y="345"/>
      <point x="102" y="366" type="curve"/>
    </contour>
  </outline>
</glyph>
<glyph name="two" format="1">
  <advance width="234"/>
  <unicode hex="0032"/>
  <outline>
    <contour>
      <point x="228" y="34" type="line"/>
      <point x="218" y="29"/>
      <point x="208" y="23"/>
      <point x="199" y="17" type="curve" smooth="yes"/>
      <point x="179" y="4"/>
      <point x="159" y="-8"/>
      <point x="143" y="-8" type="curve" smooth="yes"/>
      <point x="123" y="-8"/>
      <point x="103" y="1"/>
      <point x="82" y="8" type="curve" smooth="yes"/>
      <point x="63" y="15"/>
      <point x="43" y="21"/>
      <point x="21" y="20" type="curve"/>
      <point x="21" y="25" type="line"/>
      <point x="80" y="86"/>
      <point x="162" y="163"/>
      <point x="162" y="242" type="curve" smooth="yes"/>
      <point x="162" y="273"/>
      <point x="142" y="305"/>
      <point x="110" y="305" type="curve" smooth="yes"/>
      <point x="76" y="305"/>
      <point x="51" y="273"/>
      <point x="51" y="241" type="curve" smooth="yes"/>
      <point x="51" y="236"/>
      <point x="52" y="232"/>
      <point x="53" y="228" type="curve"/>
      <point x="16" y="204" type="line"/>
      <point x="11" y="229"/>
      <point x="27" y="273"/>
      <point x="78" y="315" type="curve" smooth="yes"/>
      <point x="132" y="359" type="line"/>
      <point x="175" y="345"/>
      <point x="210" y="316"/>
      <point x="210" y="269" type="curve" smooth="yes"/>
      <point x="210" y="197"/>
      <point x="143" y="120"/>
      <point x="78" y="59" type="curve"/>
      <point x="92" y="56"/>
      <point x="105" y="51"/>
      <point x="117" y="47" type="curve" smooth="yes"/>
      <point x="135" y="40"/>
      <point x="152" y="34"/>
      <point x="168" y="34" type="curve" smooth="yes"/>
      <point x="186" y="34"/>
      <point x="203" y="41"/>
      <point x="221" y="52" type="curve"/>
    </contour>
  </outline>
</glyph>
<glyph name="three" format="1">
  <advance width="223"/>
  <unicode hex="0033"/>
  <outline>
    <contour>
      <point x="194" y="149" type="curve" smooth="yes"/>
      <point x="194" y="59"/>
      <point x="126" y="22"/>
      <point x="34" y="-18" type="curve"/>
      <point x="20" y="-4" type="line"/>
      <point x="83" y="33"/>
      <point x="141" y="73"/>
      <point x="141" y="135" type="curve" smooth="yes"/>
      <point x="141" y="157"/>
      <point x="137" y="170"/>
      <point x="128" y="190" type="curve"/>
      <point x="31" y="181" type="line"/>
      <point x="80" y="229"/>
      <point x="123" y="266"/>
      <point x="124" y="322" type="curve"/>
      <point x="18" y="329" type="line"/>
      <point x="44" y="376" type="line"/>
      <point x="179" y="367" type="line"/>
      <point x="178" y="324"/>
      <point x="139" y="255"/>
      <point x="90" y="219" type="curve"/>
      <point x="167" y="233" type="line"/>
      <point x="186" y="204"/>
      <point x="194" y="183"/>
    </contour>
  </outline>
</glyph>
<glyph name="four" format="1">
  <advance width="305"/>
  <unicode hex="0034"/>
  <outline>
    <contour>
      <point x="285" y="167" type="line"/>
      <point x="248" y="134" type="line"/>
      <point x="241" y="89"/>
      <point x="233" y="45"/>
      <point x="226" y="3" type="curve"/>
      <point x="192" y="-26" type="line"/>
      <point x="197" y="17"/>
      <point x="201" y="70"/>
      <point x="203" y="120" type="curve"/>
      <point x="143" y="115"/>
      <point x="67" y="116"/>
      <point x="-1" y="124" type="curve"/>
      <point x="64" y="189"/>
      <point x="142" y="270"/>
      <point x="217" y="347" type="curve"/>
      <point x="277" y="358" type="line"/>
      <point x="201" y="292"/>
      <point x="121" y="222"/>
      <point x="63" y="166" type="curve"/>
      <point x="112" y="161"/>
      <point x="160" y="162"/>
      <point x="205" y="164" type="curve"/>
      <point x="207" y="198"/>
      <point x="208" y="229"/>
      <point x="209" y="251" type="curve"/>
      <point x="259" y="289" type="line"/>
      <point x="259" y="247"/>
      <point x="257" y="206"/>
      <point x="252" y="166" type="curve"/>
    </contour>
  </outline>
</glyph>
<glyph name="five" format="1">
  <advance width="227"/>
  <unicode hex="0035"/>
  <outline>
    <contour>
      <point x="239" y="356" type="curve"/>
      <point x="189" y="321" type="line"/>
      <point x="175" y="315"/>
      <point x="135" y="307"/>
      <point x="110" y="307" type="curve" smooth="yes"/>
      <point x="96" y="307"/>
      <point x="84" y="309"/>
      <point x="72" y="312" type="curve"/>
      <point x="60" y="250" type="line"/>
      <point x="141" y="243"/>
      <point x="187" y="212"/>
      <point x="187" y="142" type="curve" smooth="yes"/>
      <point x="187" y="41"/>
      <point x="108" y="-5"/>
      <point x="25" y="-42" type="curve"/>
      <point x="15" y="-24" type="line"/>
      <point x="85" y="11"/>
      <point x="132" y="52"/>
      <point x="132" y="127" type="curve" smooth="yes"/>
      <point x="132" y="175"/>
      <point x="111" y="219"/>
      <point x="42" y="215" type="curve"/>
      <point x="48" y="359" type="line"/>
      <point x="67" y="353"/>
      <point x="79" y="351"/>
      <point x="134" y="351" type="curve" smooth="yes"/>
      <point x="175" y="351"/>
      <point x="199" y="352"/>
    </contour>
  </outline>
</glyph>
<glyph name="six" format="1">
  <advance width="277"/>
  <unicode hex="0036"/>
  <outline>
    <contour>
      <point x="260" y="90" type="curve" smooth="yes"/>
      <point x="260" y="32"/>
      <point x="206" y="-14"/>
      <point x="149" y="-14" type="curve" smooth="yes"/>
      <point x="80" y="-14"/>
      <point x="18" y="40"/>
      <point x="18" y="109" type="curve" smooth="yes"/>
      <point x="18" y="206"/>
      <point x="104" y="305"/>
      <point x="172" y="365" type="curve"/>
      <point x="177" y="363" type="line"/>
      <point x="162" y="325" type="line"/>
      <point x="104" y="287"/>
      <point x="53" y="208"/>
      <point x="53" y="148" type="curve" smooth="yes"/>
      <point x="53" y="138"/>
      <point x="54" y="129"/>
      <point x="56" y="120" type="curve"/>
      <point x="99" y="164" type="line"/>
      <point x="118" y="171"/>
      <point x="130" y="175"/>
      <point x="154" y="175" type="curve" smooth="yes"/>
      <point x="209" y="175"/>
      <point x="260" y="143"/>
    </contour>
    <contour>
      <point x="232" y="61" type="curve" smooth="yes"/>
      <point x="232" y="106"/>
      <point x="181" y="128"/>
      <point x="139" y="128" type="curve" smooth="yes"/>
      <point x="108" y="128"/>
      <point x="80" y="124"/>
      <point x="59" y="108" type="curve"/>
      <point x="74" y="59"/>
      <point x="117" y="25"/>
      <point x="170" y="25" type="curve" smooth="yes"/>
      <point x="206" y="25"/>
      <point x="232" y="37"/>
    </contour>
  </outline>
</glyph>
<glyph name="seven" format="1">
  <advance width="283"/>
  <unicode hex="0037"/>
  <outline>
    <contour>
      <point x="277" y="343" type="curve"/>
      <point x="238" y="266" type="line"/>
      <point x="192" y="216"/>
      <point x="99" y="78"/>
      <point x="51" y="-31" type="curve"/>
      <point x="12" y="-47" type="line"/>
      <point x="189" y="246" type="line"/>
      <point x="224" y="315" type="line"/>
      <point x="213" y="311"/>
      <point x="166" y="303"/>
      <point x="136" y="303" type="curve" smooth="yes"/>
      <point x="35" y="303" type="line"/>
      <point x="74" y="354" type="line"/>
      <point x="121" y="345"/>
      <point x="203" y="343"/>
    </contour>
  </outline>
</glyph>
<glyph name="eight" format="1">
  <advance width="247"/>
  <unicode hex="0038"/>
  <outline>
    <contour>
      <point x="224" y="288" type="curve" smooth="yes"/>
      <point x="224" y="238"/>
      <point x="195" y="213"/>
      <point x="155" y="184" type="curve"/>
      <point x="159" y="181" type="line" smooth="yes"/>
      <point x="191" y="157"/>
      <point x="219" y="140"/>
      <point x="219" y="99" type="curve" smooth="yes"/>
      <point x="219" y="41"/>
      <point x="180" y="-15"/>
      <point x="102" y="-15" type="curve" smooth="yes"/>
      <point x="55" y="-15"/>
      <point x="14" y="8"/>
      <point x="14" y="55" type="curve" smooth="yes"/>
      <point x="14" y="93"/>
      <point x="60" y="135"/>
      <point x="108" y="164" type="curve"/>
      <point x="74" y="189"/>
      <point x="39" y="204"/>
      <point x="39" y="247" type="curve" smooth="yes"/>
      <point x="39" y="306"/>
      <point x="88" y="358"/>
      <point x="149" y="358" type="curve" smooth="yes"/>
      <point x="202" y="358"/>
      <point x="224" y="327"/>
    </contour>
    <contour>
      <point x="179" y="265" type="curve" smooth="yes"/>
      <point x="179" y="306"/>
      <point x="155" y="316"/>
      <point x="86" y="318" type="curve"/>
      <point x="76" y="304"/>
      <point x="73" y="291"/>
      <point x="73" y="273" type="curve" smooth="yes"/>
      <point x="73" y="240"/>
      <point x="94" y="223"/>
      <point x="121" y="206" type="curve" smooth="yes"/>
      <point x="146" y="190" type="line"/>
      <point x="166" y="211"/>
      <point x="179" y="234"/>
    </contour>
    <contour>
      <point x="173" y="66" type="curve" smooth="yes"/>
      <point x="173" y="95"/>
      <point x="169" y="117"/>
      <point x="139" y="141" type="curve" smooth="yes"/>
      <point x="120" y="156" type="line"/>
      <point x="83" y="126"/>
      <point x="57" y="94"/>
      <point x="46" y="63" type="curve"/>
      <point x="57" y="41"/>
      <point x="83" y="20"/>
      <point x="123" y="20" type="curve" smooth="yes"/>
      <point x="141" y="20"/>
      <point x="152" y="20"/>
      <point x="169" y="26" type="curve"/>
      <point x="172" y="38"/>
      <point x="173" y="50"/>
    </contour>
  </outline>
</glyph>
<glyph name="nine" format="1">
  <advance width="267"/>
  <unicode hex="0039"/>
  <outline>
    <contour>
      <point x="249" y="331" type="line"/>
      <point x="212" y="151" type="line"/>
      <point x="161" y="-20" type="line"/>
      <point x="123" y="-52" type="line"/>
      <point x="163" y="107" type="line"/>
      <point x="178" y="234" type="line"/>
      <point x="149" y="210"/>
      <point x="124" y="200"/>
      <point x="92" y="200" type="curve" smooth="yes"/>
      <point x="52" y="200"/>
      <point x="18" y="219"/>
      <point x="18" y="260" type="curve" smooth="yes"/>
      <point x="18" y="315"/>
      <point x="70" y="363"/>
      <point x="128" y="363" type="curve" smooth="yes"/>
      <point x="163" y="363"/>
      <point x="198" y="342"/>
      <point x="218" y="318" type="curve"/>
    </contour>
    <contour>
      <point x="189" y="268" type="curve"/>
      <point x="189" y="282" type="line"/>
      <point x="183" y="297"/>
      <point x="172" y="310"/>
      <point x="165" y="315" type="curve" smooth="yes"/>
      <point x="149" y="327"/>
      <point x="125" y="337"/>
      <point x="90" y="337" type="curve"/>
      <point x="75" y="318"/>
      <point x="68" y="295"/>
      <point x="68" y="278" type="curve" smooth="yes"/>
      <point x="68" y="249"/>
      <point x="85" y="230"/>
      <point x="110" y="230" type="curve" smooth="yes"/>
      <point x="142" y="230"/>
      <point x="172" y="249"/>
    </contour>
  </outline>
</glyph>
<glyph name="colon" format="1">
  <advance width="136"/>
  <unicode hex="003A"/>
  <outline>
    <contour>
      <point x="123" y="228" type="line"/>
      <point x="113" y="208"/>
      <point x="104" y="187"/>
      <point x="101" y="166" type="curve"/>
      <point x="76" y="166"/>
      <point x="43" y="171"/>
      <point x="43" y="198" type="curve" smooth="yes"/>
      <point x="43" y="214"/>
      <point x="56" y="227"/>
      <point x="66" y="234" type="curve"/>
    </contour>
    <contour>
      <point x="101" y="53" type="line"/>
      <point x="91" y="33"/>
      <point x="83" y="11"/>
      <point x="80" y="-10" type="curve"/>
      <point x="55" y="-10"/>
      <point x="22" y="-5"/>
      <point x="22" y="17" type="curve" smooth="yes"/>
      <point x="22" y="33"/>
      <point x="34" y="50"/>
      <point x="44" y="57" type="curve"/>
    </contour>
  </outline>
</glyph>
<glyph name="semicolon" format="1">
  <advance width="126"/>
  <unicode hex="003B"/>
  <outline>
    <contour>
      <point x="115" y="195" type="line"/>
      <point x="105" y="175"/>
      <point x="92" y="149"/>
      <point x="89" y="128" type="curve"/>
      <point x="52" y="135"/>
      <point x="35" y="138"/>
      <point x="35" y="161" type="curve" smooth="yes"/>
      <point x="35" y="177"/>
      <point x="53" y="193"/>
      <point x="64" y="199" type="curve"/>
    </contour>
    <contour>
      <point x="68" y="55" type="line"/>
      <point x="41" y="11"/>
      <point x="7" y="-53"/>
      <point x="-8" y="-94" type="curve"/>
      <point x="-21" y="-85" type="line"/>
      <point x="-10" y="-50"/>
      <point x="16" y="13"/>
      <point x="35" y="52" type="curve"/>
    </contour>
  </outline>
</glyph>
<glyph name="less" format="1">
  <advance width="198"/>
  <unicode hex="003C"/>
  <outline>
    <contour>
      <point x="170" y="18" type="line"/>
      <point x="155" y="6" type="line"/>
      <point x="24" y="150" type="line"/>
      <point x="155" y="284" type="line"/>
      <point x="170" y="274" type="line"/>
      <point x="78" y="163" type="line"/>
    </contour>
  </outline>
</glyph>
<glyph name="equal" format="1">
  <advance width="220"/>
  <unicode hex="003D"/>
  <outline>
    <contour>
      <point x="197" y="169" type="line"/>
      <point x="24" y="164" type="line"/>
      <point x="21" y="190" type="line"/>
      <point x="193" y="196" type="line"/>
    </contour>
    <contour>
      <point x="197" y="91" type="line"/>
      <point x="24" y="96" type="line"/>
      <point x="21" y="122" type="line"/>
      <point x="193" y="118" type="line"/>
    </contour>
  </outline>
</glyph>
<glyph name="greater" format="1">
  <advance width="198"/>
  <unicode hex="003E"/>
  <outline>
    <contour>
      <point x="174" y="140" type="line"/>
      <point x="43" y="6" type="line"/>
      <point x="28" y="16" type="line"/>
      <point x="120" y="127" type="line"/>
      <point x="28" y="272" type="line"/>
      <point x="43" y="284" type="line"/>
    </contour>
  </outline>
</glyph>
<glyph name="question" format="1">
  <advance width="193"/>
  <unicode hex="003F"/>
  <outline>
    <contour>
      <point x="187" y="270" type="curve" smooth="yes"/>
      <point x="187" y="226"/>
      <point x="157" y="203"/>
      <point x="120" y="179" type="curve" smooth="yes"/>
      <point x="34" y="123" type="line"/>
      <point x="29" y="136" type="line"/>
      <point x="91" y="182" type="line" smooth="yes"/>
      <point x="115" y="200"/>
      <point x="134" y="221"/>
      <point x="134" y="245" type="curve" smooth="yes"/>
      <point x="134" y="282"/>
      <point x="82" y="320"/>
      <point x="24" y="333" type="curve"/>
      <point x="20" y="358" type="line"/>
      <point x="88" y="414" type="line"/>
      <point x="100" y="403" type="line"/>
      <point x="63" y="373" type="line"/>
      <point x="101" y="365"/>
      <point x="187" y="332"/>
    </contour>
    <contour>
      <point x="106" y="53" type="line"/>
      <point x="90" y="34"/>
      <point x="74" y="5"/>
      <point x="69" y="-14" type="curve"/>
      <point x="44" y="-5"/>
      <point x="23" y="2"/>
      <point x="23" y="26" type="curve" smooth="yes"/>
      <point x="23" y="39"/>
      <point x="34" y="52"/>
      <point x="43" y="61" type="curve"/>
    </contour>
  </outline>
</glyph>
<glyph name="at" format="1">
  <advance width="510"/>
  <unicode hex="0040"/>
  <outline>
    <contour>
      <point x="485" y="301" type="curve" smooth="yes"/>
      <point x="485" y="185"/>
      <point x="427" y="95"/>
      <point x="362" y="58" type="curve"/>
      <point x="313" y="69"/>
      <point x="271" y="102"/>
      <point x="264" y="156" type="curve"/>
      <point x="248" y="110"/>
      <point x="214" y="68"/>
      <point x="177" y="68" type="curve" smooth="yes"/>
      <point x="155" y="68"/>
      <point x="141" y="89"/>
      <point x="141" y="119" type="curve" smooth="yes"/>
      <point x="141" y="185"/>
      <point x="193" y="288"/>
      <point x="276" y="356" type="curve"/>
      <point x="317" y="343" type="line"/>
      <point x="310" y="308"/>
      <point x="308" y="230"/>
      <point x="308" y="201" type="curve" smooth="yes"/>
      <point x="308" y="133"/>
      <point x="326" y="107"/>
      <point x="372" y="91" type="curve"/>
      <point x="410" y="112"/>
      <point x="446" y="203"/>
      <point x="446" y="276" type="curve" smooth="yes"/>
      <point x="446" y="398"/>
      <point x="379" y="475"/>
      <point x="267" y="475" type="curve" smooth="yes"/>
      <point x="157" y="475"/>
      <point x="56" y="341"/>
      <point x="56" y="175" type="curve" smooth="yes"/>
      <point x="56" y="40"/>
      <point x="144" y="-27"/>
      <point x="194" y="-44" type="curve"/>
      <point x="286" y="-44" type="line"/>
      <point x="293" y="-60" type="line"/>
      <point x="179" y="-88" type="line"/>
      <point x="115" y="-66"/>
      <point x="26" y="2"/>
      <point x="26" y="152" type="curve" smooth="yes"/>
      <point x="26" y="340"/>
      <point x="142" y="506"/>
      <point x="287" y="506" type="curve" smooth="yes"/>
      <point x="395" y="506"/>
      <point x="485" y="438"/>
    </contour>
    <contour>
      <point x="270" y="314" type="curve"/>
      <point x="218" y="267"/>
      <point x="177" y="212"/>
      <point x="177" y="165" type="curve" smooth="yes"/>
      <point x="177" y="140"/>
      <point x="185" y="127"/>
      <point x="202" y="127" type="curve" smooth="yes"/>
      <point x="229" y="127"/>
      <point x="251" y="165"/>
      <point x="262" y="202" type="curve"/>
      <point x="262" y="231"/>
      <point x="264" y="276"/>
    </contour>
  </outline>
</glyph>
<glyph name="A" format="1">
  <advance width="526"/>
  <unicode hex="0041"/>
  <outline>
    <contour>
      <point x="536" y="-20" type="line"/>
      <point x="477" y="-133" type="line"/>
      <point x="439" y="-92" type="line"/>
      <point x="430" y="-40"/>
      <point x="418" y="49"/>
      <point x="409" y="145" type="curve"/>
      <point x="256" y="145" type="line"/>
      <point x="224" y="79"/>
      <point x="173" y="-2"/>
      <point x="124" y="-2" type="curve" smooth="yes"/>
      <point x="95" y="-2"/>
      <point x="66" y="19"/>
      <point x="46" y="62" type="curve" smooth="yes"/>
      <point x="0" y="159" type="line"/>
      <point x="19" y="231" type="line" smooth="yes"/>
      <point x="27" y="261"/>
      <point x="48" y="285"/>
      <point x="76" y="285" type="curve" smooth="yes"/>
      <point x="95" y="285"/>
      <point x="106" y="280"/>
      <point x="119" y="267" type="curve"/>
      <point x="123" y="241" type="line"/>
      <point x="112" y="246"/>
      <point x="103" y="247"/>
      <point x="91" y="247" type="curve" smooth="yes"/>
      <point x="55" y="247"/>
      <point x="36" y="215"/>
      <point x="24" y="179" type="curve"/>
      <point x="69" y="102" type="line" smooth="yes"/>
      <point x="82" y="79"/>
      <point x="107" y="58"/>
      <point x="126" y="58" type="curve" smooth="yes"/>
      <point x="159" y="58"/>
      <point x="202" y="113"/>
      <point x="240" y="185" type="curve" smooth="yes"/>
      <point x="285" y="270"/>
      <point x="358" y="479"/>
      <point x="388" y="618" type="curve"/>
      <point x="419" y="618" type="line"/>
      <point x="430" y="418"/>
      <point x="450" y="198"/>
      <point x="486" y="-26" type="curve"/>
    </contour>
    <contour>
      <point x="404" y="222" type="line"/>
      <point x="398" y="294"/>
      <point x="392" y="367"/>
      <point x="387" y="429" type="curve" smooth="yes"/>
      <point x="385" y="452"/>
      <point x="384" y="459"/>
      <point x="378" y="459" type="curve" smooth="yes"/>
      <point x="372" y="459"/>
      <point x="370" y="453"/>
      <point x="364" y="436" type="curve" smooth="yes"/>
      <point x="290" y="222" type="line"/>
    </contour>
  </outline>
</glyph>
<glyph name="B" format="1">
  <advance width="374"/>
  <unicode hex="0042"/>
  <outline>
    <contour>
      <point x="354" y="108" type="curve" smooth="yes"/>
      <point x="354" y="27"/>
      <point x="292" y="-74"/>
      <point x="226" y="-166" type="curve"/>
      <point x="198" y="-144"/>
      <point x="177" y="-117"/>
      <point x="177" y="-81" type="curve" smooth="yes"/>
      <point x="177" y="-60"/>
      <point x="178" y="-43"/>
      <point x="181" y="-27" type="curve"/>
      <point x="223" y="12" type="line"/>
      <point x="218" y="-29"/>
      <point x="221" y="-77"/>
      <point x="241" y="-77" type="curve" smooth="yes"/>
      <point x="261" y="-77"/>
      <point x="283" y="-1"/>
      <point x="283" y="51" type="curve" smooth="yes"/>
      <point x="283" y="160"/>
      <point x="211" y="171"/>
      <point x="131" y="171" type="curve"/>
      <point x="124" y="111"/>
      <point x="119" y="58"/>
      <point x="117" y="22" type="curve"/>
      <point x="92" y="13" type="line"/>
      <point x="95" y="103"/>
      <point x="127" y="398"/>
      <point x="164" y="560" type="curve"/>
      <point x="67" y="526" type="line"/>
      <point x="82" y="473" type="line"/>
      <point x="57" y="465" type="line"/>
      <point x="31" y="545" type="line"/>
      <point x="84" y="602" type="line"/>
      <point x="119" y="609"/>
      <point x="144" y="610"/>
      <point x="179" y="610" type="curve" smooth="yes"/>
      <point x="279" y="610"/>
      <point x="339" y="578"/>
      <point x="339" y="501" type="curve" smooth="yes"/>
      <point x="339" y="410"/>
      <point x="247" y="280"/>
      <point x="183" y="226" type="curve"/>
      <point x="299" y="222"/>
      <point x="354" y="180"/>
    </contour>
    <contour>
      <point x="270" y="477" type="curve" smooth="yes"/>
      <point x="270" y="519"/>
      <point x="247" y="558"/>
      <point x="197" y="558" type="curve" smooth="yes"/>
      <point x="196" y="558"/>
      <point x="194" y="558"/>
      <point x="192" y="558" type="curve"/>
      <point x="176" y="476"/>
      <point x="153" y="332"/>
      <point x="136" y="207" type="curve"/>
      <point x="210" y="278"/>
      <point x="270" y="387"/>
    </contour>
  </outline>
</glyph>
<glyph name="C" format="1">
  <advance width="377"/>
  <unicode hex="0043"/>
  <outline>
    <contour>
      <point x="378" y="539" type="curve" smooth="yes"/>
      <point x="378" y="514"/>
      <point x="373" y="463"/>
      <point x="368" y="427" type="curve"/>
      <point x="322" y="399" type="line"/>
      <point x="322" y="416"/>
      <point x="324" y="449"/>
      <point x="324" y="478" type="curve" smooth="yes"/>
      <point x="324" y="512"/>
      <point x="309" y="544"/>
      <point x="285" y="558" type="curve"/>
      <point x="208" y="512"/>
      <point x="115" y="407"/>
      <point x="115" y="276" type="curve" smooth="yes"/>
      <point x="115" y="118"/>
      <point x="233" y="-12"/>
      <point x="361" y="-77" type="curve"/>
      <point x="348" y="-96" type="line"/>
      <point x="211" y="-32"/>
      <point x="48" y="90"/>
      <point x="48" y="281" type="curve" smooth="yes"/>
      <point x="48" y="478"/>
      <point x="192" y="580"/>
      <point x="326" y="612" type="curve"/>
      <point x="359" y="604"/>
      <point x="378" y="574"/>
    </contour>
  </outline>
</glyph>
<glyph name="D" format="1">
  <advance width="405"/>
  <unicode hex="0044"/>
  <outline>
    <contour>
      <point x="390" y="531" type="line"/>
      <point x="383" y="508"/>
      <point x="372" y="484"/>
      <point x="363" y="460" type="curve"/>
      <point x="375" y="424"/>
      <point x="382" y="381"/>
      <point x="382" y="330" type="curve" smooth="yes"/>
      <point x="382" y="264"/>
      <point x="368" y="209"/>
      <point x="352" y="138" type="curve" smooth="yes"/>
      <point x="340" y="87"/>
      <point x="325" y="12"/>
      <point x="320" y="-69" type="curve"/>
      <point x="250" y="-115" type="line"/>
      <point x="182" y="-82"/>
      <point x="88" y="7"/>
      <point x="52" y="78" type="curve"/>
      <point x="12" y="84" type="line"/>
      <point x="38" y="162" type="line"/>
      <point x="64" y="166" type="line"/>
      <point x="70" y="153"/>
      <point x="77" y="140"/>
      <point x="85" y="127" type="curve"/>
      <point x="168" y="126"/>
      <point x="269" y="265"/>
      <point x="318" y="403" type="curve"/>
      <point x="295" y="475"/>
      <point x="253" y="522"/>
      <point x="184" y="553" type="curve"/>
      <point x="182" y="533"/>
      <point x="186" y="502"/>
      <point x="204" y="484" type="curve"/>
      <point x="193" y="444" type="line"/>
      <point x="160" y="462"/>
      <point x="132" y="492"/>
      <point x="134" y="563" type="curve"/>
      <point x="184" y="612" type="line"/>
      <point x="259" y="599"/>
      <point x="317" y="558"/>
      <point x="348" y="494" type="curve"/>
      <point x="354" y="506"/>
      <point x="358" y="518"/>
      <point x="361" y="530" type="curve"/>
    </contour>
    <contour>
      <point x="339" y="242" type="curve" smooth="yes"/>
      <point x="339" y="291"/>
      <point x="335" y="337"/>
      <point x="325" y="375" type="curve"/>
      <point x="268" y="241"/>
      <point x="190" y="135"/>
      <point x="104" y="99" type="curve"/>
      <point x="147" y="41"/>
      <point x="211" y="-17"/>
      <point x="296" y="-51" type="curve"/>
      <point x="304" y="7"/>
      <point x="315" y="59"/>
      <point x="324" y="109" type="curve" smooth="yes"/>
      <point x="333" y="154"/>
      <point x="339" y="197"/>
    </contour>
  </outline>
</glyph>
<glyph name="E" format="1">
  <advance width="365"/>
  <unicode hex="0045"/>
  <outline>
    <contour>
      <point x="345" y="-32" type="line"/>
      <point x="325" y="-73"/>
      <point x="270" y="-128"/>
      <point x="196" y="-128" type="curve" smooth="yes"/>
      <point x="89" y="-128"/>
      <point x="11" y="-44"/>
      <point x="11" y="53" type="curve" smooth="yes"/>
      <point x="11" y="160"/>
      <point x="83" y="238"/>
      <point x="207" y="250" type="curve"/>
      <point x="151" y="314"/>
      <point x="104" y="387"/>
      <point x="104" y="470" type="curve" smooth="yes"/>
      <point x="104" y="546"/>
      <point x="139" y="617"/>
      <point x="224" y="617" type="curve" smooth="yes"/>
      <point x="262" y="617"/>
      <point x="289" y="607"/>
      <point x="316" y="578" type="curve"/>
      <point x="316" y="524" type="line"/>
      <point x="299" y="517" type="line"/>
      <point x="259" y="558"/>
      <point x="213" y="574"/>
      <point x="160" y="567" type="curve"/>
      <point x="142" y="554"/>
      <point x="131" y="519"/>
      <point x="131" y="486" type="curve" smooth="yes"/>
      <point x="131" y="400"/>
      <point x="180" y="320"/>
      <point x="237" y="255" type="curve"/>
      <point x="264" y="258"/>
      <point x="316" y="249"/>
      <point x="337" y="241" type="curve"/>
      <point x="343" y="227"/>
      <point x="334" y="200"/>
      <point x="312" y="186" type="curve"/>
      <point x="289" y="187"/>
      <point x="260" y="201"/>
      <point x="248" y="211" type="curve"/>
      <point x="227" y="216"/>
      <point x="216" y="218"/>
      <point x="193" y="218" type="curve" smooth="yes"/>
      <point x="122" y="218"/>
      <point x="58" y="187"/>
      <point x="58" y="97" type="curve" smooth="yes"/>
      <point x="58" y="8"/>
      <point x="141" y="-70"/>
      <point x="230" y="-70" type="curve" smooth="yes"/>
      <point x="274" y="-70"/>
      <point x="305" y="-57"/>
      <point x="331" y="-23" type="curve"/>
    </contour>
  </outline>
</glyph>
<glyph name="F" format="1">
  <advance width="431"/>
  <unicode hex="0046"/>
  <outline>
    <contour>
      <point x="451" y="519" type="line"/>
      <point x="443" y="589" type="line"/>
      <point x="399" y="594"/>
      <point x="370" y="594"/>
      <point x="322" y="593" type="curve"/>
      <point x="322" y="601"/>
      <point x="322" y="605"/>
      <point x="322" y="612" type="curve"/>
      <point x="295" y="593" type="line"/>
      <point x="200" y="594"/>
      <point x="53" y="579"/>
      <point x="53" y="579" type="curve"/>
      <point x="19" y="514" type="line"/>
      <point x="78" y="526"/>
      <point x="113" y="530"/>
      <point x="173" y="530" type="curve" smooth="yes"/>
      <point x="203" y="530"/>
      <point x="234" y="528"/>
      <point x="266" y="526" type="curve"/>
      <point x="247" y="426"/>
      <point x="226" y="277"/>
      <point x="217" y="155" type="curve"/>
      <point x="201" y="156"/>
      <point x="188" y="157"/>
      <point x="175" y="159" type="curve"/>
      <point x="142" y="103" type="line"/>
      <point x="182" y="84" type="line"/>
      <point x="191" y="85"/>
      <point x="203" y="85"/>
      <point x="212" y="85" type="curve"/>
      <point x="210" y="48"/>
      <point x="209" y="13"/>
      <point x="208" y="-27" type="curve" smooth="yes"/>
      <point x="208" y="-41"/>
      <point x="204" y="-56"/>
      <point x="198" y="-56" type="curve" smooth="yes"/>
      <point x="190" y="-56"/>
      <point x="177" y="-43"/>
      <point x="168" y="-32" type="curve" smooth="yes"/>
      <point x="150" y="-10"/>
      <point x="142" y="4"/>
      <point x="133" y="30" type="curve"/>
      <point x="150" y="56" type="line"/>
      <point x="134" y="68" type="line"/>
      <point x="91" y="4" type="line"/>
      <point x="103" y="-37"/>
      <point x="115" y="-69"/>
      <point x="133" y="-107" type="curve" smooth="yes"/>
      <point x="141" y="-124"/>
      <point x="167" y="-144"/>
      <point x="194" y="-158" type="curve"/>
      <point x="237" y="-90" type="line"/>
      <point x="238" y="-29"/>
      <point x="238" y="29"/>
      <point x="241" y="87" type="curve"/>
      <point x="299" y="94"/>
      <point x="345" y="104"/>
      <point x="382" y="115" type="curve"/>
      <point x="435" y="172" type="line"/>
      <point x="386" y="165"/>
      <point x="309" y="157"/>
      <point x="246" y="156" type="curve"/>
      <point x="257" y="297"/>
      <point x="274" y="422"/>
      <point x="295" y="524" type="curve"/>
      <point x="331" y="521"/>
      <point x="371" y="518"/>
      <point x="413" y="513" type="curve"/>
      <point x="388" y="450" type="line"/>
      <point x="410" y="449" type="line"/>
    </contour>
  </outline>
</glyph>
<glyph name="G" format="1">
  <advance width="377"/>
  <unicode hex="0047"/>
  <outline>
    <contour>
      <point x="370" y="579" type="curve" smooth="yes"/>
      <point x="370" y="566"/>
      <point x="360" y="529"/>
      <point x="349" y="496" type="curve"/>
      <point x="297" y="470" type="line"/>
      <point x="303" y="490"/>
      <point x="306" y="509"/>
      <point x="306" y="526" type="curve" smooth="yes"/>
      <point x="306" y="539"/>
      <point x="303" y="551"/>
      <point x="299" y="559" type="curve"/>
      <point x="263" y="525"/>
      <point x="205" y="415"/>
      <point x="163" y="311" type="curve" smooth="yes"/>
      <point x="129" y="228"/>
      <point x="105" y="149"/>
      <point x="105" y="117" type="curve" smooth="yes"/>
      <point x="105" y="96"/>
      <point x="113" y="87"/>
      <point x="129" y="87" type="curve" smooth="yes"/>
      <point x="179" y="87"/>
      <point x="262" y="214"/>
      <point x="290" y="285" type="curve"/>
      <point x="340" y="296" type="line"/>
      <point x="360" y="265" type="line"/>
      <point x="328" y="193"/>
      <point x="301" y="115"/>
      <point x="301" y="9" type="curve" smooth="yes"/>
      <point x="301" y="-31"/>
      <point x="292" y="-94"/>
      <point x="283" y="-141" type="curve" smooth="yes"/>
      <point x="270" y="-207" type="line"/>
      <point x="180" y="-207" type="line"/>
      <point x="149" y="-182"/>
      <point x="126" y="-161"/>
      <point x="126" y="-132" type="curve" smooth="yes"/>
      <point x="126" y="-105"/>
      <point x="148" y="-83"/>
      <point x="178" y="-68" type="curve"/>
      <point x="171" y="-105"/>
      <point x="205" y="-138"/>
      <point x="236" y="-138" type="curve" smooth="yes"/>
      <point x="261" y="-138"/>
      <point x="265" y="-109"/>
      <point x="265" y="-78" type="curve" smooth="yes"/>
      <point x="265" y="-50"/>
      <point x="264" y="-38"/>
      <point x="262" y="-24" type="curve" smooth="yes"/>
      <point x="260" y="-9"/>
      <point x="259" y="15"/>
      <point x="259" y="42" type="curve" smooth="yes"/>
      <point x="259" y="93"/>
      <point x="268" y="151"/>
      <point x="278" y="192" type="curve"/>
      <point x="278" y="192"/>
      <point x="228" y="129"/>
      <point x="195" y="90" type="curve" smooth="yes"/>
      <point x="162" y="51"/>
      <point x="109" y="-9"/>
      <point x="109" y="-9" type="curve"/>
      <point x="18" y="30" type="line"/>
      <point x="23" y="68"/>
      <point x="31" y="108"/>
      <point x="43" y="146" type="curve" smooth="yes"/>
      <point x="107" y="359"/>
      <point x="260" y="606"/>
      <point x="337" y="606" type="curve" smooth="yes"/>
      <point x="359" y="606"/>
      <point x="370" y="599"/>
    </contour>
  </outline>
</glyph>
<glyph name="H" format="1">
  <advance width="455"/>
  <unicode hex="0048"/>
  <outline>
    <contour>
      <point x="445" y="173" type="curve"/>
      <point x="392" y="119" type="line"/>
      <point x="382" y="29"/>
      <point x="377" y="-49"/>
      <point x="376" y="-114" type="curve"/>
      <point x="343" y="-128" type="line"/>
      <point x="342" y="-51"/>
      <point x="347" y="32"/>
      <point x="353" y="114" type="curve"/>
      <point x="300" y="119"/>
      <point x="229" y="124"/>
      <point x="156" y="124" type="curve"/>
      <point x="151" y="61"/>
      <point x="147" y="-9"/>
      <point x="144" y="-87" type="curve"/>
      <point x="116" y="-99" type="line"/>
      <point x="121" y="-20"/>
      <point x="127" y="54"/>
      <point x="132" y="124" type="curve"/>
      <point x="90" y="123"/>
      <point x="47" y="120"/>
      <point x="9" y="113" type="curve"/>
      <point x="51" y="178" type="line"/>
      <point x="73" y="182"/>
      <point x="103" y="186"/>
      <point x="136" y="188" type="curve"/>
      <point x="147" y="323"/>
      <point x="155" y="437"/>
      <point x="158" y="527" type="curve"/>
      <point x="104" y="552" type="line"/>
      <point x="173" y="609" type="line"/>
      <point x="223" y="579" type="line"/>
      <point x="197" y="485"/>
      <point x="175" y="368"/>
      <point x="160" y="189" type="curve"/>
      <point x="221" y="192"/>
      <point x="293" y="191"/>
      <point x="358" y="185" type="curve"/>
      <point x="368" y="307"/>
      <point x="380" y="427"/>
      <point x="388" y="511" type="curve"/>
      <point x="443" y="534" type="line"/>
      <point x="423" y="434"/>
      <point x="408" y="304"/>
      <point x="397" y="181" type="curve"/>
      <point x="413" y="178"/>
      <point x="430" y="176"/>
    </contour>
  </outline>
</glyph>
<glyph name="I" format="1">
  <advance width="160"/>
  <unicode hex="0049"/>
  <outline>
    <contour>
      <point x="170" y="579" type="line"/>
      <point x="143" y="444"/>
      <point x="103" y="162"/>
      <point x="103" y="-25" type="curve"/>
      <point x="55" y="-54" type="line"/>
      <point x="51" y="111"/>
      <point x="85" y="434"/>
      <point x="116" y="526" type="curve"/>
      <point x="98" y="539"/>
      <point x="80" y="549"/>
      <point x="60" y="554" type="curve"/>
      <point x="118" y="609" type="line"/>
    </contour>
  </outline>
</glyph>
<glyph name="J" format="1">
  <advance width="235"/>
  <unicode hex="004A"/>
  <outline>
    <contour>
      <point x="255" y="560" type="line"/>
      <point x="223" y="428"/>
      <point x="195" y="258"/>
      <point x="195" y="196" type="curve" smooth="yes"/>
      <point x="195" y="172"/>
      <point x="192" y="76"/>
      <point x="190" y="11" type="curve"/>
      <point x="153" y="-53"/>
      <point x="101" y="-142"/>
      <point x="72" y="-193" type="curve"/>
      <point x="30" y="-182"/>
      <point x="-12" y="-156"/>
      <point x="-12" y="-123" type="curve" smooth="yes"/>
      <point x="-12" y="-89"/>
      <point x="12" y="-52"/>
      <point x="26" y="-43" type="curve"/>
      <point x="34" y="-77"/>
      <point x="62" y="-119"/>
      <point x="83" y="-119" type="curve" smooth="yes"/>
      <point x="96" y="-119"/>
      <point x="111" y="-93"/>
      <point x="124" y="-64" type="curve" smooth="yes"/>
      <point x="149" y="-10"/>
      <point x="156" y="13"/>
      <point x="156" y="64" type="curve" smooth="yes"/>
      <point x="156" y="80"/>
      <point x="155" y="107"/>
      <point x="154" y="141" type="curve" smooth="yes"/>
      <point x="153" y="167"/>
      <point x="153" y="200"/>
      <point x="153" y="225" type="curve" smooth="yes"/>
      <point x="153" y="303"/>
      <point x="171" y="430"/>
      <point x="195" y="559" type="curve"/>
      <point x="83" y="510" type="line"/>
      <point x="87" y="546" type="line"/>
      <point x="204" y="609" type="line"/>
    </contour>
  </outline>
</glyph>
<glyph name="K" format="1">
  <advance width="407"/>
  <unicode hex="004B"/>
  <outline>
    <contour>
      <point x="430" y="547" type="curve"/>
      <point x="401" y="470" type="line"/>
      <point x="381" y="507"/>
      <point x="360" y="526"/>
      <point x="329" y="533" type="curve"/>
      <point x="268" y="451"/>
      <point x="165" y="303"/>
      <point x="126" y="244" type="curve"/>
      <point x="137" y="244"/>
      <point x="154" y="244"/>
      <point x="168" y="244" type="curve" smooth="yes"/>
      <point x="279" y="244"/>
      <point x="378" y="218"/>
      <point x="378" y="123" type="curve" smooth="yes"/>
      <point x="378" y="79"/>
      <point x="356" y="10"/>
      <point x="332" y="-45" type="curve"/>
      <point x="381" y="-35" type="line"/>
      <point x="372" y="-68" type="line"/>
      <point x="290" y="-88" type="line"/>
      <point x="313" y="-27"/>
      <point x="327" y="34"/>
      <point x="327" y="84" type="curve" smooth="yes"/>
      <point x="327" y="143"/>
      <point x="290" y="157"/>
      <point x="201" y="160" type="curve" smooth="yes"/>
      <point x="170" y="161"/>
      <point x="144" y="162"/>
      <point x="118" y="162" type="curve"/>
      <point x="102" y="48"/>
      <point x="87" y="-65"/>
      <point x="77" y="-133" type="curve"/>
      <point x="52" y="-131" type="line"/>
      <point x="61" y="-68"/>
      <point x="77" y="48"/>
      <point x="91" y="163" type="curve"/>
      <point x="73" y="163"/>
      <point x="58" y="163"/>
      <point x="38" y="163" type="curve"/>
      <point x="54" y="185"/>
      <point x="79" y="217"/>
      <point x="104" y="252" type="curve"/>
      <point x="115" y="350"/>
      <point x="125" y="440"/>
      <point x="130" y="491" type="curve"/>
      <point x="110" y="502"/>
      <point x="82" y="511"/>
      <point x="63" y="513" type="curve"/>
      <point x="116" y="577" type="line"/>
      <point x="133" y="576"/>
      <point x="159" y="570"/>
      <point x="172" y="565" type="curve"/>
      <point x="165" y="514"/>
      <point x="149" y="395"/>
      <point x="136" y="298" type="curve"/>
      <point x="200" y="396"/>
      <point x="285" y="520"/>
      <point x="350" y="604" type="curve"/>
      <point x="382" y="598"/>
      <point x="412" y="578"/>
    </contour>
  </outline>
</glyph>
<glyph name="L" format="1">
  <advance width="467"/>
  <unicode hex="004C"/>
  <outline>
    <contour>
      <point x="517" y="-59" type="line"/>
      <point x="436" y="-84" type="line"/>
      <point x="344" y="-61" type="line"/>
      <point x="297" y="-37"/>
      <point x="226" y="-3"/>
      <point x="185" y="13" type="curve"/>
      <point x="137" y="6" type="line"/>
      <point x="153" y="25" type="line"/>
      <point x="117" y="38"/>
      <point x="81" y="47"/>
      <point x="49" y="48" type="curve"/>
      <point x="65" y="11"/>
      <point x="96" y="-27"/>
      <point x="120" y="-45" type="curve"/>
      <point x="109" y="-57" type="line"/>
      <point x="41" y="-50"/>
      <point x="-6" y="-14"/>
      <point x="-9" y="45" type="curve"/>
      <point x="25" y="105" type="line"/>
      <point x="37" y="109"/>
      <point x="49" y="111"/>
      <point x="70" y="111" type="curve" smooth="yes"/>
      <point x="110" y="111"/>
      <point x="156" y="100"/>
      <point x="202" y="85" type="curve"/>
      <point x="317" y="234"/>
      <point x="399" y="409"/>
      <point x="434" y="600" type="curve"/>
      <point x="468" y="600" type="line"/>
      <point x="477" y="579"/>
      <point x="480" y="558"/>
      <point x="480" y="530" type="curve" smooth="yes"/>
      <point x="480" y="500"/>
      <point x="469" y="455"/>
      <point x="459" y="431" type="curve"/>
      <point x="429" y="446" type="line"/>
      <point x="403" y="330"/>
      <point x="310" y="171"/>
      <point x="227" y="76" type="curve"/>
      <point x="292" y="51"/>
      <point x="359" y="16"/>
      <point x="398" y="-6" type="curve" smooth="yes"/>
      <point x="433" y="-26"/>
      <point x="477" y="-47"/>
      <point x="517" y="-50" type="curve"/>
    </contour>
  </outline>
</glyph>
<glyph name="M" format="1">
  <advance width="715"/>
  <unicode hex="004D"/>
  <outline>
    <contour>
      <point x="345" y="544" type="curve"/>
      <point x="288" y="541" type="line"/>
      <point x="257" y="551"/>
      <point x="229" y="555"/>
      <point x="196" y="555" type="curve" smooth="yes"/>
      <point x="184" y="555"/>
      <point x="173" y="552"/>
      <point x="167" y="548" type="curve"/>
      <point x="196" y="522" type="line"/>
      <point x="184" y="508" type="line" smooth="yes"/>
      <point x="176" y="499"/>
      <point x="167" y="490"/>
      <point x="156" y="490" type="curve" smooth="yes"/>
      <point x="142" y="490"/>
      <point x="126" y="501"/>
      <point x="126" y="516" type="curve" smooth="yes"/>
      <point x="126" y="528"/>
      <point x="128" y="533"/>
      <point x="136" y="551" type="curve" smooth="yes"/>
      <point x="157" y="598" type="line"/>
      <point x="164" y="599"/>
      <point x="173" y="600"/>
      <point x="182" y="600" type="curve" smooth="yes"/>
      <point x="242" y="600"/>
      <point x="314" y="570"/>
    </contour>
    <contour>
      <point x="705" y="591" type="line"/>
      <point x="699" y="371"/>
      <point x="671" y="115"/>
      <point x="643" y="-48" type="curve"/>
      <point x="592" y="-78" type="line"/>
      <point x="599" y="-1"/>
      <point x="608" y="103"/>
      <point x="619" y="206" type="curve" smooth="yes"/>
      <point x="629" y="303"/>
      <point x="636" y="399"/>
      <point x="638" y="470" type="curve"/>
      <point x="557" y="325"/>
      <point x="461" y="136"/>
      <point x="400" y="-21" type="curve"/>
      <point x="350" y="-45" type="line"/>
      <point x="364" y="80"/>
      <point x="363" y="341"/>
      <point x="361" y="451" type="curve"/>
      <point x="273" y="312"/>
      <point x="162" y="84"/>
      <point x="100" y="-74" type="curve"/>
      <point x="31" y="-104" type="line"/>
      <point x="-22" y="21" type="line"/>
      <point x="35" y="6" type="line"/>
      <point x="77" y="-38" type="line"/>
      <point x="129" y="65"/>
      <point x="175" y="156"/>
      <point x="219" y="246" type="curve" smooth="yes"/>
      <point x="264" y="338"/>
      <point x="309" y="429"/>
      <point x="362" y="533" type="curve"/>
      <point x="415" y="567" type="line"/>
      <point x="417" y="425"/>
      <point x="418" y="221"/>
      <point x="413" y="88" type="curve"/>
      <point x="483" y="220"/>
      <point x="590" y="436"/>
      <point x="647" y="564" type="curve"/>
    </contour>
  </outline>
</glyph>
<glyph name="N" format="1">
  <advance width="523"/>
  <unicode hex="004E"/>
  <outline>
    <contour>
      <point x="264" y="542" type="curve"/>
      <point x="216" y="539" type="line"/>
      <point x="192" y="545"/>
      <point x="169" y="548"/>
      <point x="138" y="548" type="curve" smooth="yes"/>
      <point x="112" y="548"/>
      <point x="96" y="545"/>
      <point x="79" y="538" type="curve"/>
      <point x="106" y="517" type="line"/>
      <point x="94" y="503" type="line" smooth="yes"/>
      <point x="86" y="494"/>
      <point x="77" y="485"/>
      <point x="66" y="485" type="curve" smooth="yes"/>
      <point x="52" y="485"/>
      <point x="40" y="496"/>
      <point x="40" y="511" type="curve" smooth="yes"/>
      <point x="40" y="523"/>
      <point x="42" y="534"/>
      <point x="46" y="546" type="curve" smooth="yes"/>
      <point x="59" y="585" type="line"/>
      <point x="69" y="590"/>
      <point x="84" y="594"/>
      <point x="98" y="594" type="curve" smooth="yes"/>
      <point x="149" y="594"/>
      <point x="233" y="564"/>
    </contour>
    <contour>
      <point x="573" y="467" type="line"/>
      <point x="515" y="440" type="line"/>
      <point x="457" y="74" type="line" smooth="yes"/>
      <point x="451" y="39"/>
      <point x="448" y="8"/>
      <point x="448" y="-11" type="curve" smooth="yes"/>
      <point x="448" y="-27"/>
      <point x="449" y="-41"/>
      <point x="452" y="-54" type="curve"/>
      <point x="410" y="-86" type="line"/>
      <point x="410" y="-86"/>
      <point x="364" y="77"/>
      <point x="335" y="181" type="curve" smooth="yes"/>
      <point x="310" y="273"/>
      <point x="294" y="330"/>
      <point x="271" y="417" type="curve" smooth="yes"/>
      <point x="268" y="427"/>
      <point x="266" y="440"/>
      <point x="258" y="440" type="curve" smooth="yes"/>
      <point x="252" y="440"/>
      <point x="249" y="428"/>
      <point x="247" y="419" type="curve" smooth="yes"/>
      <point x="223" y="328"/>
      <point x="203" y="261"/>
      <point x="170" y="162" type="curve" smooth="yes"/>
      <point x="127" y="32"/>
      <point x="101" y="-42"/>
      <point x="53" y="-168" type="curve"/>
      <point x="30" y="-152"/>
      <point x="-1" y="-112"/>
      <point x="-12" y="-85" type="curve"/>
      <point x="20" y="-14" type="line"/>
      <point x="28" y="-28"/>
      <point x="40" y="-42"/>
      <point x="54" y="-42" type="curve" smooth="yes"/>
      <point x="74" y="-42"/>
      <point x="86" y="-14"/>
      <point x="178" y="268" type="curve" smooth="yes"/>
      <point x="212" y="372"/>
      <point x="223" y="415"/>
      <point x="240" y="501" type="curve"/>
      <point x="292" y="528" type="line"/>
      <point x="414" y="75" type="line" smooth="yes"/>
      <point x="416" y="67"/>
      <point x="419" y="60"/>
      <point x="425" y="60" type="curve" smooth="yes"/>
      <point x="430" y="60"/>
      <point x="432" y="66"/>
      <point x="433" y="75" type="curve" smooth="yes"/>
      <point x="497" y="572" type="line" smooth="yes"/>
      <point x="500" y="595"/>
      <point x="508" y="606"/>
      <point x="524" y="606" type="curve" smooth="yes"/>
      <point x="537" y="606"/>
      <point x="545" y="598"/>
      <point x="548" y="582" type="curve" smooth="yes"/>
    </contour>
  </outline>
</glyph>
<glyph name="O" format="1">
  <advance width="523"/>
  <unicode hex="004F"/>
  <outline>
    <contour>
      <point x="543" y="448" type="curve"/>
      <point x="486" y="424" type="line"/>
      <point x="497" y="385"/>
      <point x="503" y="360"/>
      <point x="503" y="321" type="curve" smooth="yes"/>
      <point x="503" y="163"/>
      <point x="422" y="-76"/>
      <point x="241" y="-76" type="curve" smooth="yes"/>
      <point x="111" y="-76"/>
      <point x="44" y="55"/>
      <point x="44" y="199" type="curve" smooth="yes"/>
      <point x="44" y="377"/>
      <point x="156" y="546"/>
      <point x="343" y="597" type="curve"/>
      <point x="347" y="577" type="line"/>
      <point x="181" y="532"/>
      <point x="94" y="374"/>
      <point x="94" y="225" type="curve" smooth="yes"/>
      <point x="94" y="98"/>
      <point x="142" y="-15"/>
      <point x="316" y="-15" type="curve" smooth="yes"/>
      <point x="330" y="-15"/>
      <point x="343" y="-14"/>
      <point x="359" y="-12" type="curve"/>
      <point x="416" y="81"/>
      <point x="451" y="181"/>
      <point x="451" y="297" type="curve" smooth="yes"/>
      <point x="451" y="341"/>
      <point x="447" y="376"/>
      <point x="434" y="415" type="curve"/>
      <point x="416" y="422"/>
      <point x="398" y="433"/>
      <point x="382" y="445" type="curve"/>
      <point x="382" y="478" type="line"/>
      <point x="451" y="507" type="line"/>
      <point x="457" y="477"/>
      <point x="510" y="448"/>
    </contour>
  </outline>
</glyph>
<glyph name="P" format="1">
  <advance width="355"/>
  <unicode hex="0050"/>
  <outline>
    <contour>
      <point x="385" y="448" type="curve" smooth="yes"/>
      <point x="385" y="349"/>
      <point x="284" y="273"/>
      <point x="203" y="222" type="curve"/>
      <point x="157" y="222" type="line"/>
      <point x="238" y="282"/>
      <point x="315" y="359"/>
      <point x="315" y="434" type="curve" smooth="yes"/>
      <point x="315" y="497"/>
      <point x="263" y="513"/>
      <point x="181" y="515" type="curve"/>
      <point x="103" y="-73" type="line"/>
      <point x="78" y="-81" type="line"/>
      <point x="154" y="518" type="line"/>
      <point x="77" y="499" type="line"/>
      <point x="96" y="446" type="line"/>
      <point x="74" y="436" type="line"/>
      <point x="44" y="511" type="line"/>
      <point x="91" y="574" type="line"/>
      <point x="109" y="577"/>
      <point x="130" y="579"/>
      <point x="162" y="579" type="curve" smooth="yes"/>
      <point x="304" y="579"/>
      <point x="385" y="551"/>
    </contour>
  </outline>
</glyph>
<glyph name="Q" format="1">
  <advance width="523"/>
  <unicode hex="0051"/>
  <outline>
    <contour>
      <point x="541" y="447" type="line"/>
      <point x="488" y="425" type="line"/>
      <point x="499" y="386"/>
      <point x="507" y="337"/>
      <point x="507" y="298" type="curve" smooth="yes"/>
      <point x="507" y="169"/>
      <point x="429" y="-76"/>
      <point x="248" y="-76" type="curve" smooth="yes"/>
      <point x="202" y="-76"/>
      <point x="153" y="-56"/>
      <point x="119" y="-21" type="curve" smooth="yes"/>
      <point x="73" y="27"/>
      <point x="44" y="83"/>
      <point x="44" y="199" type="curve" smooth="yes"/>
      <point x="44" y="367"/>
      <point x="149" y="546"/>
      <point x="342" y="596" type="curve"/>
      <point x="346" y="576" type="line"/>
      <point x="171" y="529"/>
      <point x="94" y="369"/>
      <point x="94" y="225" type="curve" smooth="yes"/>
      <point x="94" y="158"/>
      <point x="110" y="72"/>
      <point x="164" y="26" type="curve" smooth="yes"/>
      <point x="197" y="-3"/>
      <point x="245" y="-19"/>
      <point x="311" y="-19" type="curve" smooth="yes"/>
      <point x="329" y="-19"/>
      <point x="350" y="-18"/>
      <point x="369" y="-13" type="curve"/>
      <point x="417" y="74"/>
      <point x="455" y="181"/>
      <point x="455" y="297" type="curve" smooth="yes"/>
      <point x="455" y="352"/>
      <point x="450" y="378"/>
      <point x="437" y="417" type="curve"/>
      <point x="419" y="424"/>
      <point x="401" y="434"/>
      <point x="385" y="446" type="curve"/>
      <point x="385" y="478" type="line"/>
      <point x="451" y="507" type="line"/>
      <point x="468" y="469"/>
      <point x="507" y="451"/>
      <point x="539" y="453" type="curve"/>
    </contour>
    <contour>
      <point x="378" y="-195" type="line"/>
      <point x="269" y="-155"/>
      <point x="201" y="-143"/>
      <point x="127" y="-143" type="curve" smooth="yes"/>
      <point x="104" y="-143"/>
      <point x="90" y="-143"/>
      <point x="67" y="-145" type="curve"/>
      <point x="39" y="-119" type="line"/>
      <point x="80" y="-84" type="line"/>
      <point x="99" y="-84"/>
      <point x="107" y="-84"/>
      <point x="128" y="-84" type="curve" smooth="yes"/>
      <point x="194" y="-84"/>
      <point x="286" y="-117"/>
      <point x="373" y="-164" type="curve"/>
    </contour>
  </outline>
</glyph>
<glyph name="R" format="1">
  <advance width="360"/>
  <unicode hex="0052"/>
  <outline>
    <contour>
      <point x="342" y="81" type="curve" smooth="yes"/>
      <point x="342" y="19"/>
      <point x="303" y="-73"/>
      <point x="285" y="-109" type="curve"/>
      <point x="327" y="-100" type="line"/>
      <point x="323" y="-124" type="line"/>
      <point x="245" y="-153" type="line"/>
      <point x="270" y="-90"/>
      <point x="292" y="-22"/>
      <point x="292" y="39" type="curve" smooth="yes"/>
      <point x="292" y="95"/>
      <point x="269" y="135"/>
      <point x="177" y="135" type="curve" smooth="yes"/>
      <point x="161" y="135"/>
      <point x="140" y="135"/>
      <point x="119" y="135" type="curve"/>
      <point x="96" y="-34" type="line"/>
      <point x="71" y="-39" type="line"/>
      <point x="94" y="135" type="line"/>
      <point x="48" y="135" type="line"/>
      <point x="103" y="192" type="line"/>
      <point x="149" y="538" type="line"/>
      <point x="70" y="515" type="line"/>
      <point x="92" y="454" type="line"/>
      <point x="70" y="446" type="line"/>
      <point x="41" y="522" type="line"/>
      <point x="92" y="586" type="line"/>
      <point x="116" y="591"/>
      <point x="141" y="594"/>
      <point x="179" y="594" type="curve" smooth="yes"/>
      <point x="288" y="594"/>
      <point x="336" y="553"/>
      <point x="336" y="486" type="curve" smooth="yes"/>
      <point x="336" y="404"/>
      <point x="225" y="292"/>
      <point x="134" y="202" type="curve"/>
      <point x="134" y="202"/>
      <point x="164" y="202"/>
      <point x="176" y="202" type="curve" smooth="yes"/>
      <point x="265" y="202"/>
      <point x="342" y="160"/>
    </contour>
    <contour>
      <point x="267" y="454" type="curve" smooth="yes"/>
      <point x="267" y="503"/>
      <point x="239" y="536"/>
      <point x="174" y="536" type="curve"/>
      <point x="133" y="236" type="line"/>
      <point x="208" y="321"/>
      <point x="267" y="388"/>
    </contour>
  </outline>
</glyph>
<glyph name="S" format="1">
  <advance width="322"/>
  <unicode hex="0053"/>
  <outline>
    <contour>
      <point x="314" y="525" type="curve" smooth="yes"/>
      <point x="314" y="507"/>
      <point x="309" y="485"/>
      <point x="302" y="463" type="curve"/>
      <point x="267" y="442" type="line"/>
      <point x="275" y="486"/>
      <point x="254" y="548"/>
      <point x="208" y="548" type="curve" smooth="yes"/>
      <point x="206" y="548"/>
      <point x="203" y="547"/>
      <point x="201" y="546" type="curve"/>
      <point x="187" y="524"/>
      <point x="160" y="458"/>
      <point x="160" y="397" type="curve" smooth="yes"/>
      <point x="160" y="364"/>
      <point x="166" y="347"/>
      <point x="180" y="318" type="curve" smooth="yes"/>
      <point x="276" y="127" type="line" smooth="yes"/>
      <point x="289" y="102"/>
      <point x="296" y="83"/>
      <point x="296" y="54" type="curve" smooth="yes"/>
      <point x="296" y="24"/>
      <point x="287" y="-3"/>
      <point x="273" y="-20" type="curve" smooth="yes"/>
      <point x="190" y="-126" type="line"/>
      <point x="102" y="-96" type="line" smooth="yes"/>
      <point x="70" y="-85"/>
      <point x="9" y="-47"/>
      <point x="9" y="12" type="curve" smooth="yes"/>
      <point x="9" y="58"/>
      <point x="25" y="99"/>
      <point x="40" y="128" type="curve"/>
      <point x="76" y="140" type="line"/>
      <point x="57" y="109"/>
      <point x="47" y="71"/>
      <point x="47" y="45" type="curve" smooth="yes"/>
      <point x="47" y="8"/>
      <point x="66" y="-2"/>
      <point x="96" y="-11" type="curve" smooth="yes"/>
      <point x="222" y="-51" type="line"/>
      <point x="238" y="-27"/>
      <point x="251" y="1"/>
      <point x="251" y="30" type="curve" smooth="yes"/>
      <point x="251" y="55"/>
      <point x="247" y="70"/>
      <point x="236" y="92" type="curve" smooth="yes"/>
      <point x="136" y="294" type="line" smooth="yes"/>
      <point x="121" y="325"/>
      <point x="114" y="344"/>
      <point x="114" y="378" type="curve" smooth="yes"/>
      <point x="114" y="444"/>
      <point x="147" y="504"/>
      <point x="180" y="560" type="curve"/>
      <point x="259" y="592" type="line"/>
      <point x="299" y="582"/>
      <point x="314" y="550"/>
    </contour>
  </outline>
</glyph>
<glyph name="T" format="1">
  <advance width="475"/>
  <unicode hex="0054"/>
  <outline>
    <contour>
      <point x="505" y="497" type="line"/>
      <point x="428" y="510"/>
      <point x="330" y="519"/>
      <point x="236" y="522" type="curve"/>
      <point x="190" y="399"/>
      <point x="177" y="326"/>
      <point x="177" y="227" type="curve" smooth="yes"/>
      <point x="177" y="98"/>
      <point x="224" y="31"/>
      <point x="312" y="31" type="curve" smooth="yes"/>
      <point x="356" y="31"/>
      <point x="408" y="44"/>
      <point x="460" y="72" type="curve"/>
      <point x="469" y="56" type="line"/>
      <point x="401" y="7"/>
      <point x="339" y="-22"/>
      <point x="266" y="-22" type="curve" smooth="yes"/>
      <point x="170" y="-22"/>
      <point x="121" y="47"/>
      <point x="121" y="168" type="curve" smooth="yes"/>
      <point x="121" y="306"/>
      <point x="178" y="444"/>
      <point x="214" y="525" type="curve"/>
      <point x="59" y="518" type="line"/>
      <point x="89" y="420" type="line"/>
      <point x="62" y="429" type="line"/>
      <point x="34" y="514" type="line"/>
      <point x="46" y="568" type="line"/>
      <point x="108" y="574"/>
      <point x="175" y="577"/>
      <point x="233" y="577" type="curve"/>
      <point x="242" y="591" type="line"/>
      <point x="322" y="578"/>
      <point x="430" y="565"/>
      <point x="487" y="560" type="curve"/>
    </contour>
  </outline>
</glyph>
<glyph name="U" format="1">
  <advance width="514"/>
  <unicode hex="0055"/>
  <outline>
    <contour>
      <point x="524" y="592" type="line"/>
      <point x="487" y="406"/>
      <point x="458" y="174"/>
      <point x="456" y="3" type="curve"/>
      <point x="397" y="-34" type="line"/>
      <point x="407" y="106"/>
      <point x="415" y="190"/>
      <point x="427" y="293" type="curve" smooth="yes"/>
      <point x="428" y="305"/>
      <point x="428" y="315"/>
      <point x="423" y="315" type="curve" smooth="yes"/>
      <point x="419" y="315"/>
      <point x="414" y="307"/>
      <point x="409" y="300" type="curve" smooth="yes"/>
      <point x="329" y="183"/>
      <point x="263" y="77"/>
      <point x="116" y="-18" type="curve"/>
      <point x="38" y="39" type="line"/>
      <point x="53" y="152"/>
      <point x="78" y="225"/>
      <point x="119" y="339" type="curve" smooth="yes"/>
      <point x="148" y="419"/>
      <point x="167" y="465"/>
      <point x="204" y="540" type="curve"/>
      <point x="71" y="485" type="line"/>
      <point x="62" y="508" type="line"/>
      <point x="232" y="579" type="line"/>
      <point x="257" y="561" type="line"/>
      <point x="213" y="472"/>
      <point x="190" y="423"/>
      <point x="158" y="330" type="curve" smooth="yes"/>
      <point x="133" y="256"/>
      <point x="109" y="179"/>
      <point x="109" y="133" type="curve" smooth="yes"/>
      <point x="109" y="92"/>
      <point x="124" y="81"/>
      <point x="146" y="81" type="curve" smooth="yes"/>
      <point x="194" y="81"/>
      <point x="259" y="138"/>
      <point x="308" y="204" type="curve" smooth="yes"/>
      <point x="392" y="316"/>
      <point x="452" y="420"/>
      <point x="485" y="576" type="curve"/>
    </contour>
  </outline>
</glyph>
<glyph name="V" format="1">
  <advance width="446"/>
  <unicode hex="0056"/>
  <outline>
    <contour>
      <point x="455" y="270" type="curve"/>
      <point x="437" y="269"/>
      <point x="407" y="272"/>
      <point x="392" y="277" type="curve"/>
      <point x="328" y="158"/>
      <point x="288" y="76"/>
      <point x="230" y="-57" type="curve"/>
      <point x="182" y="-77" type="line"/>
      <point x="182" y="-75"/>
      <point x="81" y="528"/>
      <point x="81" y="528" type="curve"/>
      <point x="33" y="509" type="line"/>
      <point x="28" y="533" type="line"/>
      <point x="142" y="587" type="line"/>
      <point x="147" y="427"/>
      <point x="181" y="206"/>
      <point x="221" y="38" type="curve" smooth="yes"/>
      <point x="222" y="32"/>
      <point x="226" y="24"/>
      <point x="231" y="24" type="curve" smooth="yes"/>
      <point x="237" y="24"/>
      <point x="239" y="30"/>
      <point x="243" y="38" type="curve" smooth="yes"/>
      <point x="294" y="143"/>
      <point x="329" y="225"/>
      <point x="364" y="329" type="curve"/>
      <point x="357" y="357"/>
      <point x="354" y="374"/>
      <point x="354" y="403" type="curve" smooth="yes"/>
      <point x="354" y="435"/>
      <point x="360" y="473"/>
      <point x="372" y="511" type="curve"/>
      <point x="451" y="539" type="line"/>
      <point x="454" y="526"/>
      <point x="455" y="509"/>
      <point x="455" y="481" type="curve" smooth="yes"/>
      <point x="455" y="447"/>
      <point x="438" y="391"/>
      <point x="416" y="348" type="curve"/>
      <point x="421" y="327"/>
      <point x="438" y="291"/>
    </contour>
  </outline>
</glyph>
<glyph name="W" format="1">
  <advance width="718"/>
  <unicode hex="0057"/>
  <outline>
    <contour>
      <point x="743" y="294" type="curve"/>
      <point x="727" y="294"/>
      <point x="701" y="294"/>
      <point x="683" y="300" type="curve"/>
      <point x="650" y="234"/>
      <point x="565" y="43"/>
      <point x="537" y="-28" type="curve"/>
      <point x="478" y="-56" type="line"/>
      <point x="445" y="119"/>
      <point x="424" y="216"/>
      <point x="408" y="293" type="curve" smooth="yes"/>
      <point x="405" y="306"/>
      <point x="403" y="316"/>
      <point x="399" y="316" type="curve" smooth="yes"/>
      <point x="395" y="316"/>
      <point x="392" y="309"/>
      <point x="386" y="294" type="curve" smooth="yes"/>
      <point x="340" y="187"/>
      <point x="273" y="16"/>
      <point x="250" y="-54" type="curve"/>
      <point x="198" y="-76" type="line"/>
      <point x="81" y="529" type="line"/>
      <point x="26" y="508" type="line"/>
      <point x="25" y="528" type="line"/>
      <point x="141" y="589" type="line"/>
      <point x="152" y="423"/>
      <point x="199" y="164"/>
      <point x="231" y="49" type="curve" smooth="yes"/>
      <point x="234" y="39"/>
      <point x="237" y="33"/>
      <point x="242" y="33" type="curve" smooth="yes"/>
      <point x="250" y="33"/>
      <point x="253" y="40"/>
      <point x="256" y="47" type="curve" smooth="yes"/>
      <point x="308" y="173"/>
      <point x="357" y="305"/>
      <point x="387" y="413" type="curve"/>
      <point x="440" y="454" type="line"/>
      <point x="452" y="306"/>
      <point x="487" y="160"/>
      <point x="519" y="52" type="curve" smooth="yes"/>
      <point x="521" y="46"/>
      <point x="524" y="43"/>
      <point x="528" y="43" type="curve" smooth="yes"/>
      <point x="534" y="43"/>
      <point x="538" y="49"/>
      <point x="542" y="57" type="curve" smooth="yes"/>
      <point x="590" y="160"/>
      <point x="622" y="247"/>
      <point x="655" y="353" type="curve"/>
      <point x="648" y="381"/>
      <point x="643" y="404"/>
      <point x="643" y="442" type="curve" smooth="yes"/>
      <point x="643" y="474"/>
      <point x="644" y="496"/>
      <point x="651" y="529" type="curve"/>
      <point x="732" y="563" type="line"/>
      <point x="735" y="549"/>
      <point x="737" y="531"/>
      <point x="737" y="506" type="curve" smooth="yes"/>
      <point x="737" y="472"/>
      <point x="726" y="409"/>
      <point x="707" y="364" type="curve"/>
      <point x="715" y="343"/>
      <point x="729" y="315"/>
    </contour>
  </outline>
</glyph>
<glyph name="X" format="1">
  <advance width="441"/>
  <unicode hex="0058"/>
  <outline>
    <contour>
      <point x="434" y="528" type="line"/>
      <point x="389" y="451"/>
      <point x="343" y="378"/>
      <point x="291" y="302" type="curve"/>
      <point x="343" y="205"/>
      <point x="387" y="112"/>
      <point x="413" y="30" type="curve"/>
      <point x="405" y="-78" type="line"/>
      <point x="398" y="-81" type="line"/>
      <point x="358" y="22"/>
      <point x="305" y="133"/>
      <point x="247" y="242" type="curve"/>
      <point x="184" y="155"/>
      <point x="113" y="66"/>
      <point x="26" y="-31" type="curve"/>
      <point x="0" y="-10" type="line"/>
      <point x="80" y="70"/>
      <point x="162" y="170"/>
      <point x="233" y="269" type="curve"/>
      <point x="180" y="367"/>
      <point x="123" y="463"/>
      <point x="66" y="551" type="curve"/>
      <point x="125" y="588" type="line"/>
      <point x="176" y="502"/>
      <point x="229" y="415"/>
      <point x="276" y="329" type="curve"/>
      <point x="344" y="428"/>
      <point x="400" y="521"/>
      <point x="432" y="583" type="curve"/>
    </contour>
  </outline>
</glyph>
<glyph name="Y" format="1">
  <advance width="646"/>
  <unicode hex="0059"/>
  <outline>
    <contour>
      <point x="385" y="106" type="line"/>
      <point x="312" y="247"/>
      <point x="200" y="402"/>
      <point x="93" y="488" type="curve"/>
      <point x="72" y="476"/>
      <point x="50" y="469"/>
      <point x="26" y="469" type="curve"/>
      <point x="46" y="507"/>
      <point x="76" y="546"/>
      <point x="116" y="573" type="curve"/>
      <point x="256" y="454"/>
      <point x="337" y="293"/>
      <point x="385" y="166" type="curve"/>
    </contour>
    <contour>
      <point x="696" y="594" type="line"/>
      <point x="667" y="278"/>
      <point x="510" y="129"/>
      <point x="292" y="-91" type="curve" smooth="yes"/>
      <point x="253" y="-130"/>
      <point x="222" y="-167"/>
      <point x="197" y="-202" type="curve"/>
      <point x="276" y="-203"/>
      <point x="370" y="-233"/>
      <point x="455" y="-261" type="curve"/>
      <point x="454" y="-267" type="line"/>
      <point x="354" y="-280" type="line"/>
      <point x="155" y="-270" type="line"/>
      <point x="125" y="-311" type="line"/>
      <point x="111" y="-300"/>
      <point x="104" y="-288"/>
      <point x="104" y="-272" type="curve" smooth="yes"/>
      <point x="104" y="-239"/>
      <point x="141" y="-212"/>
      <point x="175" y="-204" type="curve"/>
      <point x="200" y="-168"/>
      <point x="237" y="-124"/>
      <point x="279" y="-80" type="curve" smooth="yes"/>
      <point x="480" y="129"/>
      <point x="607" y="283"/>
      <point x="634" y="570" type="curve"/>
    </contour>
  </outline>
</glyph>
<glyph name="Z" format="1">
  <advance width="433"/>
  <unicode hex="005A"/>
  <outline>
    <contour>
      <point x="473" y="-97" type="curve" smooth="yes"/>
      <point x="473" y="-152"/>
      <point x="446" y="-191"/>
      <point x="398" y="-191" type="curve" smooth="yes"/>
      <point x="358" y="-191"/>
      <point x="334" y="-173"/>
      <point x="297" y="-149" type="curve" smooth="yes"/>
      <point x="229" y="-104"/>
      <point x="128" y="-33"/>
      <point x="128" y="-33" type="curve"/>
      <point x="109" y="-36"/>
      <point x="104" y="-36"/>
      <point x="89" y="-36" type="curve" smooth="yes"/>
      <point x="53" y="-36"/>
      <point x="12" y="-16"/>
      <point x="12" y="19" type="curve" smooth="yes"/>
      <point x="12" y="47"/>
      <point x="27" y="69"/>
      <point x="50" y="84" type="curve"/>
      <point x="95" y="52"/>
      <point x="125" y="31"/>
      <point x="167" y="7" type="curve"/>
      <point x="189" y="29"/>
      <point x="211" y="66"/>
      <point x="235" y="116" type="curve" smooth="yes"/>
      <point x="246" y="139"/>
      <point x="258" y="163"/>
      <point x="269" y="186" type="curve"/>
      <point x="215" y="182"/>
      <point x="147" y="177"/>
      <point x="97" y="174" type="curve" smooth="yes"/>
      <point x="74" y="172"/>
      <point x="59" y="175"/>
      <point x="59" y="189" type="curve" smooth="yes"/>
      <point x="59" y="201"/>
      <point x="69" y="216"/>
      <point x="92" y="231" type="curve"/>
      <point x="288" y="223" type="line"/>
      <point x="339" y="325"/>
      <point x="389" y="420"/>
      <point x="409" y="458" type="curve"/>
      <point x="319" y="474"/>
      <point x="264" y="486"/>
      <point x="172" y="506" type="curve"/>
      <point x="179" y="426" type="line"/>
      <point x="155" y="427" type="line"/>
      <point x="123" y="544" type="line"/>
      <point x="179" y="582" type="line"/>
      <point x="268" y="556"/>
      <point x="352" y="537"/>
      <point x="465" y="518" type="curve"/>
      <point x="407" y="406"/>
      <point x="364" y="318"/>
      <point x="319" y="222" type="curve"/>
      <point x="422" y="218" type="line"/>
      <point x="421" y="212" type="line"/>
      <point x="366" y="192" type="line"/>
      <point x="366" y="192"/>
      <point x="340" y="190"/>
      <point x="303" y="188" type="curve"/>
      <point x="287" y="154"/>
      <point x="271" y="119"/>
      <point x="254" y="81" type="curve" smooth="yes"/>
      <point x="236" y="40"/>
      <point x="209" y="12"/>
      <point x="187" y="-5" type="curve"/>
      <point x="271" y="-56"/>
      <point x="333" y="-90"/>
      <point x="431" y="-137" type="curve"/>
      <point x="431" y="-73" type="line"/>
      <point x="467" y="-34" type="line"/>
      <point x="472" y="-55"/>
      <point x="473" y="-72"/>
    </contour>
  </outline>
</glyph>
<glyph name="bracketleft" format="1">
  <advance width="146"/>
  <unicode hex="005B"/>
  <outline>
    <contour>
      <point x="139" y="31" type="line"/>
      <point x="134" y="13" type="line"/>
      <point x="35" y="24" type="line"/>
      <point x="35" y="397" type="line"/>
      <point x="133" y="417" type="line"/>
      <point x="136" y="400" type="line"/>
      <point x="68" y="387" type="line"/>
      <point x="68" y="38" type="line"/>
    </contour>
  </outline>
</glyph>
<glyph name="backslash" format="1">
  <advance width="177"/>
  <unicode hex="005C"/>
  <outline>
    <contour>
      <point x="168" y="-18" type="line"/>
      <point x="134" y="-9" type="line"/>
      <point x="-110" y="560" type="line"/>
      <point x="-52" y="544" type="line"/>
      <point x="-41" y="506"/>
      <point x="-12" y="422"/>
      <point x="13" y="360" type="curve" smooth="yes"/>
    </contour>
  </outline>
</glyph>
<glyph name="grave" format="1">
  <advance width="220"/>
  <unicode hex="0060"/>
  <outline>
    <contour>
      <point x="158" y="303" type="line"/>
      <point x="91" y="329" type="line" smooth="yes"/>
      <point x="76" y="335"/>
      <point x="69" y="344"/>
      <point x="69" y="359" type="curve" smooth="yes"/>
      <point x="69" y="370"/>
      <point x="73" y="380"/>
      <point x="82" y="388" type="curve"/>
      <point x="158" y="321" type="line"/>
    </contour>
  </outline>
</glyph>
<glyph name="a" format="1">
  <advance width="224"/>
  <unicode hex="0061"/>
  <outline>
    <contour>
      <point x="225" y="94" type="line"/>
      <point x="183" y="5" type="line"/>
      <point x="146" y="19"/>
      <point x="132" y="40"/>
      <point x="127" y="79" type="curve"/>
      <point x="112" y="37"/>
      <point x="81" y="-1"/>
      <point x="48" y="-1" type="curve" smooth="yes"/>
      <point x="28" y="-1"/>
      <point x="15" y="18"/>
      <point x="15" y="45" type="curve" smooth="yes"/>
      <point x="15" y="105"/>
      <point x="62" y="199"/>
      <point x="138" y="261" type="curve"/>
      <point x="175" y="249" type="line"/>
      <point x="169" y="217"/>
      <point x="167" y="187"/>
      <point x="167" y="161" type="curve" smooth="yes"/>
      <point x="167" y="111"/>
      <point x="171" y="84"/>
      <point x="179" y="68" type="curve"/>
      <point x="207" y="103" type="line"/>
    </contour>
    <contour>
      <point x="131" y="220" type="curve"/>
      <point x="85" y="176"/>
      <point x="49" y="127"/>
      <point x="49" y="87" type="curve" smooth="yes"/>
      <point x="49" y="67"/>
      <point x="56" y="57"/>
      <point x="71" y="57" type="curve" smooth="yes"/>
      <point x="96" y="57"/>
      <point x="115" y="92"/>
      <point x="125" y="125" type="curve"/>
      <point x="125" y="152"/>
      <point x="126" y="185"/>
    </contour>
  </outline>
</glyph>
<glyph name="b" format="1">
  <advance width="215"/>
  <unicode hex="0062"/>
  <outline>
    <contour>
      <point x="200" y="178" type="curve" smooth="yes"/>
      <point x="200" y="114"/>
      <point x="164" y="3"/>
      <point x="70" y="3" type="curve" smooth="yes"/>
      <point x="53" y="3"/>
      <point x="44" y="4"/>
      <point x="34" y="7" type="curve"/>
      <point x="34" y="22"/>
      <point x="34" y="41"/>
      <point x="34" y="56" type="curve" smooth="yes"/>
      <point x="34" y="247"/>
      <point x="60" y="411"/>
      <point x="140" y="556" type="curve"/>
      <point x="175" y="563" type="line"/>
      <point x="109" y="446"/>
      <point x="87" y="349"/>
      <point x="78" y="196" type="curve"/>
      <point x="161" y="272" type="line"/>
      <point x="190" y="245"/>
      <point x="200" y="212"/>
    </contour>
    <contour>
      <point x="162" y="138" type="curve" smooth="yes"/>
      <point x="162" y="167"/>
      <point x="155" y="191"/>
      <point x="137" y="218" type="curve"/>
      <point x="75" y="162" type="line"/>
      <point x="75" y="54" type="line"/>
      <point x="132" y="63"/>
      <point x="162" y="82"/>
    </contour>
  </outline>
</glyph>
<glyph name="c" format="1">
  <advance width="170"/>
  <unicode hex="0063"/>
  <outline>
    <contour>
      <point x="157" y="111" type="line"/>
      <point x="143" y="72"/>
      <point x="117" y="30"/>
      <point x="89" y="-6" type="curve"/>
      <point x="28" y="13" type="line"/>
      <point x="29" y="37"/>
      <point x="29" y="59"/>
      <point x="31" y="79" type="curve" smooth="yes"/>
      <point x="38" y="168"/>
      <point x="58" y="215"/>
      <point x="90" y="275" type="curve"/>
      <point x="148" y="265" type="line"/>
      <point x="148" y="201" type="line"/>
      <point x="99" y="212" type="line"/>
      <point x="75" y="171"/>
      <point x="62" y="131"/>
      <point x="62" y="94" type="curve" smooth="yes"/>
      <point x="62" y="71"/>
      <point x="63" y="59"/>
      <point x="66" y="47" type="curve"/>
      <point x="93" y="58"/>
      <point x="125" y="94"/>
      <point x="136" y="121" type="curve"/>
    </contour>
  </outline>
</glyph>
<glyph name="d" format="1">
  <advance width="185"/>
  <unicode hex="0064"/>
  <outline>
    <contour>
      <point x="167" y="162" type="curve" smooth="yes"/>
      <point x="167" y="86"/>
      <point x="117" y="-4"/>
      <point x="59" y="-4" type="curve" smooth="yes"/>
      <point x="32" y="-4"/>
      <point x="17" y="21"/>
      <point x="17" y="56" type="curve" smooth="yes"/>
      <point x="17" y="126"/>
      <point x="78" y="212"/>
      <point x="113" y="242" type="curve"/>
      <point x="82" y="379"/>
      <point x="63" y="481"/>
      <point x="64" y="528" type="curve"/>
      <point x="95" y="539" type="line"/>
      <point x="95" y="536"/>
      <point x="95" y="533"/>
      <point x="95" y="530" type="curve" smooth="yes"/>
      <point x="95" y="487"/>
      <point x="106" y="437"/>
      <point x="132" y="337" type="curve" smooth="yes"/>
      <point x="149" y="270"/>
      <point x="167" y="205"/>
    </contour>
    <contour>
      <point x="142" y="109" type="curve"/>
      <point x="119" y="217" type="line"/>
      <point x="89" y="185"/>
      <point x="63" y="126"/>
      <point x="63" y="83" type="curve" smooth="yes"/>
      <point x="63" y="64"/>
      <point x="69" y="53"/>
      <point x="82" y="53" type="curve" smooth="yes"/>
      <point x="100" y="53"/>
      <point x="131" y="87"/>
    </contour>
  </outline>
</glyph>
<glyph name="e" format="1">
  <advance width="180"/>
  <unicode hex="0065"/>
  <outline>
    <contour>
      <point x="168" y="72" type="line"/>
      <point x="139" y="32"/>
      <point x="106" y="-4"/>
      <point x="77" y="-4" type="curve" smooth="yes"/>
      <point x="38" y="-4"/>
      <point x="24" y="40"/>
      <point x="24" y="83" type="curve" smooth="yes"/>
      <point x="24" y="137"/>
      <point x="46" y="203"/>
      <point x="79" y="264" type="curve"/>
      <point x="137" y="241"/>
      <point x="167" y="221"/>
      <point x="167" y="198" type="curve" smooth="yes"/>
      <point x="167" y="166"/>
      <point x="110" y="130"/>
      <point x="61" y="102" type="curve"/>
      <point x="64" y="79"/>
      <point x="73" y="56"/>
      <point x="87" y="41" type="curve"/>
      <point x="110" y="47"/>
      <point x="139" y="65"/>
      <point x="156" y="87" type="curve"/>
    </contour>
    <contour>
      <point x="124" y="180" type="curve" smooth="yes"/>
      <point x="124" y="191"/>
      <point x="101" y="201"/>
      <point x="74" y="208" type="curve"/>
      <point x="63" y="179"/>
      <point x="59" y="159"/>
      <point x="59" y="131" type="curve" smooth="yes"/>
      <point x="59" y="126"/>
      <point x="59" y="122"/>
      <point x="60" y="117" type="curve"/>
      <point x="96" y="139"/>
      <point x="124" y="164"/>
    </contour>
  </outline>
</glyph>
<glyph name="f" format="1">
  <advance width="150"/>
  <unicode hex="0066"/>
  <outline>
    <contour>
      <point x="176" y="438" type="line"/>
      <point x="155" y="387" type="line"/>
      <point x="147" y="412"/>
      <point x="129" y="450"/>
      <point x="119" y="462" type="curve"/>
      <point x="102" y="423"/>
      <point x="86" y="362"/>
      <point x="75" y="293" type="curve"/>
      <point x="93" y="276"/>
      <point x="124" y="269"/>
      <point x="174" y="269" type="curve"/>
      <point x="136" y="227" type="line"/>
      <point x="65" y="210" type="line"/>
      <point x="62" y="181"/>
      <point x="61" y="150"/>
      <point x="61" y="120" type="curve" smooth="yes"/>
      <point x="61" y="76"/>
      <point x="66" y="14"/>
      <point x="66" y="-45" type="curve" smooth="yes"/>
      <point x="66" y="-110"/>
      <point x="55" y="-174"/>
      <point x="33" y="-243" type="curve"/>
      <point x="91" y="-209" type="line"/>
      <point x="52" y="-287" type="line"/>
      <point x="-13" y="-307" type="line"/>
      <point x="24" y="-192"/>
      <point x="38" y="-84"/>
      <point x="38" y="54" type="curve" smooth="yes"/>
      <point x="38" y="109"/>
      <point x="39" y="161"/>
      <point x="42" y="212" type="curve"/>
      <point x="16" y="217" type="line"/>
      <point x="23" y="245"/>
      <point x="34" y="267"/>
      <point x="48" y="288" type="curve"/>
      <point x="59" y="401"/>
      <point x="81" y="502"/>
      <point x="122" y="587" type="curve"/>
      <point x="161" y="570" type="line"/>
    </contour>
  </outline>
</glyph>
<glyph name="g" format="1">
  <advance width="207"/>
  <unicode hex="0067"/>
  <outline>
    <contour>
      <point x="182" y="335" type="line"/>
      <point x="156" y="330"/>
      <point x="139" y="322"/>
      <point x="127" y="312" type="curve"/>
      <point x="134" y="294" type="line"/>
      <point x="105" y="280" type="line"/>
      <point x="94" y="306" type="line"/>
      <point x="113" y="340"/>
      <point x="139" y="356"/>
      <point x="176" y="371" type="curve"/>
    </contour>
    <contour>
      <point x="164" y="173" type="curve" smooth="yes"/>
      <point x="164" y="68"/>
      <point x="95" y="13"/>
      <point x="54" y="13" type="curve" smooth="yes"/>
      <point x="30" y="13"/>
      <point x="18" y="31"/>
      <point x="18" y="56" type="curve" smooth="yes"/>
      <point x="18" y="99"/>
      <point x="49" y="159"/>
      <point x="100" y="224" type="curve"/>
      <point x="99" y="230"/>
      <point x="98" y="235"/>
      <point x="98" y="240" type="curve" smooth="yes"/>
      <point x="98" y="250"/>
      <point x="102" y="259"/>
      <point x="111" y="269" type="curve"/>
      <point x="154" y="256" type="line"/>
      <point x="161" y="228"/>
      <point x="164" y="206"/>
    </contour>
    <contour>
      <point x="204" y="9" type="line"/>
      <point x="187" y="2"/>
      <point x="168" y="-9"/>
      <point x="154" y="-18" type="curve"/>
      <point x="167" y="-50"/>
      <point x="173" y="-85"/>
      <point x="173" y="-115" type="curve" smooth="yes"/>
      <point x="173" y="-215"/>
      <point x="108" y="-266"/>
      <point x="50" y="-296" type="curve"/>
      <point x="15" y="-256"/>
      <point x="-3" y="-217"/>
      <point x="-3" y="-157" type="curve" smooth="yes"/>
      <point x="-3" y="-94"/>
      <point x="42" y="-47"/>
      <point x="92" y="-19" type="curve"/>
      <point x="92" y="7" type="line"/>
      <point x="134" y="7" type="line"/>
      <point x="151" y="19"/>
      <point x="166" y="28"/>
      <point x="188" y="39" type="curve"/>
    </contour>
    <contour>
      <point x="132" y="118" type="curve" smooth="yes"/>
      <point x="132" y="136"/>
      <point x="126" y="170"/>
      <point x="110" y="203" type="curve"/>
      <point x="77" y="173"/>
      <point x="58" y="119"/>
      <point x="58" y="83" type="curve" smooth="yes"/>
      <point x="58" y="69"/>
      <point x="61" y="61"/>
      <point x="74" y="61" type="curve" smooth="yes"/>
      <point x="95" y="61"/>
      <point x="132" y="85"/>
    </contour>
    <contour>
      <point x="132" y="-149" type="curve" smooth="yes"/>
      <point x="132" y="-113"/>
      <point x="120" y="-81"/>
      <point x="94" y="-48" type="curve"/>
      <point x="49" y="-82"/>
      <point x="30" y="-120"/>
      <point x="30" y="-176" type="curve" smooth="yes"/>
      <point x="30" y="-214"/>
      <point x="41" y="-245"/>
      <point x="59" y="-270" type="curve"/>
      <point x="100" y="-251"/>
      <point x="132" y="-197"/>
    </contour>
  </outline>
</glyph>
<glyph name="h" format="1">
  <advance width="234"/>
  <unicode hex="0068"/>
  <outline>
    <contour>
      <point x="213" y="214" type="curve" smooth="yes"/>
      <point x="213" y="128"/>
      <point x="187" y="12"/>
      <point x="147" y="-56" type="curve"/>
      <point x="94" y="-80" type="line"/>
      <point x="146" y="1"/>
      <point x="163" y="86"/>
      <point x="163" y="154" type="curve" smooth="yes"/>
      <point x="163" y="178"/>
      <point x="161" y="201"/>
      <point x="158" y="220" type="curve"/>
      <point x="95" y="137"/>
      <point x="68" y="55"/>
      <point x="56" y="-8" type="curve"/>
      <point x="25" y="1" type="line"/>
      <point x="57" y="180"/>
      <point x="86" y="389"/>
      <point x="84" y="527" type="curve"/>
      <point x="132" y="550" type="line"/>
      <point x="125" y="398"/>
      <point x="106" y="259"/>
      <point x="87" y="156" type="curve"/>
      <point x="108" y="192"/>
      <point x="124" y="215"/>
      <point x="158" y="256" type="curve"/>
      <point x="211" y="244" type="line"/>
      <point x="212" y="235"/>
      <point x="213" y="224"/>
    </contour>
  </outline>
</glyph>
<glyph name="i" format="1">
  <advance width="119"/>
  <unicode hex="0069"/>
  <outline>
    <contour>
      <point x="125" y="366" type="line"/>
      <point x="113" y="299" type="line"/>
      <point x="74" y="301" type="line"/>
      <point x="62" y="306"/>
      <point x="59" y="314"/>
      <point x="59" y="325" type="curve" smooth="yes"/>
      <point x="59" y="339"/>
      <point x="68" y="353"/>
      <point x="85" y="362" type="curve"/>
    </contour>
    <contour>
      <point x="99" y="256" type="line"/>
      <point x="62" y="51" type="line"/>
      <point x="98" y="71" type="line"/>
      <point x="98" y="39" type="line"/>
      <point x="29" y="-8" type="line"/>
      <point x="32" y="153" type="line"/>
      <point x="60" y="239" type="line"/>
    </contour>
  </outline>
</glyph>
<glyph name="j" format="1">
  <advance width="104"/>
  <unicode hex="006A"/>
  <outline>
    <contour>
      <point x="115" y="383" type="line"/>
      <point x="86" y="320" type="line"/>
      <point x="64" y="321" type="line"/>
      <point x="47" y="327"/>
      <point x="39" y="335"/>
      <point x="39" y="347" type="curve" smooth="yes"/>
      <point x="39" y="357"/>
      <point x="47" y="374"/>
      <point x="62" y="382" type="curve"/>
    </contour>
    <contour>
      <point x="97" y="269" type="line"/>
      <point x="76" y="172"/>
      <point x="63" y="85"/>
      <point x="52" y="12" type="curve" smooth="yes"/>
      <point x="34" y="-110"/>
      <point x="29" y="-182"/>
      <point x="26" y="-256" type="curve"/>
      <point x="14" y="-265"/>
      <point x="0" y="-278"/>
      <point x="-11" y="-291" type="curve"/>
      <point x="-63" y="-245" type="line"/>
      <point x="-50" y="-194" type="line"/>
      <point x="-40" y="-207"/>
      <point x="-20" y="-220"/>
      <point x="-6" y="-226" type="curve"/>
      <point x="7" y="-162"/>
      <point x="19" y="-71"/>
      <point x="27" y="14" type="curve" smooth="yes"/>
      <point x="38" y="127"/>
      <point x="42" y="172"/>
      <point x="41" y="249" type="curve"/>
    </contour>
  </outline>
</glyph>
<glyph name="k" format="1">
  <advance width="231"/>
  <unicode hex="006B"/>
  <outline>
    <contour>
      <point x="213" y="254" type="curve"/>
      <point x="178" y="184" type="line"/>
      <point x="168" y="194"/>
      <point x="153" y="199"/>
      <point x="138" y="199" type="curve"/>
      <point x="110" y="154" type="line"/>
      <point x="139" y="138"/>
      <point x="183" y="103"/>
      <point x="207" y="79" type="curve"/>
      <point x="193" y="-16" type="line"/>
      <point x="156" y="34"/>
      <point x="103" y="91"/>
      <point x="81" y="106" type="curve"/>
      <point x="72" y="82"/>
      <point x="50" y="29"/>
      <point x="35" y="-2" type="curve"/>
      <point x="10" y="12" type="line"/>
      <point x="51" y="108"/>
      <point x="90" y="353"/>
      <point x="90" y="511" type="curve" smooth="yes"/>
      <point x="90" y="536"/>
      <point x="88" y="559"/>
      <point x="86" y="580" type="curve"/>
      <point x="124" y="605" type="line"/>
      <point x="125" y="442"/>
      <point x="101" y="278"/>
      <point x="77" y="153" type="curve"/>
      <point x="83" y="152" type="line"/>
      <point x="120" y="207" type="line" smooth="yes"/>
      <point x="153" y="256"/>
      <point x="161" y="261"/>
      <point x="185" y="261" type="curve" smooth="yes"/>
      <point x="194" y="261"/>
      <point x="205" y="258"/>
    </contour>
  </outline>
</glyph>
<glyph name="l" format="1">
  <advance width="144"/>
  <unicode hex="006C"/>
  <outline>
    <contour>
      <point x="141" y="114" type="line"/>
      <point x="69" y="-8" type="line"/>
      <point x="31" y="10" type="line"/>
      <point x="29" y="31"/>
      <point x="29" y="50"/>
      <point x="29" y="64" type="curve" smooth="yes"/>
      <point x="29" y="94"/>
      <point x="36" y="130"/>
      <point x="47" y="183" type="curve" smooth="yes"/>
      <point x="66" y="272"/>
      <point x="89" y="398"/>
      <point x="87" y="536" type="curve"/>
      <point x="138" y="558" type="line"/>
      <point x="131" y="396"/>
      <point x="110" y="289"/>
      <point x="92" y="235" type="curve" smooth="yes"/>
      <point x="71" y="173"/>
      <point x="65" y="154"/>
      <point x="65" y="130" type="curve" smooth="yes"/>
      <point x="65" y="107"/>
      <point x="66" y="89"/>
      <point x="72" y="67" type="curve"/>
      <point x="116" y="122" type="line"/>
    </contour>
  </outline>
</glyph>
<glyph name="m" format="1">
  <advance width="362"/>
  <unicode hex="006D"/>
  <outline>
    <contour>
      <point x="351" y="59" type="line"/>
      <point x="314" y="-9" type="line"/>
      <point x="298" y="3"/>
      <point x="283" y="12"/>
      <point x="268" y="18" type="curve"/>
      <point x="261" y="71"/>
      <point x="257" y="137"/>
      <point x="256" y="203" type="curve"/>
      <point x="223" y="166"/>
      <point x="182" y="79"/>
      <point x="171" y="2" type="curve"/>
      <point x="135" y="-5" type="line"/>
      <point x="143" y="50"/>
      <point x="145" y="76"/>
      <point x="145" y="127" type="curve" smooth="yes"/>
      <point x="145" y="159"/>
      <point x="144" y="177"/>
      <point x="141" y="211" type="curve"/>
      <point x="107" y="170"/>
      <point x="66" y="71"/>
      <point x="51" y="1" type="curve"/>
      <point x="14" y="-7" type="line"/>
      <point x="36" y="43"/>
      <point x="56" y="120"/>
      <point x="56" y="180" type="curve" smooth="yes"/>
      <point x="56" y="187"/>
      <point x="56" y="194"/>
      <point x="55" y="200" type="curve"/>
      <point x="27" y="200" type="line"/>
      <point x="48" y="267" type="line"/>
      <point x="90" y="254" type="line"/>
      <point x="90" y="178" type="line"/>
      <point x="108" y="198"/>
      <point x="128" y="228"/>
      <point x="143" y="258" type="curve"/>
      <point x="187" y="246" type="line"/>
      <point x="187" y="132" type="line"/>
      <point x="205" y="173"/>
      <point x="233" y="211"/>
      <point x="263" y="247" type="curve"/>
      <point x="309" y="233" type="line"/>
      <point x="304" y="201"/>
      <point x="302" y="171"/>
      <point x="302" y="142" type="curve" smooth="yes"/>
      <point x="302" y="113"/>
      <point x="304" y="75"/>
      <point x="310" y="42" type="curve"/>
      <point x="348" y="87" type="line"/>
    </contour>
  </outline>
</glyph>
<glyph name="n" format="1">
  <advance width="240"/>
  <unicode hex="006E"/>
  <outline>
    <contour>
      <point x="233" y="64" type="line"/>
      <point x="219" y="41"/>
      <point x="206" y="19"/>
      <point x="192" y="-8" type="curve"/>
      <point x="148" y="13" type="line"/>
      <point x="141" y="46"/>
      <point x="137" y="75"/>
      <point x="137" y="126" type="curve" smooth="yes"/>
      <point x="137" y="149"/>
      <point x="138" y="171"/>
      <point x="140" y="197" type="curve"/>
      <point x="95" y="134"/>
      <point x="69" y="61"/>
      <point x="56" y="3" type="curve"/>
      <point x="24" y="-9" type="line"/>
      <point x="43" y="48"/>
      <point x="52" y="105"/>
      <point x="54" y="181" type="curve"/>
      <point x="22" y="191" type="line"/>
      <point x="32" y="216"/>
      <point x="39" y="242"/>
      <point x="44" y="271" type="curve"/>
      <point x="87" y="258" type="line"/>
      <point x="87" y="151" type="line"/>
      <point x="109" y="187"/>
      <point x="128" y="214"/>
      <point x="151" y="242" type="curve"/>
      <point x="196" y="229" type="line"/>
      <point x="184" y="193"/>
      <point x="179" y="155"/>
      <point x="179" y="116" type="curve" smooth="yes"/>
      <point x="179" y="83"/>
      <point x="180" y="64"/>
      <point x="183" y="30" type="curve"/>
      <point x="221" y="82" type="line"/>
    </contour>
  </outline>
</glyph>
<glyph name="o" format="1">
  <advance width="173"/>
  <unicode hex="006F"/>
  <outline>
    <contour>
      <point x="181" y="267" type="line"/>
      <point x="173" y="217" type="line"/>
      <point x="138" y="204" type="line"/>
      <point x="140" y="192"/>
      <point x="143" y="174"/>
      <point x="143" y="155" type="curve" smooth="yes"/>
      <point x="143" y="87"/>
      <point x="120" y="-5"/>
      <point x="67" y="-5" type="curve" smooth="yes"/>
      <point x="34" y="-5"/>
      <point x="19" y="27"/>
      <point x="19" y="58" type="curve" smooth="yes"/>
      <point x="19" y="120"/>
      <point x="54" y="189"/>
      <point x="99" y="245" type="curve"/>
    </contour>
    <contour>
      <point x="123" y="120" type="curve"/>
      <point x="106" y="211" type="line"/>
      <point x="62" y="170"/>
      <point x="48" y="121"/>
      <point x="48" y="97" type="curve" smooth="yes"/>
      <point x="48" y="70"/>
      <point x="54" y="56"/>
      <point x="72" y="56" type="curve" smooth="yes"/>
      <point x="96" y="56"/>
      <point x="111" y="88"/>
    </contour>
  </outline>
</glyph>
<glyph name="p" format="1">
  <advance width="224"/>
  <unicode hex="0070"/>
  <outline>
    <contour>
      <point x="217" y="74" type="line"/>
      <point x="173" y="-7" type="line"/>
      <point x="140" y="10" type="line"/>
      <point x="125" y="70"/>
      <point x="120" y="127"/>
      <point x="119" y="199" type="curve"/>
      <point x="70" y="125"/>
      <point x="43" y="-20"/>
      <point x="21" y="-281" type="curve"/>
      <point x="-3" y="-287" type="line"/>
      <point x="6" y="-118"/>
      <point x="28" y="80"/>
      <point x="64" y="302" type="curve"/>
      <point x="110" y="306" type="line"/>
      <point x="95" y="260"/>
      <point x="86" y="225"/>
      <point x="79" y="190" type="curve"/>
      <point x="85" y="186" type="line"/>
      <point x="102" y="208"/>
      <point x="113" y="226"/>
      <point x="131" y="258" type="curve"/>
      <point x="174" y="251" type="line"/>
      <point x="170" y="210"/>
      <point x="167" y="173"/>
      <point x="167" y="135" type="curve" smooth="yes"/>
      <point x="167" y="111"/>
      <point x="168" y="84"/>
      <point x="170" y="54" type="curve"/>
      <point x="207" y="96" type="line"/>
    </contour>
  </outline>
</glyph>
<glyph name="q" format="1">
  <advance width="197"/>
  <unicode hex="0071"/>
  <outline>
    <contour>
      <point x="175" y="179" type="curve" smooth="yes"/>
      <point x="175" y="159"/>
      <point x="171" y="126"/>
      <point x="162" y="98" type="curve" smooth="yes"/>
      <point x="136" y="16"/>
      <point x="109" y="-91"/>
      <point x="104" y="-237" type="curve"/>
      <point x="161" y="-214" type="line"/>
      <point x="129" y="-286" type="line"/>
      <point x="63" y="-306" type="line"/>
      <point x="57" y="-221"/>
      <point x="94" y="-38"/>
      <point x="123" y="43" type="curve"/>
      <point x="102" y="26"/>
      <point x="69" y="6"/>
      <point x="49" y="6" type="curve" smooth="yes"/>
      <point x="30" y="6"/>
      <point x="15" y="20"/>
      <point x="15" y="41" type="curve" smooth="yes"/>
      <point x="15" y="97"/>
      <point x="78" y="175"/>
      <point x="117" y="217" type="curve"/>
      <point x="116" y="229"/>
      <point x="118" y="244"/>
      <point x="124" y="258" type="curve"/>
      <point x="172" y="238" type="line"/>
      <point x="174" y="217"/>
      <point x="175" y="199"/>
    </contour>
    <contour>
      <point x="135" y="90" type="curve"/>
      <point x="137" y="122"/>
      <point x="130" y="163"/>
      <point x="117" y="187" type="curve"/>
      <point x="88" y="151"/>
      <point x="64" y="107"/>
      <point x="64" y="76" type="curve" smooth="yes"/>
      <point x="64" y="65"/>
      <point x="68" y="54"/>
      <point x="81" y="54" type="curve" smooth="yes"/>
      <point x="94" y="54"/>
      <point x="117" y="69"/>
    </contour>
  </outline>
</glyph>
<glyph name="r" format="1">
  <advance width="169"/>
  <unicode hex="0072"/>
  <outline>
    <contour>
      <point x="166" y="265" type="curve"/>
      <point x="152" y="145" type="line"/>
      <point x="141" y="154"/>
      <point x="127" y="162"/>
      <point x="113" y="166" type="curve"/>
      <point x="91" y="129"/>
      <point x="69" y="51"/>
      <point x="56" y="-12" type="curve"/>
      <point x="28" y="-2" type="line"/>
      <point x="42" y="45"/>
      <point x="53" y="92"/>
      <point x="53" y="137" type="curve" smooth="yes"/>
      <point x="53" y="152"/>
      <point x="50" y="171"/>
      <point x="46" y="188" type="curve"/>
      <point x="16" y="188" type="line"/>
      <point x="41" y="258" type="line"/>
      <point x="73" y="258" type="line"/>
      <point x="75" y="233"/>
      <point x="81" y="204"/>
      <point x="91" y="173" type="curve"/>
      <point x="123" y="251"/>
      <point x="137" y="265"/>
    </contour>
  </outline>
</glyph>
<glyph name="s" format="1">
  <advance width="177"/>
  <unicode hex="0073"/>
  <outline>
    <contour>
      <point x="159" y="192" type="curve"/>
      <point x="135" y="181" type="line"/>
      <point x="127" y="208"/>
      <point x="112" y="222"/>
      <point x="93" y="223" type="curve"/>
      <point x="93" y="190" type="line" smooth="yes"/>
      <point x="93" y="170"/>
      <point x="103" y="151"/>
      <point x="121" y="132" type="curve" smooth="yes"/>
      <point x="147" y="105"/>
      <point x="156" y="89"/>
      <point x="156" y="72" type="curve" smooth="yes"/>
      <point x="156" y="50"/>
      <point x="134" y="13"/>
      <point x="115" y="-7" type="curve"/>
      <point x="43" y="-7"/>
      <point x="13" y="11"/>
      <point x="13" y="59" type="curve" smooth="yes"/>
      <point x="13" y="70"/>
      <point x="15" y="81"/>
      <point x="19" y="90" type="curve"/>
      <point x="46" y="96" type="line"/>
      <point x="44" y="65"/>
      <point x="55" y="37"/>
      <point x="113" y="34" type="curve"/>
      <point x="114" y="38"/>
      <point x="114" y="42"/>
      <point x="114" y="46" type="curve" smooth="yes"/>
      <point x="114" y="61"/>
      <point x="108" y="74"/>
      <point x="88" y="98" type="curve" smooth="yes"/>
      <point x="69" y="121"/>
      <point x="58" y="140"/>
      <point x="58" y="167" type="curve" smooth="yes"/>
      <point x="58" y="219" type="line"/>
      <point x="134" y="265" type="line"/>
      <point x="148" y="249"/>
      <point x="159" y="218"/>
    </contour>
  </outline>
</glyph>
<glyph name="t" format="1">
  <advance width="142"/>
  <unicode hex="0074"/>
  <outline>
    <contour>
      <point x="146" y="332" type="line"/>
      <point x="137" y="296" type="line"/>
      <point x="105" y="266" type="line"/>
      <point x="93" y="196"/>
      <point x="78" y="146"/>
      <point x="65" y="118" type="curve"/>
      <point x="72" y="40" type="line"/>
      <point x="82" y="53"/>
      <point x="104" y="91"/>
      <point x="108" y="103" type="curve"/>
      <point x="129" y="99" type="line"/>
      <point x="83" y="-7" type="line"/>
      <point x="32" y="7" type="line"/>
      <point x="32" y="54"/>
      <point x="38" y="95"/>
      <point x="46" y="138" type="curve" smooth="yes"/>
      <point x="52" y="171"/>
      <point x="59" y="204"/>
      <point x="66" y="241" type="curve"/>
      <point x="29" y="236" type="line"/>
      <point x="33" y="268"/>
      <point x="40" y="293"/>
      <point x="55" y="327" type="curve"/>
      <point x="79" y="328" type="line"/>
      <point x="82" y="354"/>
      <point x="84" y="382"/>
      <point x="85" y="413" type="curve"/>
      <point x="125" y="421" type="line"/>
      <point x="122" y="388"/>
      <point x="119" y="358"/>
      <point x="115" y="330" type="curve"/>
    </contour>
  </outline>
</glyph>
<glyph name="u" format="1">
  <advance width="245"/>
  <unicode hex="0075"/>
  <outline>
    <contour>
      <point x="236" y="61" type="line"/>
      <point x="191" y="-13" type="line"/>
      <point x="164" y="7"/>
      <point x="139" y="49"/>
      <point x="137" y="82" type="curve"/>
      <point x="121" y="46"/>
      <point x="87" y="14"/>
      <point x="62" y="-3" type="curve"/>
      <point x="25" y="33" type="line"/>
      <point x="37" y="83"/>
      <point x="45" y="187"/>
      <point x="45" y="231" type="curve" smooth="yes"/>
      <point x="45" y="242"/>
      <point x="44" y="255"/>
      <point x="44" y="265" type="curve"/>
      <point x="91" y="262" type="line"/>
      <point x="87" y="194"/>
      <point x="73" y="93"/>
      <point x="61" y="41" type="curve"/>
      <point x="127" y="74"/>
      <point x="141" y="132"/>
      <point x="168" y="256" type="curve"/>
      <point x="200" y="252" type="line"/>
      <point x="184" y="178"/>
      <point x="180" y="147"/>
      <point x="180" y="124" type="curve" smooth="yes"/>
      <point x="180" y="89"/>
      <point x="183" y="71"/>
      <point x="192" y="51" type="curve"/>
      <point x="227" y="91" type="line"/>
    </contour>
  </outline>
</glyph>
<glyph name="v" format="1">
  <advance width="187"/>
  <unicode hex="0076"/>
  <outline>
    <contour>
      <point x="196" y="252" type="line"/>
      <point x="94" y="-7" type="line"/>
      <point x="54" y="10" type="line"/>
      <point x="23" y="233" type="line"/>
      <point x="65" y="246" type="line"/>
      <point x="80" y="32" type="line"/>
      <point x="125" y="119" type="line"/>
      <point x="140" y="230" type="line"/>
    </contour>
  </outline>
</glyph>
<glyph name="w" format="1">
  <advance width="333"/>
  <unicode hex="0077"/>
  <outline>
    <contour>
      <point x="343" y="247" type="line"/>
      <point x="225" y="-7" type="line"/>
      <point x="186" y="11" type="line"/>
      <point x="184" y="58"/>
      <point x="177" y="126"/>
      <point x="171" y="169" type="curve"/>
      <point x="167" y="169" type="line"/>
      <point x="142" y="118"/>
      <point x="108" y="39"/>
      <point x="88" y="-8" type="curve"/>
      <point x="48" y="14" type="line"/>
      <point x="44" y="81"/>
      <point x="35" y="168"/>
      <point x="26" y="234" type="curve"/>
      <point x="76" y="249" type="line"/>
      <point x="76" y="29" type="line"/>
      <point x="134" y="136" type="line"/>
      <point x="150" y="230" type="line"/>
      <point x="211" y="252" type="line"/>
      <point x="210" y="171"/>
      <point x="211" y="92"/>
      <point x="215" y="34" type="curve"/>
      <point x="270" y="126" type="line"/>
      <point x="289" y="228" type="line"/>
    </contour>
  </outline>
</glyph>
<glyph name="x" format="1">
  <advance width="217"/>
  <unicode hex="0078"/>
  <outline>
    <contour>
      <point x="240" y="288" type="line"/>
      <point x="210" y="251"/>
      <point x="178" y="207"/>
      <point x="147" y="162" type="curve"/>
      <point x="159" y="122"/>
      <point x="170" y="79"/>
      <point x="178" y="41" type="curve"/>
      <point x="153" y="-10" type="line"/>
      <point x="145" y="23"/>
      <point x="132" y="70"/>
      <point x="117" y="117" type="curve"/>
      <point x="86" y="70"/>
      <point x="59" y="26"/>
      <point x="40" y="-8" type="curve"/>
      <point x="7" y="23" type="line"/>
      <point x="32" y="52"/>
      <point x="70" y="97"/>
      <point x="107" y="144" type="curve"/>
      <point x="92" y="188"/>
      <point x="72" y="230"/>
      <point x="46" y="260" type="curve"/>
      <point x="97" y="299" type="line"/>
      <point x="111" y="272"/>
      <point x="129" y="225"/>
      <point x="140" y="187" type="curve"/>
      <point x="166" y="220"/>
      <point x="189" y="251"/>
      <point x="208" y="278" type="curve"/>
    </contour>
  </outline>
</glyph>
<glyph name="y" format="1">
  <advance width="195"/>
  <unicode hex="0079"/>
  <outline>
    <contour>
      <point x="192" y="247" type="line"/>
      <point x="153" y="164"/>
      <point x="150" y="91"/>
      <point x="150" y="-30" type="curve" smooth="yes"/>
      <point x="150" y="-143"/>
      <point x="131" y="-225"/>
      <point x="105" y="-301" type="curve"/>
      <point x="82" y="-305"/>
      <point x="53" y="-304"/>
      <point x="27" y="-290" type="curve"/>
      <point x="33" y="-212" type="line"/>
      <point x="55" y="-248" type="line"/>
      <point x="99" y="-237" type="line"/>
      <point x="117" y="-177"/>
      <point x="123" y="-25"/>
      <point x="123" y="70" type="curve"/>
      <point x="119" y="72" type="line"/>
      <point x="84" y="-8" type="line"/>
      <point x="56" y="1"/>
      <point x="27" y="20"/>
      <point x="27" y="67" type="curve" smooth="yes"/>
      <point x="27" y="88"/>
      <point x="52" y="171"/>
      <point x="76" y="245" type="curve"/>
      <point x="44" y="231" type="line"/>
      <point x="48" y="256" type="line"/>
      <point x="123" y="299" type="line"/>
      <point x="89" y="227"/>
      <point x="61" y="152"/>
      <point x="61" y="116" type="curve" smooth="yes"/>
      <point x="61" y="79"/>
      <point x="69" y="53"/>
      <point x="85" y="53" type="curve" smooth="yes"/>
      <point x="104" y="53"/>
      <point x="136" y="159"/>
      <point x="157" y="238" type="curve"/>
    </contour>
  </outline>
</glyph>
<glyph name="z" format="1">
  <advance width="164"/>
  <unicode hex="007A"/>
  <outline>
    <contour>
      <point x="141" y="59" type="curve"/>
      <point x="128" y="1" type="line"/>
      <point x="115" y="-4"/>
      <point x="97" y="-8"/>
      <point x="77" y="-8" type="curve" smooth="yes"/>
      <point x="55" y="-8"/>
      <point x="31" y="3"/>
      <point x="17" y="19" type="curve"/>
      <point x="29" y="75" type="line"/>
      <point x="77" y="94"/>
      <point x="110" y="119"/>
      <point x="110" y="181" type="curve" smooth="yes"/>
      <point x="110" y="188"/>
      <point x="110" y="195"/>
      <point x="109" y="203" type="curve"/>
      <point x="45" y="203" type="line"/>
      <point x="67" y="257" type="line"/>
      <point x="141" y="254" type="line"/>
      <point x="135" y="147"/>
      <point x="115" y="97"/>
      <point x="67" y="61" type="curve"/>
      <point x="76" y="57"/>
      <point x="92" y="55"/>
      <point x="101" y="55" type="curve" smooth="yes"/>
      <point x="109" y="55"/>
      <point x="128" y="56"/>
    </contour>
  </outline>
</glyph>
<glyph name="braceleft" format="1">
  <advance width="150"/>
  <unicode hex="007B"/>
  <outline>
    <contour>
      <point x="143" y="-78" type="line"/>
      <point x="132" y="-123" type="line"/>
      <point x="32" y="-64" type="line"/>
      <point x="25" y="-31" type="line"/>
      <point x="54" y="8"/>
      <point x="90" y="61"/>
      <point x="90" y="92" type="curve" smooth="yes"/>
      <point x="90" y="107"/>
      <point x="83" y="123"/>
      <point x="69" y="135" type="curve"/>
      <point x="55" y="128"/>
      <point x="33" y="119"/>
      <point x="10" y="109" type="curve"/>
      <point x="7" y="151" type="line"/>
      <point x="87" y="186"/>
      <point x="98" y="200"/>
      <point x="98" y="223" type="curve" smooth="yes"/>
      <point x="98" y="235"/>
      <point x="89" y="248"/>
      <point x="79" y="262" type="curve" smooth="yes"/>
      <point x="58" y="292"/>
      <point x="30" y="324"/>
      <point x="30" y="371" type="curve" smooth="yes"/>
      <point x="30" y="376"/>
      <point x="31" y="383"/>
      <point x="32" y="389" type="curve"/>
      <point x="124" y="448" type="line"/>
      <point x="127" y="397" type="line"/>
      <point x="60" y="363" type="line"/>
      <point x="59" y="360"/>
      <point x="59" y="359"/>
      <point x="59" y="356" type="curve" smooth="yes"/>
      <point x="59" y="335"/>
      <point x="73" y="306"/>
      <point x="89" y="284" type="curve" smooth="yes"/>
      <point x="102" y="266"/>
      <point x="121" y="240"/>
      <point x="121" y="221" type="curve" smooth="yes"/>
      <point x="121" y="191"/>
      <point x="113" y="169"/>
      <point x="86" y="150" type="curve"/>
      <point x="100" y="136"/>
      <point x="110" y="118"/>
      <point x="110" y="94" type="curve" smooth="yes"/>
      <point x="110" y="67"/>
      <point x="84" y="7"/>
      <point x="60" y="-32" type="curve"/>
    </contour>
  </outline>
</glyph>
<glyph name="bar" format="1">
  <advance width="140"/>
  <unicode hex="007C"/>
  <outline>
    <contour>
      <point x="92" y="463" type="line"/>
      <point x="84" y="361"/>
      <point x="76" y="77"/>
      <point x="76" y="-98" type="curve"/>
      <point x="52" y="-104" type="line"/>
      <point x="53" y="470" type="line"/>
    </contour>
  </outline>
</glyph>
<glyph name="braceright" format="1">
  <advance width="150"/>
  <unicode hex="007D"/>
  <outline>
    <contour>
      <point x="143" y="173" type="line"/>
      <point x="63" y="138"/>
      <point x="52" y="124"/>
      <point x="52" y="101" type="curve" smooth="yes"/>
      <point x="52" y="89"/>
      <point x="61" y="76"/>
      <point x="71" y="62" type="curve" smooth="yes"/>
      <point x="92" y="32"/>
      <point x="120" y="0"/>
      <point x="120" y="-47" type="curve" smooth="yes"/>
      <point x="120" y="-52"/>
      <point x="119" y="-59"/>
      <point x="118" y="-65" type="curve"/>
      <point x="26" y="-124" type="line"/>
      <point x="23" y="-73" type="line"/>
      <point x="90" y="-39" type="line"/>
      <point x="91" y="-36"/>
      <point x="91" y="-35"/>
      <point x="91" y="-32" type="curve" smooth="yes"/>
      <point x="91" y="-11"/>
      <point x="77" y="18"/>
      <point x="61" y="40" type="curve" smooth="yes"/>
      <point x="48" y="58"/>
      <point x="29" y="84"/>
      <point x="29" y="103" type="curve" smooth="yes"/>
      <point x="29" y="133"/>
      <point x="37" y="155"/>
      <point x="64" y="174" type="curve"/>
      <point x="50" y="188"/>
      <point x="40" y="206"/>
      <point x="40" y="230" type="curve" smooth="yes"/>
      <point x="40" y="257"/>
      <point x="66" y="317"/>
      <point x="90" y="356" type="curve"/>
      <point x="7" y="402" type="line"/>
      <point x="18" y="447" type="line"/>
      <point x="118" y="388" type="line"/>
      <point x="125" y="355" type="line"/>
      <point x="96" y="316"/>
      <point x="60" y="263"/>
      <point x="60" y="232" type="curve" smooth="yes"/>
      <point x="60" y="217"/>
      <point x="67" y="201"/>
      <point x="81" y="189" type="curve"/>
      <point x="95" y="196"/>
      <point x="117" y="205"/>
      <point x="140" y="215" type="curve"/>
    </contour>
  </outline>
</glyph>
<glyph name="exclamdown" format="1">
  <advance width="112"/>
  <unicode hex="00A1"/>
  <outline>
    <contour>
      <point x="120" y="479" type="curve" smooth="yes"/>
      <point x="120" y="465"/>
      <point x="108" y="451"/>
      <point x="99" y="440" type="curve"/>
      <point x="43" y="437" type="line"/>
      <point x="51" y="458"/>
      <point x="58" y="484"/>
      <point x="60" y="507" type="curve"/>
      <point x="91" y="510"/>
      <point x="120" y="503"/>
    </contour>
    <contour>
      <point x="111" y="334" type="line"/>
      <point x="109" y="250"/>
      <point x="81" y="116"/>
      <point x="40" y="-12" type="curve"/>
      <point x="2" y="-18" type="line"/>
      <point x="45" y="79"/>
      <point x="84" y="210"/>
      <point x="92" y="328" type="curve"/>
    </contour>
  </outline>
</glyph>
<glyph name="cent" format="1">
  <advance width="190"/>
  <unicode hex="00A2"/>
  <outline>
    <contour>
      <point x="177" y="131" type="line"/>
      <point x="158" y="87"/>
      <point x="132" y="52"/>
      <point x="98" y="29" type="curve"/>
      <point x="89" y="-35" type="line"/>
      <point x="72" y="-35" type="line"/>
      <point x="81" y="26" type="line"/>
      <point x="38" y="43" type="line"/>
      <point x="34" y="63"/>
      <point x="33" y="88"/>
      <point x="33" y="107" type="curve" smooth="yes"/>
      <point x="33" y="182"/>
      <point x="58" y="245"/>
      <point x="90" y="305" type="curve"/>
      <point x="121" y="301" type="line"/>
      <point x="131" y="369" type="line"/>
      <point x="148" y="369" type="line"/>
      <point x="138" y="299" type="line"/>
      <point x="168" y="295" type="line"/>
      <point x="168" y="238" type="line"/>
      <point x="130" y="244" type="line"/>
      <point x="106" y="84" type="line"/>
      <point x="129" y="98"/>
      <point x="148" y="119"/>
      <point x="159" y="140" type="curve"/>
    </contour>
    <contour>
      <point x="113" y="247" type="line"/>
      <point x="103" y="249" type="line"/>
      <point x="77" y="209"/>
      <point x="62" y="159"/>
      <point x="62" y="129" type="curve" smooth="yes"/>
      <point x="62" y="107"/>
      <point x="68" y="85"/>
      <point x="76" y="72" type="curve"/>
      <point x="88" y="75" type="line"/>
    </contour>
  </outline>
</glyph>
<glyph name="sterling" format="1">
  <advance width="536"/>
  <unicode hex="00A3"/>
  <outline>
    <contour>
      <point x="526" y="-59" type="line"/>
      <point x="445" y="-84" type="line"/>
      <point x="353" y="-61" type="line"/>
      <point x="306" y="-37"/>
      <point x="235" y="-3"/>
      <point x="194" y="13" type="curve"/>
      <point x="146" y="6" type="line"/>
      <point x="162" y="25" type="line"/>
      <point x="126" y="38"/>
      <point x="90" y="47"/>
      <point x="58" y="48" type="curve"/>
      <point x="74" y="11"/>
      <point x="105" y="-27"/>
      <point x="129" y="-45" type="curve"/>
      <point x="118" y="-57" type="line"/>
      <point x="50" y="-50"/>
      <point x="3" y="-14"/>
      <point x="0" y="45" type="curve"/>
      <point x="34" y="105" type="line"/>
      <point x="46" y="109"/>
      <point x="58" y="111"/>
      <point x="79" y="111" type="curve" smooth="yes"/>
      <point x="119" y="111"/>
      <point x="165" y="100"/>
      <point x="211" y="85" type="curve"/>
      <point x="250" y="136"/>
      <point x="286" y="190"/>
      <point x="317" y="247" type="curve"/>
      <point x="154" y="247" type="line"/>
      <point x="154" y="270" type="line"/>
      <point x="329" y="270" type="line"/>
      <point x="383" y="373"/>
      <point x="422" y="484"/>
      <point x="443" y="600" type="curve"/>
      <point x="477" y="600" type="line"/>
      <point x="486" y="579"/>
      <point x="489" y="558"/>
      <point x="489" y="530" type="curve" smooth="yes"/>
      <point x="489" y="500"/>
      <point x="478" y="455"/>
      <point x="468" y="431" type="curve"/>
      <point x="438" y="446" type="line"/>
      <point x="423" y="388"/>
      <point x="398" y="328"/>
      <point x="367" y="270" type="curve"/>
      <point x="510" y="270" type="line"/>
      <point x="510" y="247" type="line"/>
      <point x="354" y="247" type="line"/>
      <point x="319" y="184"/>
      <point x="277" y="125"/>
      <point x="236" y="76" type="curve"/>
      <point x="301" y="51"/>
      <point x="368" y="16"/>
      <point x="407" y="-6" type="curve" smooth="yes"/>
      <point x="442" y="-26"/>
      <point x="486" y="-47"/>
      <point x="526" y="-50" type="curve"/>
    </contour>
  </outline>
</glyph>
<glyph name="yen" format="1">
  <advance width="351"/>
  <unicode hex="00A5"/>
  <outline>
    <contour>
      <point x="370" y="422" type="line"/>
      <point x="318" y="311"/>
      <point x="263" y="225"/>
      <point x="208" y="152" type="curve"/>
      <point x="198" y="87" type="line"/>
      <point x="299" y="89" type="line"/>
      <point x="296" y="65" type="line"/>
      <point x="195" y="64" type="line"/>
      <point x="189" y="26" type="line"/>
      <point x="309" y="29" type="line"/>
      <point x="310" y="6" type="line"/>
      <point x="185" y="3" type="line"/>
      <point x="172" y="-86" type="line"/>
      <point x="139" y="-99" type="line"/>
      <point x="153" y="2" type="line"/>
      <point x="52" y="-1" type="line"/>
      <point x="52" y="22" type="line"/>
      <point x="156" y="25" type="line"/>
      <point x="162" y="64" type="line"/>
      <point x="44" y="63" type="line"/>
      <point x="52" y="83" type="line"/>
      <point x="165" y="86" type="line"/>
      <point x="172" y="138" type="line"/>
      <point x="111" y="228"/>
      <point x="52" y="328"/>
      <point x="1" y="441" type="curve"/>
      <point x="64" y="481" type="line"/>
      <point x="102" y="379"/>
      <point x="155" y="271"/>
      <point x="204" y="191" type="curve"/>
      <point x="264" y="272"/>
      <point x="294" y="336"/>
      <point x="339" y="462" type="curve"/>
    </contour>
  </outline>
</glyph>
<glyph name="section" format="1">
  <advance width="242"/>
  <unicode hex="00A7"/>
  <outline>
    <contour>
      <point x="215" y="245" type="curve" smooth="yes"/>
      <point x="215" y="203"/>
      <point x="190" y="185"/>
      <point x="130" y="158" type="curve"/>
      <point x="139" y="141"/>
      <point x="153" y="121"/>
      <point x="178" y="94" type="curve" smooth="yes"/>
      <point x="202" y="68"/>
      <point x="213" y="53"/>
      <point x="213" y="24" type="curve" smooth="yes"/>
      <point x="213" y="0"/>
      <point x="199" y="-22"/>
      <point x="184" y="-39" type="curve" smooth="yes"/>
      <point x="152" y="-75"/>
      <point x="125" y="-110"/>
      <point x="105" y="-140" type="curve"/>
      <point x="87" y="-128" type="line"/>
      <point x="129" y="-57" type="line" smooth="yes"/>
      <point x="142" y="-34"/>
      <point x="150" y="-17"/>
      <point x="150" y="2" type="curve" smooth="yes"/>
      <point x="150" y="22"/>
      <point x="138" y="36"/>
      <point x="120" y="55" type="curve" smooth="yes"/>
      <point x="94" y="82"/>
      <point x="76" y="105"/>
      <point x="63" y="127" type="curve"/>
      <point x="10" y="113" type="line"/>
      <point x="5" y="134" type="line"/>
      <point x="95" y="163"/>
      <point x="149" y="185"/>
      <point x="149" y="225" type="curve" smooth="yes"/>
      <point x="149" y="235"/>
      <point x="141" y="247"/>
      <point x="129" y="258" type="curve" smooth="yes"/>
      <point x="80" y="304" type="line" smooth="yes"/>
      <point x="62" y="321"/>
      <point x="54" y="332"/>
      <point x="54" y="354" type="curve" smooth="yes"/>
      <point x="54" y="405"/>
      <point x="131" y="431"/>
      <point x="191" y="444" type="curve"/>
      <point x="197" y="424" type="line"/>
      <point x="160" y="416"/>
      <point x="122" y="399"/>
      <point x="122" y="373" type="curve" smooth="yes"/>
      <point x="122" y="359"/>
      <point x="127" y="350"/>
      <point x="139" y="339" type="curve" smooth="yes"/>
      <point x="189" y="292" type="line" smooth="yes"/>
      <point x="204" y="278"/>
      <point x="215" y="266"/>
    </contour>
  </outline>
</glyph>
<glyph name="dieresis" format="1">
  <advance width="220"/>
  <unicode hex="00A8"/>
  <outline>
    <contour>
      <point x="100" y="313" type="curve"/>
      <point x="58" y="306" type="line"/>
      <point x="51" y="313"/>
      <point x="47" y="323"/>
      <point x="47" y="331" type="curve" smooth="yes"/>
      <point x="47" y="352"/>
      <point x="75" y="360"/>
      <point x="95" y="362" type="curve"/>
      <point x="93" y="343"/>
      <point x="96" y="327"/>
    </contour>
    <contour>
      <point x="176" y="357" type="line"/>
      <point x="169" y="340"/>
      <point x="165" y="320"/>
      <point x="165" y="303" type="curve"/>
      <point x="145" y="305"/>
      <point x="122" y="312"/>
      <point x="122" y="331" type="curve" smooth="yes"/>
      <point x="122" y="340"/>
      <point x="124" y="345"/>
      <point x="129" y="353" type="curve"/>
    </contour>
  </outline>
</glyph>
<glyph name="copyright" format="1">
  <advance width="529"/>
  <unicode hex="00A9"/>
  <outline>
    <contour>
      <point x="514" y="288" type="curve" smooth="yes"/>
      <point x="514" y="100"/>
      <point x="412" y="-66"/>
      <point x="231" y="-66" type="curve" smooth="yes"/>
      <point x="96" y="-66"/>
      <point x="15" y="42"/>
      <point x="15" y="199" type="curve" smooth="yes"/>
      <point x="15" y="375"/>
      <point x="125" y="546"/>
      <point x="312" y="597" type="curve"/>
      <point x="317" y="581" type="line"/>
      <point x="148" y="535"/>
      <point x="54" y="376"/>
      <point x="54" y="224" type="curve" smooth="yes"/>
      <point x="54" y="83"/>
      <point x="116" y="-35"/>
      <point x="255" y="-35" type="curve" smooth="yes"/>
      <point x="393" y="-35"/>
      <point x="477" y="88"/>
      <point x="477" y="268" type="curve" smooth="yes"/>
      <point x="477" y="392"/>
      <point x="422" y="478"/>
      <point x="356" y="519" type="curve"/>
      <point x="352" y="542" type="line"/>
      <point x="385" y="550" type="line"/>
      <point x="460" y="504"/>
      <point x="514" y="407"/>
    </contour>
    <contour>
      <point x="339" y="418" type="curve" smooth="yes"/>
      <point x="339" y="403"/>
      <point x="334" y="372"/>
      <point x="331" y="351" type="curve"/>
      <point x="302" y="334" type="line"/>
      <point x="302" y="344"/>
      <point x="302" y="365"/>
      <point x="302" y="382" type="curve" smooth="yes"/>
      <point x="302" y="400"/>
      <point x="293" y="418"/>
      <point x="281" y="426" type="curve"/>
      <point x="238" y="399"/>
      <point x="185" y="338"/>
      <point x="185" y="261" type="curve" smooth="yes"/>
      <point x="185" y="168"/>
      <point x="253" y="91"/>
      <point x="326" y="52" type="curve"/>
      <point x="319" y="39" type="line"/>
      <point x="237" y="77"/>
      <point x="141" y="150"/>
      <point x="141" y="264" type="curve" smooth="yes"/>
      <point x="141" y="383"/>
      <point x="226" y="445"/>
      <point x="305" y="464" type="curve"/>
      <point x="325" y="459"/>
      <point x="339" y="440"/>
    </contour>
  </outline>
</glyph>
<glyph name="ordfeminine" format="1">
  <advance width="181"/>
  <unicode hex="00AA"/>
  <outline>
    <contour>
      <point x="172" y="249" type="line"/>
      <point x="142" y="186" type="line"/>
      <point x="116" y="195"/>
      <point x="106" y="211"/>
      <point x="102" y="238" type="curve"/>
      <point x="92" y="208"/>
      <point x="69" y="180"/>
      <point x="45" y="180" type="curve" smooth="yes"/>
      <point x="30" y="180"/>
      <point x="21" y="195"/>
      <point x="21" y="214" type="curve" smooth="yes"/>
      <point x="21" y="258"/>
      <point x="56" y="325"/>
      <point x="110" y="370" type="curve"/>
      <point x="136" y="361" type="line"/>
      <point x="134" y="338"/>
      <point x="132" y="316"/>
      <point x="132" y="298" type="curve" smooth="yes"/>
      <point x="132" y="262"/>
      <point x="135" y="242"/>
      <point x="140" y="231" type="curve"/>
      <point x="160" y="256" type="line"/>
    </contour>
    <contour>
      <point x="158" y="139" type="curve"/>
      <point x="156" y="115" type="line"/>
      <point x="138" y="117"/>
      <point x="113" y="117"/>
      <point x="93" y="117" type="curve" smooth="yes"/>
      <point x="70" y="117"/>
      <point x="45" y="117"/>
      <point x="26" y="115" type="curve"/>
      <point x="32" y="150" type="line"/>
      <point x="70" y="150"/>
      <point x="128" y="145"/>
    </contour>
    <contour>
      <point x="105" y="340" type="curve"/>
      <point x="75" y="313"/>
      <point x="50" y="267"/>
      <point x="50" y="244" type="curve" smooth="yes"/>
      <point x="50" y="230"/>
      <point x="53" y="223"/>
      <point x="62" y="223" type="curve" smooth="yes"/>
      <point x="80" y="223"/>
      <point x="93" y="248"/>
      <point x="100" y="272" type="curve"/>
      <point x="100" y="291"/>
      <point x="101" y="315"/>
    </contour>
  </outline>
</glyph>
<glyph name="guillemotleft" format="1">
  <advance width="240"/>
  <unicode hex="00AB"/>
  <outline>
    <contour>
      <point x="212" y="-2" type="line"/>
      <point x="197" y="-14" type="line"/>
      <point x="106" y="130" type="line"/>
      <point x="197" y="264" type="line"/>
      <point x="212" y="254" type="line"/>
      <point x="150" y="133" type="line"/>
    </contour>
    <contour>
      <point x="130" y="-2" type="line"/>
      <point x="115" y="-14" type="line"/>
      <point x="24" y="130" type="line"/>
      <point x="115" y="264" type="line"/>
      <point x="130" y="254" type="line"/>
      <point x="68" y="133" type="line"/>
    </contour>
  </outline>
</glyph>
<glyph name="degree" format="1">
  <advance width="220"/>
  <unicode hex="00B0"/>
  <outline>
    <contour>
      <point x="184" y="344" type="curve" smooth="yes"/>
      <point x="184" y="303"/>
      <point x="151" y="270"/>
      <point x="110" y="270" type="curve" smooth="yes"/>
      <point x="69" y="270"/>
      <point x="36" y="303"/>
      <point x="36" y="344" type="curve" smooth="yes"/>
      <point x="36" y="385"/>
      <point x="69" y="420"/>
      <point x="110" y="420" type="curve" smooth="yes"/>
      <point x="151" y="420"/>
      <point x="184" y="385"/>
    </contour>
    <contour>
      <point x="160" y="344" type="curve" smooth="yes"/>
      <point x="160" y="372"/>
      <point x="138" y="396"/>
      <point x="110" y="396" type="curve" smooth="yes"/>
      <point x="82" y="396"/>
      <point x="60" y="372"/>
      <point x="60" y="344" type="curve" smooth="yes"/>
      <point x="60" y="316"/>
      <point x="82" y="294"/>
      <point x="110" y="294" type="curve" smooth="yes"/>
      <point x="138" y="294"/>
      <point x="160" y="316"/>
    </contour>
  </outline>
</glyph>
<glyph name="acute" format="1">
  <advance width="220"/>
  <unicode hex="00B4"/>
  <outline>
    <contour>
      <point x="156" y="358" type="curve" smooth="yes"/>
      <point x="156" y="346"/>
      <point x="152" y="338"/>
      <point x="135" y="329" type="curve" smooth="yes"/>
      <point x="78" y="298" type="line"/>
      <point x="69" y="312" type="line"/>
      <point x="141" y="391" type="line"/>
      <point x="148" y="384"/>
      <point x="156" y="369"/>
    </contour>
  </outline>
</glyph>
<glyph name="paragraph" format="1">
  <advance width="278"/>
  <unicode hex="00B6"/>
  <outline>
    <contour>
      <point x="309" y="449" type="curve"/>
      <point x="290" y="387" type="line"/>
      <point x="273" y="393"/>
      <point x="257" y="399"/>
      <point x="242" y="404" type="curve"/>
      <point x="220" y="367"/>
      <point x="210" y="324"/>
      <point x="210" y="260" type="curve" smooth="yes"/>
      <point x="210" y="216"/>
      <point x="221" y="96"/>
      <point x="221" y="47" type="curve" smooth="yes"/>
      <point x="221" y="-57"/>
      <point x="194" y="-118"/>
      <point x="141" y="-152" type="curve"/>
      <point x="88" y="-129" type="line"/>
      <point x="78" y="-75" type="line"/>
      <point x="103" y="-89"/>
      <point x="137" y="-96"/>
      <point x="168" y="-96" type="curve"/>
      <point x="185" y="-12"/>
      <point x="188" y="49"/>
      <point x="188" y="224" type="curve" smooth="yes"/>
      <point x="188" y="288"/>
      <point x="194" y="359"/>
      <point x="207" y="414" type="curve"/>
      <point x="178" y="422"/>
      <point x="151" y="427"/>
      <point x="124" y="427" type="curve" smooth="yes"/>
      <point x="75" y="427"/>
      <point x="49" y="401"/>
      <point x="49" y="355" type="curve" smooth="yes"/>
      <point x="49" y="288"/>
      <point x="69" y="250"/>
      <point x="89" y="222" type="curve"/>
      <point x="141" y="222" type="line"/>
      <point x="150" y="200" type="line"/>
      <point x="93" y="159" type="line"/>
      <point x="62" y="207"/>
      <point x="28" y="275"/>
      <point x="28" y="347" type="curve" smooth="yes"/>
      <point x="28" y="425"/>
      <point x="56" y="479"/>
      <point x="143" y="479" type="curve" smooth="yes"/>
      <point x="197" y="479"/>
      <point x="229" y="471"/>
    </contour>
  </outline>
</glyph>
<glyph name="periodcentered" format="1">
  <advance width="116"/>
  <unicode hex="00B7"/>
  <outline>
    <contour>
      <point x="100" y="160" type="line"/>
      <point x="90" y="140"/>
      <point x="82" y="115"/>
      <point x="80" y="93" type="curve"/>
      <point x="54" y="95"/>
      <point x="22" y="103"/>
      <point x="22" y="127" type="curve" smooth="yes"/>
      <point x="22" y="140"/>
      <point x="28" y="151"/>
      <point x="37" y="160" type="curve"/>
    </contour>
  </outline>
</glyph>
<glyph name="cedilla" format="1">
  <advance width="220"/>
  <unicode hex="00B8"/>
  <outline>
    <contour>
      <point x="147" y="-30" type="line"/>
      <point x="140" y="-76"/>
      <point x="114" y="-107"/>
      <point x="86" y="-120" type="curve"/>
      <point x="77" y="-110" type="line"/>
      <point x="94" y="-97"/>
      <point x="106" y="-81"/>
      <point x="109" y="-61" type="curve"/>
      <point x="79" y="-50" type="line"/>
      <point x="90" y="-27" type="line"/>
    </contour>
  </outline>
</glyph>
<glyph name="ordmasculine" format="1">
  <advance width="144"/>
  <unicode hex="00BA"/>
  <outline>
    <contour>
      <point x="149" y="373" type="line"/>
      <point x="144" y="337" type="line"/>
      <point x="114" y="328" type="line"/>
      <point x="116" y="318"/>
      <point x="118" y="303"/>
      <point x="118" y="278" type="curve" smooth="yes"/>
      <point x="118" y="235"/>
      <point x="96" y="177"/>
      <point x="55" y="177" type="curve" smooth="yes"/>
      <point x="28" y="177"/>
      <point x="16" y="200"/>
      <point x="16" y="223" type="curve" smooth="yes"/>
      <point x="16" y="267"/>
      <point x="45" y="317"/>
      <point x="82" y="357" type="curve"/>
    </contour>
    <contour>
      <point x="123" y="142" type="curve"/>
      <point x="121" y="115" type="line"/>
      <point x="106" y="117"/>
      <point x="85" y="117"/>
      <point x="69" y="117" type="curve" smooth="yes"/>
      <point x="49" y="117"/>
      <point x="29" y="117"/>
      <point x="14" y="115" type="curve"/>
      <point x="18" y="150" type="line"/>
      <point x="49" y="150"/>
      <point x="101" y="146"/>
    </contour>
    <contour>
      <point x="101" y="269" type="curve"/>
      <point x="87" y="330" type="line"/>
      <point x="59" y="306"/>
      <point x="43" y="265"/>
      <point x="43" y="248" type="curve" smooth="yes"/>
      <point x="43" y="228"/>
      <point x="46" y="221"/>
      <point x="60" y="221" type="curve" smooth="yes"/>
      <point x="79" y="221"/>
      <point x="94" y="245"/>
    </contour>
  </outline>
</glyph>
<glyph name="guillemotright" format="1">
  <advance width="240"/>
  <unicode hex="00BB"/>
  <outline>
    <contour>
      <point x="216" y="122" type="line"/>
      <point x="125" y="-12" type="line"/>
      <point x="110" y="-2" type="line"/>
      <point x="172" y="119" type="line"/>
      <point x="110" y="254" type="line"/>
      <point x="125" y="266" type="line"/>
    </contour>
    <contour>
      <point x="134" y="122" type="line"/>
      <point x="43" y="-12" type="line"/>
      <point x="28" y="-2" type="line"/>
      <point x="90" y="119" type="line"/>
      <point x="28" y="254" type="line"/>
      <point x="43" y="266" type="line"/>
    </contour>
  </outline>
</glyph>
<glyph name="questiondown" format="1">
  <advance width="193"/>
  <unicode hex="00BF"/>
  <outline>
    <contour>
      <point x="175" y="338" type="curve" smooth="yes"/>
      <point x="175" y="325"/>
      <point x="164" y="312"/>
      <point x="155" y="303" type="curve"/>
      <point x="92" y="311" type="line"/>
      <point x="108" y="330"/>
      <point x="124" y="359"/>
      <point x="129" y="378" type="curve"/>
      <point x="154" y="369"/>
      <point x="175" y="362"/>
    </contour>
    <contour>
      <point x="178" y="6" type="line"/>
      <point x="110" y="-50" type="line"/>
      <point x="98" y="-39" type="line"/>
      <point x="135" y="-9" type="line"/>
      <point x="97" y="-1"/>
      <point x="11" y="32"/>
      <point x="11" y="94" type="curve" smooth="yes"/>
      <point x="11" y="138"/>
      <point x="41" y="161"/>
      <point x="78" y="185" type="curve" smooth="yes"/>
      <point x="164" y="241" type="line"/>
      <point x="169" y="228" type="line"/>
      <point x="107" y="182" type="line" smooth="yes"/>
      <point x="83" y="164"/>
      <point x="64" y="143"/>
      <point x="64" y="119" type="curve" smooth="yes"/>
      <point x="64" y="82"/>
      <point x="116" y="44"/>
      <point x="174" y="31" type="curve"/>
    </contour>
  </outline>
</glyph>
<glyph name="Adieresis" format="1">
  <advance width="526"/>
  <unicode hex="00C4"/>
  <outline>
    <contour>
      <point x="539" y="653" type="line"/>
      <point x="530" y="631"/>
      <point x="525" y="605"/>
      <point x="525" y="583" type="curve"/>
      <point x="499" y="586"/>
      <point x="469" y="595"/>
      <point x="469" y="620" type="curve" smooth="yes"/>
      <point x="469" y="631"/>
      <point x="472" y="638"/>
      <point x="478" y="648" type="curve"/>
    </contour>
    <contour>
      <point x="331" y="585" type="curve"/>
      <point x="276" y="576" type="line"/>
      <point x="267" y="585"/>
      <point x="262" y="598"/>
      <point x="262" y="609" type="curve" smooth="yes"/>
      <point x="262" y="636"/>
      <point x="298" y="646"/>
      <point x="324" y="649" type="curve"/>
      <point x="322" y="624"/>
      <point x="326" y="604"/>
    </contour>
    <component base="A"/>
  </outline>
</glyph>
<glyph name="Aring" format="1">
  <advance width="526"/>
  <unicode hex="00C5"/>
  <outline>
    <contour>
      <point x="536" y="-20" type="line"/>
      <point x="477" y="-133" type="line"/>
      <point x="439" y="-92" type="line"/>
      <point x="430" y="-40"/>
      <point x="418" y="49"/>
      <point x="409" y="145" type="curve"/>
      <point x="256" y="145" type="line"/>
      <point x="224" y="79"/>
      <point x="173" y="-2"/>
      <point x="124" y="-2" type="curve" smooth="yes"/>
      <point x="95" y="-2"/>
      <point x="66" y="19"/>
      <point x="46" y="62" type="curve" smooth="yes"/>
      <point x="0" y="159" type="line"/>
      <point x="19" y="231" type="line" smooth="yes"/>
      <point x="27" y="261"/>
      <point x="48" y="285"/>
      <point x="76" y="285" type="curve" smooth="yes"/>
      <point x="95" y="285"/>
      <point x="106" y="280"/>
      <point x="119" y="267" type="curve"/>
      <point x="123" y="241" type="line"/>
      <point x="112" y="246"/>
      <point x="103" y="247"/>
      <point x="91" y="247" type="curve" smooth="yes"/>
      <point x="55" y="247"/>
      <point x="36" y="215"/>
      <point x="24" y="179" type="curve"/>
      <point x="69" y="102" type="line" smooth="yes"/>
      <point x="82" y="79"/>
      <point x="107" y="58"/>
      <point x="126" y="58" type="curve" smooth="yes"/>
      <point x="159" y="58"/>
      <point x="202" y="113"/>
      <point x="240" y="185" type="curve" smooth="yes"/>
      <point x="283" y="266"/>
      <point x="351" y="458"/>
      <point x="383" y="596" type="curve"/>
      <point x="353" y="606"/>
      <point x="331" y="634"/>
      <point x="331" y="667" type="curve" smooth="yes"/>
      <point x="331" y="708"/>
      <point x="364" y="743"/>
      <point x="405" y="743" type="curve" smooth="yes"/>
      <point x="446" y="743"/>
      <point x="479" y="708"/>
      <point x="479" y="667" type="curve" smooth="yes"/>
      <point x="479" y="631"/>
      <point x="454" y="602"/>
      <point x="420" y="595" type="curve"/>
      <point x="432" y="401"/>
      <point x="451" y="189"/>
      <point x="486" y="-26" type="curve"/>
    </contour>
    <contour>
      <point x="449" y="667" type="curve" smooth="yes"/>
      <point x="449" y="692"/>
      <point x="430" y="713"/>
      <point x="405" y="713" type="curve" smooth="yes"/>
      <point x="380" y="713"/>
      <point x="361" y="692"/>
      <point x="361" y="667" type="curve" smooth="yes"/>
      <point x="361" y="642"/>
      <point x="380" y="623"/>
      <point x="405" y="623" type="curve" smooth="yes"/>
      <point x="430" y="623"/>
      <point x="449" y="642"/>
    </contour>
    <contour>
      <point x="404" y="222" type="line"/>
      <point x="398" y="294"/>
      <point x="392" y="367"/>
      <point x="387" y="429" type="curve" smooth="yes"/>
      <point x="385" y="452"/>
      <point x="384" y="459"/>
      <point x="378" y="459" type="curve" smooth="yes"/>
      <point x="372" y="459"/>
      <point x="370" y="453"/>
      <point x="364" y="436" type="curve" smooth="yes"/>
      <point x="290" y="222" type="line"/>
    </contour>
  </outline>
</glyph>
<glyph name="AE" format="1">
  <advance width="698"/>
  <unicode hex="00C6"/>
  <outline>
    <contour>
      <point x="700" y="-23" type="line"/>
      <point x="645" y="-54"/>
      <point x="556" y="-78"/>
      <point x="467" y="-87" type="curve"/>
      <point x="458" y="-54"/>
      <point x="439" y="43"/>
      <point x="419" y="159" type="curve"/>
      <point x="355" y="160"/>
      <point x="305" y="163"/>
      <point x="266" y="170" type="curve"/>
      <point x="230" y="76"/>
      <point x="183" y="-2"/>
      <point x="124" y="-2" type="curve" smooth="yes"/>
      <point x="95" y="-2"/>
      <point x="66" y="19"/>
      <point x="46" y="62" type="curve" smooth="yes"/>
      <point x="0" y="159" type="line"/>
      <point x="19" y="231" type="line" smooth="yes"/>
      <point x="27" y="261"/>
      <point x="48" y="285"/>
      <point x="76" y="285" type="curve" smooth="yes"/>
      <point x="95" y="285"/>
      <point x="106" y="280"/>
      <point x="119" y="267" type="curve"/>
      <point x="123" y="241" type="line"/>
      <point x="112" y="246"/>
      <point x="103" y="247"/>
      <point x="91" y="247" type="curve" smooth="yes"/>
      <point x="55" y="247"/>
      <point x="36" y="215"/>
      <point x="24" y="179" type="curve"/>
      <point x="69" y="102" type="line" smooth="yes"/>
      <point x="82" y="79"/>
      <point x="107" y="58"/>
      <point x="126" y="58" type="curve" smooth="yes"/>
      <point x="159" y="58"/>
      <point x="211" y="109"/>
      <point x="240" y="185" type="curve" smooth="yes"/>
      <point x="274" y="273"/>
      <point x="324" y="465"/>
      <point x="355" y="618" type="curve"/>
      <point x="386" y="618" type="line"/>
      <point x="387" y="608"/>
      <point x="387" y="597"/>
      <point x="388" y="587" type="curve"/>
      <point x="464" y="586"/>
      <point x="617" y="589"/>
      <point x="663" y="594" type="curve"/>
      <point x="661" y="537" type="line"/>
      <point x="623" y="462" type="line"/>
      <point x="610" y="464" type="line"/>
      <point x="610" y="538" type="line"/>
      <point x="575" y="538"/>
      <point x="455" y="533"/>
      <point x="394" y="528" type="curve"/>
      <point x="404" y="434"/>
      <point x="421" y="324"/>
      <point x="441" y="219" type="curve"/>
      <point x="512" y="220"/>
      <point x="578" y="228"/>
      <point x="633" y="242" type="curve"/>
      <point x="638" y="233" type="line"/>
      <point x="600" y="188" type="line"/>
      <point x="561" y="174"/>
      <point x="504" y="162"/>
      <point x="452" y="159" type="curve"/>
      <point x="465" y="95"/>
      <point x="478" y="34"/>
      <point x="490" y="-18" type="curve"/>
      <point x="511" y="-20"/>
      <point x="524" y="-20"/>
      <point x="553" y="-20" type="curve" smooth="yes"/>
      <point x="592" y="-20"/>
      <point x="656" y="-17"/>
      <point x="695" y="-7" type="curve"/>
    </contour>
    <contour>
      <point x="409" y="219" type="curve"/>
      <point x="397" y="290"/>
      <point x="385" y="366"/>
      <point x="375" y="436" type="curve" smooth="yes"/>
      <point x="371" y="466"/>
      <point x="368" y="469"/>
      <point x="359" y="469" type="curve" smooth="yes"/>
      <point x="350" y="469"/>
      <point x="347" y="463"/>
      <point x="342" y="441" type="curve" smooth="yes"/>
      <point x="331" y="390"/>
      <point x="312" y="309"/>
      <point x="287" y="230" type="curve"/>
      <point x="318" y="223"/>
      <point x="360" y="220"/>
    </contour>
  </outline>
</glyph>
<glyph name="Ccedilla" format="1">
  <advance width="377"/>
  <unicode hex="00C7"/>
  <outline>
    <contour>
      <point x="378" y="539" type="curve" smooth="yes"/>
      <point x="378" y="514"/>
      <point x="373" y="463"/>
      <point x="368" y="427" type="curve"/>
      <point x="322" y="399" type="line"/>
      <point x="322" y="416"/>
      <point x="324" y="449"/>
      <point x="324" y="478" type="curve" smooth="yes"/>
      <point x="324" y="512"/>
      <point x="309" y="544"/>
      <point x="285" y="558" type="curve"/>
      <point x="208" y="512"/>
      <point x="115" y="407"/>
      <point x="115" y="276" type="curve" smooth="yes"/>
      <point x="115" y="118"/>
      <point x="233" y="-12"/>
      <point x="361" y="-77" type="curve"/>
      <point x="348" y="-96" type="line"/>
      <point x="211" y="-32"/>
      <point x="48" y="90"/>
      <point x="48" y="281" type="curve" smooth="yes"/>
      <point x="48" y="478"/>
      <point x="192" y="580"/>
      <point x="326" y="612" type="curve"/>
      <point x="359" y="604"/>
      <point x="378" y="574"/>
    </contour>
    <contour>
      <point x="302" y="-86" type="line"/>
      <point x="292" y="-145"/>
      <point x="259" y="-185"/>
      <point x="223" y="-202" type="curve"/>
      <point x="211" y="-189" type="line"/>
      <point x="233" y="-172"/>
      <point x="250" y="-149"/>
      <point x="254" y="-123" type="curve"/>
      <point x="215" y="-109" type="line"/>
      <point x="227" y="-81" type="line"/>
    </contour>
  </outline>
</glyph>
<glyph name="Edieresis" format="1">
  <advance width="365"/>
  <unicode hex="00CB"/>
  <outline>
    <contour>
      <point x="201" y="656" type="curve"/>
      <point x="146" y="647" type="line"/>
      <point x="137" y="656"/>
      <point x="132" y="669"/>
      <point x="132" y="680" type="curve" smooth="yes"/>
      <point x="132" y="707"/>
      <point x="168" y="717"/>
      <point x="194" y="720" type="curve"/>
      <point x="192" y="695"/>
      <point x="196" y="675"/>
    </contour>
    <contour>
      <point x="319" y="713" type="line"/>
      <point x="310" y="691"/>
      <point x="305" y="665"/>
      <point x="305" y="643" type="curve"/>
      <point x="279" y="646"/>
      <point x="249" y="655"/>
      <point x="249" y="680" type="curve" smooth="yes"/>
      <point x="249" y="691"/>
      <point x="252" y="698"/>
      <point x="258" y="708" type="curve"/>
    </contour>
    <component base="E"/>
  </outline>
</glyph>
<glyph name="Idieresis" format="1">
  <advance width="160"/>
  <unicode hex="00CF"/>
  <outline>
    <contour>
      <point x="100" y="641" type="curve"/>
      <point x="45" y="632" type="line"/>
      <point x="36" y="641"/>
      <point x="31" y="654"/>
      <point x="31" y="665" type="curve" smooth="yes"/>
      <point x="31" y="692"/>
      <point x="67" y="702"/>
      <point x="93" y="705" type="curve"/>
      <point x="91" y="680"/>
      <point x="95" y="660"/>
    </contour>
    <contour>
      <point x="208" y="698" type="line"/>
      <point x="199" y="676"/>
      <point x="194" y="650"/>
      <point x="194" y="628" type="curve"/>
      <point x="168" y="631"/>
      <point x="138" y="640"/>
      <point x="138" y="665" type="curve" smooth="yes"/>
      <point x="138" y="676"/>
      <point x="141" y="683"/>
      <point x="147" y="693" type="curve"/>
    </contour>
    <component base="I"/>
  </outline>
</glyph>
<glyph name="Odieresis" format="1">
  <advance width="523"/>
  <unicode hex="00D6"/>
  <outline>
    <contour>
      <point x="314" y="632" type="curve"/>
      <point x="259" y="623" type="line"/>
      <point x="250" y="632"/>
      <point x="245" y="645"/>
      <point x="245" y="656" type="curve" smooth="yes"/>
      <point x="245" y="683"/>
      <point x="281" y="693"/>
      <point x="307" y="696" type="curve"/>
      <point x="305" y="671"/>
      <point x="309" y="651"/>
    </contour>
    <contour>
      <point x="444" y="689" type="line"/>
      <point x="435" y="667"/>
      <point x="430" y="641"/>
      <point x="430" y="619" type="curve"/>
      <point x="404" y="622"/>
      <point x="374" y="631"/>
      <point x="374" y="656" type="curve" smooth="yes"/>
      <point x="374" y="667"/>
      <point x="377" y="674"/>
      <point x="383" y="684" type="curve"/>
    </contour>
    <component base="O"/>
  </outline>
</glyph>
<glyph name="Oslash" format="1">
  <advance width="523"/>
  <unicode hex="00D8"/>
  <outline>
    <contour>
      <point x="543" y="448" type="curve"/>
      <point x="486" y="424" type="line"/>
      <point x="497" y="385"/>
      <point x="503" y="360"/>
      <point x="503" y="321" type="curve" smooth="yes"/>
      <point x="503" y="172"/>
      <point x="431" y="-48"/>
      <point x="272" y="-74" type="curve"/>
      <point x="265" y="-128" type="line"/>
      <point x="242" y="-126" type="line"/>
      <point x="248" y="-76" type="line"/>
      <point x="246" y="-76"/>
      <point x="244" y="-76"/>
      <point x="241" y="-76" type="curve" smooth="yes"/>
      <point x="111" y="-76"/>
      <point x="44" y="55"/>
      <point x="44" y="199" type="curve" smooth="yes"/>
      <point x="44" y="358"/>
      <point x="136" y="510"/>
      <point x="281" y="575" type="curve"/>
      <point x="291" y="556" type="line"/>
      <point x="162" y="495"/>
      <point x="94" y="356"/>
      <point x="94" y="225" type="curve" smooth="yes"/>
      <point x="94" y="113"/>
      <point x="132" y="13"/>
      <point x="256" y="-10" type="curve"/>
      <point x="337" y="619" type="line"/>
      <point x="360" y="618" type="line"/>
      <point x="280" y="-13" type="line"/>
      <point x="303" y="-15"/>
      <point x="330" y="-15"/>
      <point x="359" y="-12" type="curve"/>
      <point x="416" y="81"/>
      <point x="451" y="181"/>
      <point x="451" y="297" type="curve" smooth="yes"/>
      <point x="451" y="341"/>
      <point x="447" y="376"/>
      <point x="434" y="415" type="curve"/>
      <point x="416" y="422"/>
      <point x="398" y="433"/>
      <point x="382" y="445" type="curve"/>
      <point x="382" y="478" type="line"/>
      <point x="451" y="507" type="line"/>
      <point x="457" y="477"/>
      <point x="510" y="448"/>
    </contour>
  </outline>
</glyph>
<glyph name="Udieresis" format="1">
  <advance width="514"/>
  <unicode hex="00DC"/>
  <outline>
    <contour>
      <point x="346" y="622" type="curve"/>
      <point x="291" y="613" type="line"/>
      <point x="282" y="622"/>
      <point x="277" y="635"/>
      <point x="277" y="646" type="curve" smooth="yes"/>
      <point x="277" y="673"/>
      <point x="313" y="683"/>
      <point x="339" y="686" type="curve"/>
      <point x="337" y="661"/>
      <point x="341" y="641"/>
    </contour>
    <contour>
      <point x="464" y="679" type="line"/>
      <point x="455" y="657"/>
      <point x="450" y="631"/>
      <point x="450" y="609" type="curve"/>
      <point x="424" y="612"/>
      <point x="394" y="621"/>
      <point x="394" y="646" type="curve" smooth="yes"/>
      <point x="394" y="657"/>
      <point x="397" y="664"/>
      <point x="403" y="674" type="curve"/>
    </contour>
    <component base="U"/>
  </outline>
</glyph>
<glyph name="Thorn" format="1">
  <advance width="408"/>
  <unicode hex="00DE"/>
  <outline>
    <contour>
      <point x="404" y="308" type="curve" smooth="yes"/>
      <point x="404" y="219"/>
      <point x="288" y="150"/>
      <point x="194" y="105" type="curve"/>
      <point x="142" y="105" type="line"/>
      <point x="235" y="159"/>
      <point x="323" y="228"/>
      <point x="323" y="295" type="curve" smooth="yes"/>
      <point x="323" y="351"/>
      <point x="265" y="365"/>
      <point x="162" y="367" type="curve"/>
      <point x="103" y="-73" type="line"/>
      <point x="78" y="-81" type="line"/>
      <point x="136" y="367" type="line"/>
      <point x="120" y="367"/>
      <point x="110" y="366"/>
      <point x="97" y="365" type="curve"/>
      <point x="67" y="423" type="line"/>
      <point x="86" y="425"/>
      <point x="116" y="428"/>
      <point x="143" y="429" type="curve"/>
      <point x="158" y="542" type="line"/>
      <point x="101" y="562" type="line"/>
      <point x="110" y="585" type="line"/>
      <point x="191" y="585" type="line"/>
      <point x="170" y="429" type="line"/>
      <point x="309" y="428"/>
      <point x="404" y="399"/>
    </contour>
  </outline>
</glyph>
<glyph name="germandbls" format="1">
  <advance width="241"/>
  <unicode hex="00DF"/>
  <outline>
    <contour>
      <point x="218" y="59" type="curve"/>
      <point x="205" y="1" type="line"/>
      <point x="192" y="-4"/>
      <point x="174" y="-8"/>
      <point x="154" y="-8" type="curve" smooth="yes"/>
      <point x="132" y="-8"/>
      <point x="108" y="3"/>
      <point x="94" y="19" type="curve"/>
      <point x="106" y="75" type="line"/>
      <point x="154" y="94"/>
      <point x="187" y="119"/>
      <point x="187" y="181" type="curve" smooth="yes"/>
      <point x="187" y="188"/>
      <point x="187" y="195"/>
      <point x="186" y="203" type="curve"/>
      <point x="122" y="203" type="line"/>
      <point x="119" y="209" type="line"/>
      <point x="136" y="240"/>
      <point x="158" y="312"/>
      <point x="158" y="377" type="curve" smooth="yes"/>
      <point x="158" y="410"/>
      <point x="140" y="446"/>
      <point x="119" y="462" type="curve"/>
      <point x="93" y="403"/>
      <point x="61" y="265"/>
      <point x="61" y="120" type="curve" smooth="yes"/>
      <point x="61" y="76"/>
      <point x="66" y="14"/>
      <point x="66" y="-45" type="curve" smooth="yes"/>
      <point x="66" y="-110"/>
      <point x="55" y="-174"/>
      <point x="33" y="-243" type="curve"/>
      <point x="91" y="-209" type="line"/>
      <point x="52" y="-287" type="line"/>
      <point x="-13" y="-307" type="line"/>
      <point x="24" y="-192"/>
      <point x="38" y="-84"/>
      <point x="38" y="54" type="curve" smooth="yes"/>
      <point x="38" y="109"/>
      <point x="39" y="161"/>
      <point x="42" y="212" type="curve"/>
      <point x="16" y="217" type="line"/>
      <point x="23" y="245"/>
      <point x="34" y="267"/>
      <point x="48" y="288" type="curve"/>
      <point x="59" y="401"/>
      <point x="81" y="502"/>
      <point x="122" y="587" type="curve"/>
      <point x="161" y="570" type="line"/>
      <point x="172" y="536"/>
      <point x="184" y="462"/>
      <point x="184" y="403" type="curve" smooth="yes"/>
      <point x="184" y="354"/>
      <point x="168" y="292"/>
      <point x="154" y="256" type="curve"/>
      <point x="218" y="254" type="line"/>
      <point x="212" y="147"/>
      <point x="192" y="97"/>
      <point x="144" y="61" type="curve"/>
      <point x="153" y="57"/>
      <point x="169" y="55"/>
      <point x="178" y="55" type="curve" smooth="yes"/>
      <point x="186" y="55"/>
      <point x="205" y="56"/>
    </contour>
  </outline>
</glyph>
<glyph name="ae" format="1">
  <advance width="280"/>
  <unicode hex="00E6"/>
  <outline>
    <contour>
      <point x="268" y="72" type="line"/>
      <point x="239" y="32"/>
      <point x="206" y="-4"/>
      <point x="177" y="-4" type="curve" smooth="yes"/>
      <point x="149" y="-4"/>
      <point x="133" y="19"/>
      <point x="127" y="49" type="curve"/>
      <point x="111" y="20"/>
      <point x="85" y="-7"/>
      <point x="55" y="-7" type="curve" smooth="yes"/>
      <point x="25" y="-7"/>
      <point x="10" y="24"/>
      <point x="10" y="54" type="curve" smooth="yes"/>
      <point x="10" y="83"/>
      <point x="22" y="101"/>
      <point x="44" y="118" type="curve"/>
      <point x="66" y="119"/>
      <point x="104" y="122"/>
      <point x="127" y="125" type="curve"/>
      <point x="126" y="176"/>
      <point x="116" y="202"/>
      <point x="96" y="202" type="curve" smooth="yes"/>
      <point x="78" y="202"/>
      <point x="65" y="195"/>
      <point x="57" y="187" type="curve"/>
      <point x="46" y="197" type="line"/>
      <point x="65" y="250" type="line"/>
      <point x="75" y="255"/>
      <point x="86" y="257"/>
      <point x="93" y="257" type="curve" smooth="yes"/>
      <point x="125" y="257"/>
      <point x="141" y="237"/>
      <point x="148" y="197" type="curve"/>
      <point x="157" y="220"/>
      <point x="167" y="242"/>
      <point x="179" y="264" type="curve"/>
      <point x="237" y="241"/>
      <point x="267" y="221"/>
      <point x="267" y="198" type="curve" smooth="yes"/>
      <point x="267" y="164"/>
      <point x="214" y="129"/>
      <point x="160" y="110" type="curve"/>
      <point x="162" y="87"/>
      <point x="173" y="56"/>
      <point x="187" y="41" type="curve"/>
      <point x="210" y="47"/>
      <point x="239" y="65"/>
      <point x="256" y="87" type="curve"/>
    </contour>
    <contour>
      <point x="224" y="180" type="curve" smooth="yes"/>
      <point x="224" y="191"/>
      <point x="201" y="201"/>
      <point x="174" y="208" type="curve"/>
      <point x="162" y="176"/>
      <point x="159" y="158"/>
      <point x="159" y="129" type="curve"/>
      <point x="201" y="144"/>
      <point x="224" y="162"/>
    </contour>
    <contour>
      <point x="125" y="107" type="curve"/>
      <point x="107" y="104"/>
      <point x="78" y="101"/>
      <point x="63" y="100" type="curve"/>
      <point x="57" y="91"/>
      <point x="54" y="81"/>
      <point x="54" y="72" type="curve" smooth="yes"/>
      <point x="54" y="54"/>
      <point x="62" y="43"/>
      <point x="75" y="43" type="curve" smooth="yes"/>
      <point x="95" y="43"/>
      <point x="111" y="56"/>
      <point x="124" y="75" type="curve"/>
      <point x="124" y="83"/>
      <point x="124" y="98"/>
    </contour>
  </outline>
</glyph>
<glyph name="ccedilla" format="1">
  <advance width="170"/>
  <unicode hex="00E7"/>
  <outline>
    <contour>
      <point x="157" y="111" type="line"/>
      <point x="143" y="72"/>
      <point x="117" y="30"/>
      <point x="89" y="-6" type="curve"/>
      <point x="28" y="13" type="line"/>
      <point x="29" y="37"/>
      <point x="29" y="59"/>
      <point x="31" y="79" type="curve" smooth="yes"/>
      <point x="38" y="168"/>
      <point x="58" y="215"/>
      <point x="90" y="275" type="curve"/>
      <point x="148" y="265" type="line"/>
      <point x="148" y="201" type="line"/>
      <point x="99" y="212" type="line"/>
      <point x="75" y="171"/>
      <point x="62" y="131"/>
      <point x="62" y="94" type="curve" smooth="yes"/>
      <point x="62" y="71"/>
      <point x="63" y="59"/>
      <point x="66" y="47" type="curve"/>
      <point x="93" y="58"/>
      <point x="125" y="94"/>
      <point x="136" y="121" type="curve"/>
    </contour>
    <contour>
      <point x="104" y="-30" type="line"/>
      <point x="97" y="-76"/>
      <point x="71" y="-107"/>
      <point x="43" y="-120" type="curve"/>
      <point x="34" y="-110" type="line"/>
      <point x="51" y="-97"/>
      <point x="63" y="-81"/>
      <point x="66" y="-61" type="curve"/>
      <point x="36" y="-50" type="line"/>
      <point x="47" y="-27" type="line"/>
    </contour>
  </outline>
</glyph>
<glyph name="eth" format="1">
  <advance width="185"/>
  <unicode hex="00F0"/>
  <outline>
    <contour>
      <point x="167" y="162" type="curve" smooth="yes"/>
      <point x="167" y="86"/>
      <point x="117" y="-4"/>
      <point x="59" y="-4" type="curve" smooth="yes"/>
      <point x="32" y="-4"/>
      <point x="17" y="21"/>
      <point x="17" y="56" type="curve" smooth="yes"/>
      <point x="17" y="126"/>
      <point x="78" y="212"/>
      <point x="113" y="242" type="curve"/>
      <point x="100" y="297"/>
      <point x="90" y="347"/>
      <point x="82" y="390" type="curve"/>
      <point x="23" y="363" type="line"/>
      <point x="18" y="380" type="line"/>
      <point x="77" y="414" type="line"/>
      <point x="68" y="465"/>
      <point x="63" y="504"/>
      <point x="64" y="528" type="curve"/>
      <point x="95" y="539" type="line"/>
      <point x="95" y="536"/>
      <point x="95" y="533"/>
      <point x="95" y="530" type="curve" smooth="yes"/>
      <point x="95" y="504"/>
      <point x="99" y="474"/>
      <point x="108" y="432" type="curve"/>
      <point x="163" y="464" type="line"/>
      <point x="167" y="428" type="line"/>
      <point x="167" y="428"/>
      <point x="115" y="405"/>
      <point x="115" y="404" type="curve"/>
      <point x="120" y="384"/>
      <point x="125" y="362"/>
      <point x="132" y="337" type="curve" smooth="yes"/>
      <point x="149" y="270"/>
      <point x="167" y="205"/>
    </contour>
    <contour>
      <point x="142" y="109" type="curve"/>
      <point x="119" y="217" type="line"/>
      <point x="89" y="185"/>
      <point x="63" y="126"/>
      <point x="63" y="83" type="curve" smooth="yes"/>
      <point x="63" y="64"/>
      <point x="69" y="53"/>
      <point x="82" y="53" type="curve" smooth="yes"/>
      <point x="100" y="53"/>
      <point x="131" y="87"/>
    </contour>
  </outline>
</glyph>
<glyph name="oslash" format="1">
  <advance width="173"/>
  <unicode hex="00F8"/>
  <outline>
    <contour>
      <point x="181" y="267" type="line"/>
      <point x="173" y="217" type="line"/>
      <point x="138" y="204" type="line"/>
      <point x="141" y="186"/>
      <point x="143" y="175"/>
      <point x="143" y="155" type="curve" smooth="yes"/>
      <point x="143" y="87"/>
      <point x="120" y="-5"/>
      <point x="67" y="-5" type="curve" smooth="yes"/>
      <point x="62" y="-5"/>
      <point x="58" y="-4"/>
      <point x="54" y="-3" type="curve"/>
      <point x="42" y="-43" type="line"/>
      <point x="29" y="-38" type="line"/>
      <point x="42" y="3" type="line"/>
      <point x="26" y="14"/>
      <point x="19" y="36"/>
      <point x="19" y="58" type="curve" smooth="yes"/>
      <point x="19" y="120"/>
      <point x="54" y="189"/>
      <point x="99" y="245" type="curve"/>
      <point x="118" y="250" type="line"/>
      <point x="133" y="300" type="line"/>
      <point x="146" y="296" type="line"/>
      <point x="133" y="254" type="line"/>
    </contour>
    <contour>
      <point x="106" y="211" type="line"/>
      <point x="62" y="170"/>
      <point x="48" y="121"/>
      <point x="48" y="97" type="curve" smooth="yes"/>
      <point x="48" y="77"/>
      <point x="51" y="66"/>
      <point x="59" y="60" type="curve"/>
    </contour>
    <contour>
      <point x="123" y="120" type="curve"/>
      <point x="111" y="183" type="line"/>
      <point x="72" y="56" type="line"/>
      <point x="96" y="56"/>
      <point x="111" y="88"/>
    </contour>
  </outline>
</glyph>
<glyph name="thorn" format="1">
  <advance width="215"/>
  <unicode hex="00FE"/>
  <outline>
    <contour>
      <point x="200" y="178" type="curve" smooth="yes"/>
      <point x="200" y="95"/>
      <point x="156" y="6"/>
      <point x="65" y="3" type="curve"/>
      <point x="66" y="-13"/>
      <point x="66" y="-29"/>
      <point x="66" y="-45" type="curve" smooth="yes"/>
      <point x="66" y="-110"/>
      <point x="55" y="-174"/>
      <point x="33" y="-243" type="curve"/>
      <point x="91" y="-209" type="line"/>
      <point x="52" y="-287" type="line"/>
      <point x="-13" y="-307" type="line"/>
      <point x="32" y="-165"/>
      <point x="34" y="-115"/>
      <point x="34" y="54" type="curve" smooth="yes"/>
      <point x="34" y="215"/>
      <point x="51" y="394"/>
      <point x="140" y="556" type="curve"/>
      <point x="178" y="563" type="line"/>
      <point x="110" y="450"/>
      <point x="73" y="308"/>
      <point x="63" y="183" type="curve"/>
      <point x="161" y="272" type="line"/>
      <point x="190" y="245"/>
      <point x="200" y="212"/>
    </contour>
    <contour>
      <point x="162" y="138" type="curve" smooth="yes"/>
      <point x="162" y="167"/>
      <point x="155" y="191"/>
      <point x="137" y="218" type="curve"/>
      <point x="62" y="150" type="line"/>
      <point x="61" y="140"/>
      <point x="61" y="130"/>
      <point x="61" y="120" type="curve" smooth="yes"/>
      <point x="61" y="101"/>
      <point x="62" y="78"/>
      <point x="63" y="53" type="curve"/>
      <point x="134" y="59"/>
      <point x="162" y="87"/>
    </contour>
  </outline>
</glyph>
<glyph name="dotlessi" format="1">
  <advance width="119"/>
  <unicode hex="0131"/>
  <outline>
    <contour>
      <point x="99" y="256" type="line"/>
      <point x="62" y="51" type="line"/>
      <point x="98" y="71" type="line"/>
      <point x="98" y="39" type="line"/>
      <point x="29" y="-8" type="line"/>
      <point x="32" y="153" type="line"/>
      <point x="60" y="239" type="line"/>
    </contour>
  </outline>
</glyph>
<glyph name="Lslash" format="1">
  <advance width="467"/>
  <unicode hex="0141"/>
  <outline>
    <contour>
      <point x="517" y="-59" type="line"/>
      <point x="436" y="-84" type="line"/>
      <point x="344" y="-61" type="line"/>
      <point x="297" y="-37"/>
      <point x="226" y="-3"/>
      <point x="185" y="13" type="curve"/>
      <point x="137" y="6" type="line"/>
      <point x="153" y="25" type="line"/>
      <point x="117" y="38"/>
      <point x="81" y="47"/>
      <point x="49" y="48" type="curve"/>
      <point x="65" y="11"/>
      <point x="96" y="-27"/>
      <point x="120" y="-45" type="curve"/>
      <point x="109" y="-57" type="line"/>
      <point x="41" y="-50"/>
      <point x="-6" y="-14"/>
      <point x="-9" y="45" type="curve"/>
      <point x="25" y="105" type="line"/>
      <point x="37" y="109"/>
      <point x="49" y="111"/>
      <point x="70" y="111" type="curve" smooth="yes"/>
      <point x="110" y="111"/>
      <point x="156" y="100"/>
      <point x="202" y="85" type="curve"/>
      <point x="235" y="128"/>
      <point x="265" y="172"/>
      <point x="292" y="219" type="curve"/>
      <point x="269" y="212"/>
      <point x="244" y="206"/>
      <point x="216" y="202" type="curve"/>
      <point x="204" y="235" type="line"/>
      <point x="248" y="240"/>
      <point x="283" y="247"/>
      <point x="313" y="257" type="curve"/>
      <point x="370" y="363"/>
      <point x="412" y="479"/>
      <point x="434" y="600" type="curve"/>
      <point x="468" y="600" type="line"/>
      <point x="477" y="579"/>
      <point x="480" y="558"/>
      <point x="480" y="530" type="curve" smooth="yes"/>
      <point x="480" y="500"/>
      <point x="469" y="455"/>
      <point x="459" y="431" type="curve"/>
      <point x="429" y="446" type="line"/>
      <point x="415" y="390"/>
      <point x="391" y="332"/>
      <point x="361" y="276" type="curve"/>
      <point x="385" y="287"/>
      <point x="404" y="301"/>
      <point x="421" y="315" type="curve"/>
      <point x="435" y="304" type="line"/>
      <point x="409" y="279"/>
      <point x="378" y="256"/>
      <point x="340" y="238" type="curve"/>
      <point x="306" y="178"/>
      <point x="267" y="122"/>
      <point x="227" y="76" type="curve"/>
      <point x="292" y="51"/>
      <point x="359" y="16"/>
      <point x="398" y="-6" type="curve" smooth="yes"/>
      <point x="433" y="-26"/>
      <point x="477" y="-47"/>
      <point x="517" y="-50" type="curve"/>
    </contour>
  </outline>
</glyph>
<glyph name="lslash" format="1">
  <advance width="144"/>
  <unicode hex="0142"/>
  <outline>
    <contour>
      <point x="162" y="305" type="line"/>
      <point x="104" y="279" type="line"/>
      <point x="100" y="262"/>
      <point x="96" y="247"/>
      <point x="92" y="235" type="curve" smooth="yes"/>
      <point x="71" y="173"/>
      <point x="65" y="154"/>
      <point x="65" y="130" type="curve" smooth="yes"/>
      <point x="65" y="107"/>
      <point x="66" y="89"/>
      <point x="72" y="67" type="curve"/>
      <point x="116" y="122" type="line"/>
      <point x="141" y="114" type="line"/>
      <point x="69" y="-8" type="line"/>
      <point x="31" y="10" type="line"/>
      <point x="29" y="31"/>
      <point x="29" y="50"/>
      <point x="29" y="64" type="curve" smooth="yes"/>
      <point x="29" y="94"/>
      <point x="36" y="130"/>
      <point x="47" y="183" type="curve" smooth="yes"/>
      <point x="52" y="206"/>
      <point x="57" y="232"/>
      <point x="62" y="260" type="curve"/>
      <point x="18" y="240" type="line"/>
      <point x="13" y="257" type="line"/>
      <point x="67" y="288" type="line"/>
      <point x="79" y="361"/>
      <point x="88" y="446"/>
      <point x="87" y="536" type="curve"/>
      <point x="138" y="558" type="line"/>
      <point x="134" y="454"/>
      <point x="123" y="373"/>
      <point x="112" y="314" type="curve"/>
      <point x="158" y="341" type="line"/>
    </contour>
  </outline>
</glyph>
<glyph name="OE" format="1">
  <advance width="674"/>
  <unicode hex="0152"/>
  <outline>
    <contour>
      <point x="674" y="522" type="line"/>
      <point x="655" y="431" type="line"/>
      <point x="628" y="429" type="line"/>
      <point x="641" y="537" type="line"/>
      <point x="452" y="537" type="line"/>
      <point x="472" y="500"/>
      <point x="503" y="400"/>
      <point x="503" y="321" type="curve" smooth="yes"/>
      <point x="503" y="163"/>
      <point x="422" y="-76"/>
      <point x="241" y="-76" type="curve" smooth="yes"/>
      <point x="111" y="-76"/>
      <point x="44" y="55"/>
      <point x="44" y="199" type="curve" smooth="yes"/>
      <point x="44" y="377"/>
      <point x="156" y="546"/>
      <point x="343" y="597" type="curve"/>
      <point x="347" y="577" type="line"/>
      <point x="181" y="532"/>
      <point x="94" y="374"/>
      <point x="94" y="225" type="curve" smooth="yes"/>
      <point x="94" y="98"/>
      <point x="142" y="-15"/>
      <point x="316" y="-15" type="curve" smooth="yes"/>
      <point x="330" y="-15"/>
      <point x="343" y="-14"/>
      <point x="359" y="-12" type="curve"/>
      <point x="416" y="81"/>
      <point x="451" y="181"/>
      <point x="451" y="297" type="curve" smooth="yes"/>
      <point x="451" y="368"/>
      <point x="421" y="469"/>
      <point x="400" y="505" type="curve"/>
      <point x="437" y="578" type="line"/>
      <point x="476" y="586"/>
      <point x="618" y="595"/>
      <point x="652" y="595" type="curve"/>
    </contour>
    <contour>
      <point x="674" y="260" type="curve"/>
      <point x="673" y="250" type="line"/>
      <point x="630" y="218" type="line"/>
      <point x="611" y="219"/>
      <point x="548" y="221"/>
      <point x="525" y="221" type="curve"/>
      <point x="547" y="265" type="line"/>
      <point x="576" y="265"/>
      <point x="638" y="262"/>
    </contour>
    <contour>
      <point x="646" y="-8" type="curve"/>
      <point x="608" y="-65" type="line"/>
      <point x="592" y="-64"/>
      <point x="580" y="-63"/>
      <point x="560" y="-63" type="curve" smooth="yes"/>
      <point x="511" y="-63"/>
      <point x="443" y="-65"/>
      <point x="394" y="-71" type="curve"/>
      <point x="435" y="-4" type="line"/>
      <point x="477" y="-6"/>
      <point x="611" y="-8"/>
    </contour>
  </outline>
</glyph>
<glyph name="oe" format="1">
  <advance width="257"/>
  <unicode hex="0153"/>
  <outline>
    <contour>
      <point x="245" y="72" type="line"/>
      <point x="216" y="32"/>
      <point x="183" y="-4"/>
      <point x="154" y="-4" type="curve" smooth="yes"/>
      <point x="130" y="-4"/>
      <point x="118" y="12"/>
      <point x="111" y="34" type="curve"/>
      <point x="95" y="14"/>
      <point x="73" y="-4"/>
      <point x="50" y="-4" type="curve" smooth="yes"/>
      <point x="29" y="-4"/>
      <point x="15" y="22"/>
      <point x="15" y="53" type="curve" smooth="yes"/>
      <point x="15" y="135"/>
      <point x="83" y="242"/>
      <point x="156" y="264" type="curve"/>
      <point x="214" y="241"/>
      <point x="244" y="221"/>
      <point x="244" y="198" type="curve" smooth="yes"/>
      <point x="244" y="166"/>
      <point x="192" y="130"/>
      <point x="143" y="102" type="curve"/>
      <point x="145" y="76"/>
      <point x="154" y="52"/>
      <point x="164" y="41" type="curve"/>
      <point x="187" y="47"/>
      <point x="216" y="65"/>
      <point x="233" y="87" type="curve"/>
    </contour>
    <contour>
      <point x="201" y="180" type="curve" smooth="yes"/>
      <point x="201" y="191"/>
      <point x="178" y="201"/>
      <point x="151" y="208" type="curve"/>
      <point x="144" y="176"/>
      <point x="142" y="146"/>
      <point x="142" y="117" type="curve"/>
      <point x="178" y="139"/>
      <point x="201" y="164"/>
    </contour>
    <contour>
      <point x="130" y="210" type="curve"/>
      <point x="82" y="196"/>
      <point x="48" y="132"/>
      <point x="48" y="76" type="curve" smooth="yes"/>
      <point x="48" y="58"/>
      <point x="57" y="44"/>
      <point x="73" y="44" type="curve" smooth="yes"/>
      <point x="85" y="44"/>
      <point x="97" y="49"/>
      <point x="107" y="56" type="curve"/>
      <point x="106" y="65"/>
      <point x="106" y="74"/>
      <point x="106" y="83" type="curve" smooth="yes"/>
      <point x="106" y="121"/>
      <point x="113" y="166"/>
    </contour>
  </outline>
</glyph>
<glyph name="Ydieresis" format="1">
  <advance width="646"/>
  <unicode hex="0178"/>
  <outline>
    <contour>
      <point x="403" y="581" type="curve"/>
      <point x="348" y="572" type="line"/>
      <point x="339" y="581"/>
      <point x="334" y="594"/>
      <point x="334" y="605" type="curve" smooth="yes"/>
      <point x="334" y="632"/>
      <point x="370" y="642"/>
      <point x="396" y="645" type="curve"/>
      <point x="394" y="620"/>
      <point x="398" y="600"/>
    </contour>
    <contour>
      <point x="541" y="638" type="line"/>
      <point x="532" y="616"/>
      <point x="527" y="590"/>
      <point x="527" y="568" type="curve"/>
      <point x="501" y="571"/>
      <point x="471" y="580"/>
      <point x="471" y="605" type="curve" smooth="yes"/>
      <point x="471" y="616"/>
      <point x="474" y="623"/>
      <point x="480" y="633" type="curve"/>
    </contour>
    <component base="Y"/>
  </outline>
</glyph>
<glyph name="florin" format="1">
  <advance width="200"/>
  <unicode hex="0192"/>
  <outline>
    <contour>
      <point x="246" y="465" type="line"/>
      <point x="226" y="482"/>
      <point x="172" y="501"/>
      <point x="151" y="504" type="curve"/>
      <point x="126" y="471"/>
      <point x="95" y="369"/>
      <point x="85" y="293" type="curve"/>
      <point x="103" y="276"/>
      <point x="134" y="269"/>
      <point x="184" y="269" type="curve"/>
      <point x="146" y="227" type="line"/>
      <point x="76" y="210" type="line"/>
      <point x="75" y="194"/>
      <point x="75" y="165"/>
      <point x="75" y="146" type="curve" smooth="yes"/>
      <point x="75" y="105"/>
      <point x="78" y="11"/>
      <point x="78" y="-81" type="curve" smooth="yes"/>
      <point x="78" y="-140"/>
      <point x="55" y="-194"/>
      <point x="20" y="-238" type="curve"/>
      <point x="-8" y="-245" type="line"/>
      <point x="-53" y="-189" type="line"/>
      <point x="-49" y="-144" type="line"/>
      <point x="-32" y="-158"/>
      <point x="0" y="-173"/>
      <point x="24" y="-179" type="curve"/>
      <point x="46" y="-126"/>
      <point x="50" y="-41"/>
      <point x="50" y="212" type="curve"/>
      <point x="26" y="217" type="line"/>
      <point x="33" y="245"/>
      <point x="44" y="267"/>
      <point x="58" y="288" type="curve"/>
      <point x="69" y="401"/>
      <point x="91" y="502"/>
      <point x="132" y="587" type="curve"/>
      <point x="197" y="566" type="line"/>
      <point x="245" y="516" type="line"/>
    </contour>
  </outline>
</glyph>
<glyph name="circumflex" format="1">
  <advance width="220"/>
  <unicode hex="02C6"/>
  <outline>
    <contour>
      <point x="172" y="310" type="curve"/>
      <point x="155" y="295" type="line"/>
      <point x="149" y="315"/>
      <point x="129" y="332"/>
      <point x="110" y="332" type="curve"/>
      <point x="53" y="295" type="line"/>
      <point x="48" y="308" type="line"/>
      <point x="106" y="375" type="line"/>
      <point x="140" y="372"/>
      <point x="164" y="344"/>
    </contour>
  </outline>
</glyph>
<glyph name="caron" format="1">
  <advance width="220"/>
  <unicode hex="02C7"/>
  <outline>
    <contour>
      <point x="172" y="358" type="line"/>
      <point x="114" y="291" type="line"/>
      <point x="80" y="294"/>
      <point x="56" y="322"/>
      <point x="48" y="356" type="curve"/>
      <point x="65" y="371" type="line"/>
      <point x="71" y="351"/>
      <point x="91" y="334"/>
      <point x="110" y="334" type="curve"/>
      <point x="167" y="371" type="line"/>
    </contour>
  </outline>
</glyph>
<glyph name="breve" format="1">
  <advance width="220"/>
  <unicode hex="02D8"/>
  <outline>
    <contour>
      <point x="186" y="375" type="line"/>
      <point x="174" y="328"/>
      <point x="145" y="304"/>
      <point x="110" y="304" type="curve" smooth="yes"/>
      <point x="74" y="304"/>
      <point x="50" y="319"/>
      <point x="36" y="351" type="curve"/>
      <point x="68" y="369" type="line"/>
      <point x="79" y="346"/>
      <point x="93" y="330"/>
      <point x="118" y="330" type="curve" smooth="yes"/>
      <point x="142" y="330"/>
      <point x="161" y="348"/>
      <point x="172" y="381" type="curve"/>
    </contour>
  </outline>
</glyph>
<glyph name="dotaccent" format="1">
  <advance width="220"/>
  <unicode hex="02D9"/>
  <outline>
    <contour>
      <point x="138" y="366" type="line"/>
      <point x="126" y="299" type="line"/>
      <point x="87" y="301" type="line"/>
      <point x="75" y="306"/>
      <point x="72" y="314"/>
      <point x="72" y="325" type="curve" smooth="yes"/>
      <point x="72" y="339"/>
      <point x="81" y="353"/>
      <point x="98" y="362" type="curve"/>
    </contour>
  </outline>
</glyph>
<glyph name="ring" format="1">
  <advance width="220"/>
  <unicode hex="02DA"/>
  <outline>
    <contour>
      <point x="172" y="354" type="curve" smooth="yes"/>
      <point x="172" y="320"/>
      <point x="144" y="292"/>
      <point x="110" y="292" type="curve" smooth="yes"/>
      <point x="76" y="292"/>
      <point x="48" y="320"/>
      <point x="48" y="354" type="curve" smooth="yes"/>
      <point x="48" y="388"/>
      <point x="76" y="417"/>
      <point x="110" y="417" type="curve" smooth="yes"/>
      <point x="144" y="417"/>
      <point x="172" y="388"/>
    </contour>
    <contour>
      <point x="147" y="354" type="curve" smooth="yes"/>
      <point x="147" y="375"/>
      <point x="131" y="392"/>
      <point x="110" y="392" type="curve" smooth="yes"/>
      <point x="89" y="392"/>
      <point x="73" y="375"/>
      <point x="73" y="354" type="curve" smooth="yes"/>
      <point x="73" y="333"/>
      <point x="89" y="317"/>
      <point x="110" y="317" type="curve" smooth="yes"/>
      <point x="131" y="317"/>
      <point x="147" y="333"/>
    </contour>
  </outline>
</glyph>
<glyph name="ogonek" format="1">
  <advance width="220"/>
  <unicode hex="02DB"/>
  <outline>
    <contour>
      <point x="149" y="-105" type="curve"/>
      <point x="142" y="-121" type="line"/>
      <point x="107" y="-111"/>
      <point x="75" y="-86"/>
      <point x="63" y="-52" type="curve"/>
      <point x="95" y="-15" type="line"/>
      <point x="126" y="-31" type="line"/>
      <point x="101" y="-61" type="line"/>
      <point x="107" y="-81"/>
      <point x="129" y="-97"/>
    </contour>
  </outline>
</glyph>
<glyph name="tilde" format="1">
  <advance width="220"/>
  <unicode hex="02DC"/>
  <outline>
    <contour>
      <point x="185" y="337" type="line"/>
      <point x="150" y="298" type="line"/>
      <point x="121" y="298"/>
      <point x="96" y="313"/>
      <point x="78" y="331" type="curve"/>
      <point x="48" y="308" type="line"/>
      <point x="35" y="318" type="line"/>
      <point x="72" y="365" type="line"/>
      <point x="97" y="368" type="line"/>
      <point x="108" y="345"/>
      <point x="130" y="329"/>
      <point x="146" y="327" type="curve"/>
      <point x="171" y="345" type="line"/>
    </contour>
  </outline>
</glyph>
<glyph name="hungarumlaut" format="1">
  <advance width="220"/>
  <unicode hex="02DD"/>
  <outline>
    <contour>
      <point x="105" y="377" type="curve" smooth="yes"/>
      <point x="105" y="368"/>
      <point x="101" y="360"/>
      <point x="95" y="352" type="curve" smooth="yes"/>
      <point x="54" y="300" type="line"/>
      <point x="43" y="310" type="line"/>
      <point x="79" y="410" type="line"/>
      <point x="96" y="400"/>
      <point x="105" y="389"/>
    </contour>
    <contour>
      <point x="184" y="360" type="curve" smooth="yes"/>
      <point x="184" y="348"/>
      <point x="180" y="340"/>
      <point x="165" y="331" type="curve" smooth="yes"/>
      <point x="114" y="300" type="line"/>
      <point x="106" y="314" type="line"/>
      <point x="170" y="393" type="line"/>
      <point x="177" y="386"/>
      <point x="184" y="371"/>
    </contour>
  </outline>
</glyph>
<glyph name="endash" format="1">
  <advance width="220"/>
  <unicode hex="2013"/>
  <outline>
    <contour>
      <point x="207" y="116" type="line"/>
      <point x="14" y="121" type="line"/>
      <point x="11" y="140" type="line"/>
      <point x="203" y="146" type="line"/>
    </contour>
  </outline>
</glyph>
<glyph name="emdash" format="1">
  <advance width="340"/>
  <unicode hex="2014"/>
  <outline>
    <contour>
      <point x="328" y="137" type="line"/>
      <point x="326" y="115" type="line"/>
      <point x="14" y="122" type="line"/>
      <point x="17" y="158" type="line"/>
    </contour>
  </outline>
</glyph>
<glyph name="quoteleft" format="1">
  <advance width="93"/>
  <unicode hex="2018"/>
  <unicode hex="02BB"/>
  <outline>
    <contour>
      <point x="103" y="558" type="line"/>
      <point x="81" y="525"/>
      <point x="60" y="478"/>
      <point x="49" y="431" type="curve"/>
      <point x="21" y="421" type="line"/>
      <point x="24" y="451"/>
      <point x="40" y="513"/>
      <point x="55" y="548" type="curve"/>
    </contour>
  </outline>
</glyph>
<glyph name="quoteright" format="1">
  <advance width="93"/>
  <unicode hex="2019"/>
  <unicode hex="02BC"/>
  <outline>
    <contour>
      <point x="96" y="559" type="line"/>
      <point x="93" y="529"/>
      <point x="77" y="467"/>
      <point x="62" y="432" type="curve"/>
      <point x="14" y="422" type="line"/>
      <point x="36" y="455"/>
      <point x="57" y="502"/>
      <point x="68" y="549" type="curve"/>
    </contour>
  </outline>
</glyph>
<glyph name="quotesinglbase" format="1">
  <advance width="93"/>
  <unicode hex="201A"/>
  <outline>
    <contour>
      <point x="76" y="79" type="line"/>
      <point x="73" y="49"/>
      <point x="57" y="-13"/>
      <point x="42" y="-48" type="curve"/>
      <point x="-6" y="-58" type="line"/>
      <point x="16" y="-25"/>
      <point x="37" y="22"/>
      <point x="48" y="69" type="curve"/>
    </contour>
  </outline>
</glyph>
<glyph name="quotedblleft" format="1">
  <advance width="176"/>
  <unicode hex="201C"/>
  <outline>
    <contour>
      <point x="186" y="558" type="line"/>
      <point x="164" y="525"/>
      <point x="143" y="478"/>
      <point x="132" y="431" type="curve"/>
      <point x="104" y="421" type="line"/>
      <point x="107" y="451"/>
      <point x="123" y="513"/>
      <point x="138" y="548" type="curve"/>
    </contour>
    <contour>
      <point x="103" y="558" type="line"/>
      <point x="81" y="525"/>
      <point x="60" y="478"/>
      <point x="49" y="431" type="curve"/>
      <point x="21" y="421" type="line"/>
      <point x="24" y="451"/>
      <point x="40" y="513"/>
      <point x="55" y="548" type="curve"/>
    </contour>
  </outline>
</glyph>
<glyph name="quotedblright" format="1">
  <advance width="176"/>
  <unicode hex="201D"/>
  <outline>
    <contour>
      <point x="179" y="559" type="line"/>
      <point x="176" y="529"/>
      <point x="160" y="467"/>
      <point x="145" y="432" type="curve"/>
      <point x="97" y="422" type="line"/>
      <point x="119" y="455"/>
      <point x="140" y="502"/>
      <point x="151" y="549" type="curve"/>
    </contour>
    <contour>
      <point x="96" y="559" type="line"/>
      <point x="93" y="529"/>
      <point x="77" y="467"/>
      <point x="62" y="432" type="curve"/>
      <point x="14" y="422" type="line"/>
      <point x="36" y="455"/>
      <point x="57" y="502"/>
      <point x="68" y="549" type="curve"/>
    </contour>
  </outline>
</glyph>
<glyph name="quotedblbase" format="1">
  <advance width="176"/>
  <unicode hex="201E"/>
  <outline>
    <contour>
      <point x="159" y="79" type="line"/>
      <point x="156" y="49"/>
      <point x="140" y="-13"/>
      <point x="125" y="-48" type="curve"/>
      <point x="77" y="-58" type="line"/>
      <point x="99" y="-25"/>
      <point x="120" y="22"/>
      <point x="131" y="69" type="curve"/>
    </contour>
    <contour>
      <point x="76" y="79" type="line"/>
      <point x="73" y="49"/>
      <point x="57" y="-13"/>
      <point x="42" y="-48" type="curve"/>
      <point x="-6" y="-58" type="line"/>
      <point x="16" y="-25"/>
      <point x="37" y="22"/>
      <point x="48" y="69" type="curve"/>
    </contour>
  </outline>
</glyph>
<glyph name="dagger" format="1">
  <advance width="241"/>
  <unicode hex="2020"/>
  <outline>
    <contour>
      <point x="228" y="263" type="line"/>
      <point x="220" y="224" type="line"/>
      <point x="133" y="224" type="line"/>
      <point x="126" y="5" type="line"/>
      <point x="97" y="-29" type="line"/>
      <point x="103" y="224" type="line"/>
      <point x="7" y="224" type="line"/>
      <point x="21" y="263" type="line"/>
      <point x="105" y="263" type="line"/>
      <point x="108" y="399" type="line"/>
      <point x="139" y="416" type="line"/>
      <point x="134" y="263" type="line"/>
    </contour>
  </outline>
</glyph>
<glyph name="ellipsis" format="1">
  <advance width="346"/>
  <unicode hex="2026"/>
  <outline>
    <contour>
      <point x="93" y="-1" type="curve"/>
      <point x="38" y="-10" type="line"/>
      <point x="29" y="-1"/>
      <point x="24" y="12"/>
      <point x="24" y="23" type="curve" smooth="yes"/>
      <point x="24" y="50"/>
      <point x="60" y="60"/>
      <point x="86" y="63" type="curve"/>
      <point x="84" y="38"/>
      <point x="88" y="18"/>
    </contour>
    <contour>
      <point x="327" y="8" type="curve"/>
      <point x="316" y="-2"/>
      <point x="297" y="-10"/>
      <point x="281" y="-10" type="curve" smooth="yes"/>
      <point x="263" y="-10"/>
      <point x="252" y="-1"/>
      <point x="252" y="18" type="curve" smooth="yes"/>
      <point x="252" y="27"/>
      <point x="254" y="36"/>
      <point x="259" y="45" type="curve"/>
      <point x="316" y="62" type="line"/>
      <point x="317" y="39"/>
      <point x="320" y="24"/>
    </contour>
    <contour>
      <point x="211" y="60" type="line"/>
      <point x="202" y="38"/>
      <point x="197" y="12"/>
      <point x="197" y="-10" type="curve"/>
      <point x="171" y="-7"/>
      <point x="141" y="2"/>
      <point x="141" y="27" type="curve" smooth="yes"/>
      <point x="141" y="38"/>
      <point x="144" y="45"/>
      <point x="150" y="55" type="curve"/>
    </contour>
  </outline>
</glyph>
